M48
;Layer_Color=9474304
;FILE_FORMAT=4:4
METRIC,LZ
;TYPE=PLATED
T1F00S00C0.7000
T2F00S00C0.8500
T3F00S00C0.9500
T4F00S00C1.0000
T5F00S00C1.0200
T6F00S00C2.0000
%
T01
X0024003Y0030266
Y0035266
X003433Y0030353
X003933
X0039203Y0021082
X0034203
T02
X00572113Y00126927
Y00216928
X0057023Y0031314
Y0040314
T03
X004826Y0021463
X00508
X0051308Y0040894
X0048768
T04
X001899Y0009144
X0033528Y0012573
X0036068
X0038608
X001149Y0009144
X0007244Y0019685
Y0025654
X0007371Y0032131
X0007239Y0038227
X0016119
X0016251Y0032131
X0016124Y0025654
Y0019685
X0033528Y0037465
X0036068
X0038608
T05
X0048895Y0010922
Y0013462
X0002286Y0026035
Y0028575
X0048768Y0029718
Y0032258
T06
X006Y0002
X0002
Y0045
X006
M30
