G04*
G04 #@! TF.GenerationSoftware,Altium Limited,Altium Designer,22.7.1 (60)*
G04*
G04 Layer_Color=2752767*
%FSLAX44Y44*%
%MOMM*%
G71*
G04*
G04 #@! TF.SameCoordinates,434E903D-8B78-4AA0-9AEB-5D1347DF7218*
G04*
G04*
G04 #@! TF.FilePolarity,Positive*
G04*
G01*
G75*
%ADD37C,0.0508*%
%ADD38C,0.0677*%
D37*
X112868Y89408D02*
Y93472D01*
X116932D01*
Y89408D01*
X112868D01*
X187868D02*
Y93472D01*
X191932D01*
Y89408D01*
X187868D01*
X159208Y254508D02*
Y258572D01*
X163272D01*
Y254508D01*
X159208D01*
X70408D02*
Y258572D01*
X74472D01*
Y254508D01*
X70408D01*
X159208Y194818D02*
Y198882D01*
X163272D01*
Y194818D01*
X159208D01*
X70408D02*
Y198882D01*
X74472D01*
Y194818D01*
X70408D01*
X384048Y123698D02*
Y127762D01*
X388112D01*
Y123698D01*
X384048D01*
X358648D02*
Y127762D01*
X362712D01*
Y123698D01*
X358648D01*
X333248D02*
Y127762D01*
X337312D01*
Y123698D01*
X333248D01*
X572113Y124895D02*
X570080Y128960D01*
X574145D01*
X572113Y124895D01*
Y214895D02*
X570080Y218960D01*
X574145D01*
X572113Y214895D01*
X384048Y372618D02*
Y376682D01*
X388112D01*
Y372618D01*
X384048D01*
X358648D02*
Y376682D01*
X362712D01*
Y372618D01*
X358648D01*
X333248D02*
Y376682D01*
X337312D01*
Y372618D01*
X333248D01*
X159158Y380238D02*
Y384302D01*
X163222D01*
Y380238D01*
X159158D01*
X70358D02*
Y384302D01*
X74422D01*
Y380238D01*
X70358D01*
X160478Y319278D02*
Y323342D01*
X164542D01*
Y319278D01*
X160478D01*
X71678D02*
Y323342D01*
X75742D01*
Y319278D01*
X71678D01*
X570230Y311108D02*
X568198Y315172D01*
X572262D01*
X570230Y311108D01*
Y401108D02*
X568198Y405172D01*
X572262D01*
X570230Y401108D01*
X508000Y212598D02*
X509016Y213614D01*
X510032D01*
X509016Y214630D01*
X510032Y215646D01*
X509016D01*
X508000Y216662D01*
X506984Y215646D01*
X505968D01*
X506984Y214630D01*
X505968Y213614D01*
X506984D01*
X508000Y212598D01*
X482600D02*
X483616Y213614D01*
X484632D01*
X483616Y214630D01*
X484632Y215646D01*
X483616D01*
X482600Y216662D01*
X481584Y215646D01*
X480568D01*
X481584Y214630D01*
X480568Y213614D01*
X481584D01*
X482600Y212598D01*
X237998Y300628D02*
X239014Y302660D01*
X237998Y304692D01*
X240030Y303676D01*
X242062Y304692D01*
X241046Y302660D01*
X242062Y300628D01*
X240030Y301644D01*
X237998Y300628D01*
Y350628D02*
X239014Y352660D01*
X237998Y354692D01*
X240030Y353676D01*
X242062Y354692D01*
X241046Y352660D01*
X242062Y350628D01*
X240030Y351644D01*
X237998Y350628D01*
X513080Y406908D02*
X514096Y407924D01*
X515112D01*
X514096Y408940D01*
X515112Y409956D01*
X514096D01*
X513080Y410972D01*
X512064Y409956D01*
X511048D01*
X512064Y408940D01*
X511048Y407924D01*
X512064D01*
X513080Y406908D01*
X487680D02*
X488696Y407924D01*
X489712D01*
X488696Y408940D01*
X489712Y409956D01*
X488696D01*
X487680Y410972D01*
X486664Y409956D01*
X485648D01*
X486664Y408940D01*
X485648Y407924D01*
X486664D01*
X487680Y406908D01*
X341268Y301498D02*
X342284Y303530D01*
X341268Y305562D01*
X343300Y304546D01*
X345332Y305562D01*
X344316Y303530D01*
X345332Y301498D01*
X343300Y302514D01*
X341268Y301498D01*
X391268D02*
X392284Y303530D01*
X391268Y305562D01*
X393300Y304546D01*
X395332Y305562D01*
X394316Y303530D01*
X395332Y301498D01*
X393300Y302514D01*
X391268Y301498D01*
X339998Y208788D02*
X341014Y210820D01*
X339998Y212852D01*
X342030Y211836D01*
X344062Y212852D01*
X343046Y210820D01*
X344062Y208788D01*
X342030Y209804D01*
X339998Y208788D01*
X389998D02*
X391014Y210820D01*
X389998Y212852D01*
X392030Y211836D01*
X394062Y212852D01*
X393046Y210820D01*
X394062Y208788D01*
X392030Y209804D01*
X389998Y208788D01*
X597968Y450000D02*
X600000Y452032D01*
X602032Y450000D01*
X600000Y447968D01*
X597968Y450000D01*
X17968D02*
X20000Y452032D01*
X22032Y450000D01*
X20000Y447968D01*
X17968Y450000D01*
Y20000D02*
X20000Y22032D01*
X22032Y20000D01*
X20000Y17968D01*
X17968Y20000D01*
X597968D02*
X600000Y22032D01*
X602032Y20000D01*
X600000Y17968D01*
X597968Y20000D01*
D38*
X24892Y285750D02*
G03*
X24892Y285750I-2032J0D01*
G01*
Y260350D02*
G03*
X24892Y260350I-2032J0D01*
G01*
X490982Y134620D02*
G03*
X490982Y134620I-2032J0D01*
G01*
Y109220D02*
G03*
X490982Y109220I-2032J0D01*
G01*
X489712Y297180D02*
G03*
X489712Y297180I-2032J0D01*
G01*
Y322580D02*
G03*
X489712Y322580I-2032J0D01*
G01*
M02*
