G04*
G04 #@! TF.GenerationSoftware,Altium Limited,Altium Designer,22.7.1 (60)*
G04*
G04 Layer_Color=0*
%FSLAX44Y44*%
%MOMM*%
G71*
G04*
G04 #@! TF.SameCoordinates,434E903D-8B78-4AA0-9AEB-5D1347DF7218*
G04*
G04*
G04 #@! TF.FilePolarity,Positive*
G04*
G01*
G75*
%ADD35C,0.1000*%
D35*
X152400Y86440D02*
Y96440D01*
X147400Y91440D02*
X157400D01*
X116840Y251540D02*
Y261540D01*
X111840Y256540D02*
X121840D01*
X116840Y191850D02*
Y201850D01*
X111840Y196850D02*
X121840D01*
X17860Y273050D02*
X27860D01*
X22860Y268050D02*
Y278050D01*
X116790Y377270D02*
Y387270D01*
X111790Y382270D02*
X121790D01*
X118110Y316310D02*
Y326310D01*
X113110Y321310D02*
X123110D01*
X483950Y121920D02*
X493950D01*
X488950Y116920D02*
Y126920D01*
X482680Y309880D02*
X492680D01*
X487680Y304880D02*
Y314880D01*
X495300Y209630D02*
Y219630D01*
X490300Y214630D02*
X500300D01*
X235030Y327660D02*
X245030D01*
X240030Y322660D02*
Y332660D01*
X500380Y403940D02*
Y413940D01*
X495380Y408940D02*
X505380D01*
X368300Y298530D02*
Y308530D01*
X363300Y303530D02*
X373300D01*
X367030Y205820D02*
Y215820D01*
X362030Y210820D02*
X372030D01*
M02*
