G04*
G04 #@! TF.GenerationSoftware,Altium Limited,Altium Designer,22.7.1 (60)*
G04*
G04 Layer_Color=32768*
%FSLAX44Y44*%
%MOMM*%
G71*
G04*
G04 #@! TF.SameCoordinates,434E903D-8B78-4AA0-9AEB-5D1347DF7218*
G04*
G04*
G04 #@! TF.FilePolarity,Positive*
G04*
G01*
G75*
%ADD12C,0.2000*%
%ADD35C,0.1000*%
%ADD36C,0.0500*%
D12*
X235900Y91440D02*
G03*
X68900Y91440I-83500J0D01*
G01*
D02*
G03*
X235900Y91440I83500J0D01*
G01*
X463800Y214630D02*
G03*
X526800Y214630I31500J0D01*
G01*
D02*
G03*
X463800Y214630I-31500J0D01*
G01*
X468880Y408940D02*
G03*
X531880Y408940I31500J0D01*
G01*
D02*
G03*
X468880Y408940I-31500J0D01*
G01*
X63690Y241540D02*
Y271540D01*
Y241540D02*
X169990D01*
Y271540D01*
X63690D02*
X169990D01*
X63690Y181850D02*
Y211850D01*
Y181850D02*
X169990D01*
Y211850D01*
X63690D02*
X169990D01*
X8510Y244750D02*
X37210D01*
Y301350D01*
X8510D02*
X37210D01*
X8510Y244750D02*
Y301350D01*
X63640Y367270D02*
Y397270D01*
Y367270D02*
X169940D01*
Y397270D01*
X63640D02*
X169940D01*
X64960Y306310D02*
Y336310D01*
Y306310D02*
X171260D01*
Y336310D01*
X64960D02*
X171260D01*
X474600Y93620D02*
X503300D01*
Y150220D01*
X474600D02*
X503300D01*
X474600Y93620D02*
Y150220D01*
X473330Y338180D02*
X502030D01*
X473330Y281580D02*
Y338180D01*
Y281580D02*
X502030D01*
Y338180D01*
X226530Y359660D02*
X253530D01*
X226530Y295660D02*
Y359660D01*
Y295660D02*
X253530D01*
Y359660D01*
X400300Y290030D02*
Y317030D01*
X336300D02*
X400300D01*
X336300Y290030D02*
Y317030D01*
Y290030D02*
X400300D01*
X399030Y197320D02*
Y224320D01*
X335030D02*
X399030D01*
X335030Y197320D02*
Y224320D01*
Y197320D02*
X399030D01*
D35*
X355680Y125730D02*
X365680D01*
X360680Y120730D02*
Y130730D01*
X567113Y171928D02*
X577113D01*
X572113Y166928D02*
Y176928D01*
X355680Y374650D02*
X365680D01*
X360680Y369650D02*
Y379650D01*
X565230Y358140D02*
X575230D01*
X570230Y353140D02*
Y363140D01*
D36*
X414180Y102830D02*
Y154830D01*
X307180Y102830D02*
Y154830D01*
X414180D01*
X307180Y102830D02*
X414180D01*
X559113Y224678D02*
X585112D01*
X559113Y119178D02*
Y224678D01*
X585112Y119178D02*
Y224678D01*
X559113Y119178D02*
X585112D01*
X414180Y351750D02*
Y403750D01*
X307180Y351750D02*
Y403750D01*
X414180D01*
X307180Y351750D02*
X414180D01*
X557230Y410890D02*
X583230D01*
X557230Y305390D02*
Y410890D01*
X583230Y305390D02*
Y410890D01*
X557230Y305390D02*
X583230D01*
M02*
