G04*
G04 #@! TF.GenerationSoftware,Altium Limited,Altium Designer,22.7.1 (60)*
G04*
G04 Layer_Physical_Order=1*
G04 Layer_Color=255*
%FSLAX44Y44*%
%MOMM*%
G71*
G04*
G04 #@! TF.SameCoordinates,434E903D-8B78-4AA0-9AEB-5D1347DF7218*
G04*
G04*
G04 #@! TF.FilePolarity,Positive*
G04*
G01*
G75*
%ADD14C,1.5500*%
%ADD15R,1.5500X1.5500*%
%ADD16C,1.5700*%
%ADD17R,1.5700X1.5700*%
%ADD22C,1.4500*%
%ADD23R,1.4500X1.4500*%
%ADD24C,1.2000*%
%ADD25R,1.2000X1.2000*%
%ADD26R,1.2000X1.2000*%
%ADD28C,1.6000*%
%ADD29R,1.6000X1.6000*%
%ADD30R,1.3500X1.3500*%
%ADD31C,1.3500*%
%ADD32C,2.5000*%
D14*
X114900Y91440D02*
D03*
X161240Y256540D02*
D03*
Y196850D02*
D03*
X161190Y382270D02*
D03*
X162510Y321310D02*
D03*
D15*
X189900Y91440D02*
D03*
X72440Y256540D02*
D03*
Y196850D02*
D03*
X72390Y382270D02*
D03*
X73710Y321310D02*
D03*
D16*
X22860Y285750D02*
D03*
X488950Y134620D02*
D03*
X487680Y297180D02*
D03*
D17*
X22860Y260350D02*
D03*
X488950Y109220D02*
D03*
X487680Y322580D02*
D03*
D22*
X508000Y214630D02*
D03*
X513080Y408940D02*
D03*
D23*
X482600Y214630D02*
D03*
X487680Y408940D02*
D03*
D24*
X240030Y302660D02*
D03*
X343300Y303530D02*
D03*
X342030Y210820D02*
D03*
D25*
X240030Y352660D02*
D03*
D26*
X393300Y303530D02*
D03*
X392030Y210820D02*
D03*
D28*
X386080Y125730D02*
D03*
X360680D02*
D03*
X386080Y374650D02*
D03*
X360680D02*
D03*
D29*
X335280Y125730D02*
D03*
Y374650D02*
D03*
D30*
X572113Y126927D02*
D03*
X570230Y313140D02*
D03*
D31*
X572113Y216928D02*
D03*
X570230Y403140D02*
D03*
D32*
X600000Y450000D02*
D03*
X20000D02*
D03*
Y20000D02*
D03*
X600000D02*
D03*
M02*
