G04*
G04 #@! TF.GenerationSoftware,Altium Limited,Altium Designer,22.7.1 (60)*
G04*
G04 Layer_Physical_Order=2*
G04 Layer_Color=16711680*
%FSLAX44Y44*%
%MOMM*%
G71*
G04*
G04 #@! TF.SameCoordinates,434E903D-8B78-4AA0-9AEB-5D1347DF7218*
G04*
G04*
G04 #@! TF.FilePolarity,Positive*
G04*
G01*
G75*
%ADD14C,1.5500*%
%ADD15R,1.5500X1.5500*%
%ADD16C,1.5700*%
%ADD17R,1.5700X1.5700*%
%ADD22C,1.4500*%
%ADD23R,1.4500X1.4500*%
%ADD24C,1.2000*%
%ADD25R,1.2000X1.2000*%
%ADD26R,1.2000X1.2000*%
%ADD28C,1.6000*%
%ADD29R,1.6000X1.6000*%
%ADD30R,1.3500X1.3500*%
%ADD31C,1.3500*%
%ADD32C,2.5000*%
%ADD33C,1.0000*%
%ADD34C,0.5000*%
D14*
X114900Y91440D02*
D03*
X161240Y256540D02*
D03*
Y196850D02*
D03*
X161190Y382270D02*
D03*
X162510Y321310D02*
D03*
D15*
X189900Y91440D02*
D03*
X72440Y256540D02*
D03*
Y196850D02*
D03*
X72390Y382270D02*
D03*
X73710Y321310D02*
D03*
D16*
X22860Y285750D02*
D03*
X488950Y134620D02*
D03*
X487680Y297180D02*
D03*
D17*
X22860Y260350D02*
D03*
X488950Y109220D02*
D03*
X487680Y322580D02*
D03*
D22*
X508000Y214630D02*
D03*
X513080Y408940D02*
D03*
D23*
X482600Y214630D02*
D03*
X487680Y408940D02*
D03*
D24*
X240030Y302660D02*
D03*
X343300Y303530D02*
D03*
X342030Y210820D02*
D03*
D25*
X240030Y352660D02*
D03*
D26*
X393300Y303530D02*
D03*
X392030Y210820D02*
D03*
D28*
X386080Y125730D02*
D03*
X360680D02*
D03*
X386080Y374650D02*
D03*
X360680D02*
D03*
D29*
X335280Y125730D02*
D03*
Y374650D02*
D03*
D30*
X572113Y126927D02*
D03*
X570230Y313140D02*
D03*
D31*
X572113Y216928D02*
D03*
X570230Y403140D02*
D03*
D32*
X600000Y450000D02*
D03*
X20000D02*
D03*
Y20000D02*
D03*
X600000D02*
D03*
D33*
X513080Y408940D02*
X558940D01*
X563114Y404766D01*
X594360Y300109D02*
Y352671D01*
X472440Y297180D02*
X487680D01*
X591431D01*
X370840Y310840D02*
X380040Y320040D01*
X449580D01*
X370840Y298450D02*
Y310840D01*
Y298450D02*
X454660Y214630D01*
X360680Y360680D02*
Y374650D01*
X343300Y303530D02*
Y343300D01*
X360680Y360680D01*
X480350Y212380D02*
X482600Y214630D01*
X480350Y206872D02*
Y212380D01*
X480000Y206522D02*
X480350Y206872D01*
X480000Y146465D02*
Y206522D01*
Y146465D02*
X488950Y137515D01*
X428170Y170000D02*
X463550Y134620D01*
X374470Y170000D02*
X428170D01*
X360680Y156210D02*
X374470Y170000D01*
X360680Y139320D02*
Y156210D01*
Y125730D02*
Y139320D01*
X340691Y159309D02*
Y209481D01*
Y159309D02*
X360680Y139320D01*
X250000Y250000D02*
X303530Y303530D01*
X178690Y321310D02*
X250000Y250000D01*
X303530Y303530D02*
X343300D01*
X250000Y250000D02*
X289180Y210820D01*
X342030D01*
X178690Y321310D02*
X221380D01*
X168690D02*
X178690D01*
X162510Y307490D02*
X200000Y270000D01*
Y234290D02*
Y270000D01*
X162510Y307490D02*
Y321310D01*
X162560Y196850D02*
X200000Y234290D01*
X60119Y199881D02*
X69409D01*
X27203Y232797D02*
Y256007D01*
Y232797D02*
X60119Y199881D01*
X38689Y260350D02*
X69039Y230000D01*
X134700D02*
X161240Y256540D01*
X69039Y230000D02*
X134700D01*
X125520Y275520D02*
X164480D01*
X180340Y259660D01*
X77690Y261790D02*
X111790D01*
X125520Y275520D01*
X180340Y246380D02*
Y259660D01*
X541020Y355600D02*
X591431D01*
X487680Y408940D02*
X541020Y355600D01*
X487680Y322580D02*
X560790D01*
X561340Y83820D02*
X604520Y127000D01*
X427990Y83820D02*
X561340D01*
X386080Y125730D02*
X427990Y83820D01*
X386080Y125730D02*
X444500D01*
X463550Y134620D02*
X488950D01*
X316230Y106680D02*
X335280Y125730D01*
X243840Y106680D02*
X316230D01*
X386080Y374650D02*
X427990D01*
X475717Y326923D01*
X358140Y328600D02*
X386080Y356540D01*
Y374650D01*
X240030Y352660D02*
X275990Y388620D01*
X321310D02*
X335280Y374650D01*
X275990Y388620D02*
X321310D01*
X221380Y321310D02*
X240030Y302660D01*
X104540Y350120D02*
X237490D01*
X22860Y260350D02*
X38689D01*
X49530Y312420D02*
Y321310D01*
X22860Y285750D02*
X49530Y312420D01*
X509149Y215779D02*
X570964D01*
X454660Y214630D02*
X482600D01*
X554405Y109220D02*
X572113Y126927D01*
X488950Y109220D02*
X554405D01*
X463550Y106680D02*
X486410D01*
X444500Y125730D02*
X463550Y106680D01*
X161240Y196850D02*
X189900Y168190D01*
Y91440D02*
Y168190D01*
X114900Y90193D02*
X125060Y80033D01*
Y41910D02*
Y80033D01*
X99660Y106680D02*
X114900Y91440D01*
X99660Y106680D02*
Y165700D01*
X179070Y41910D02*
X243840Y106680D01*
X99660Y165700D02*
X180340Y246380D01*
X125060Y41910D02*
X179070D01*
X54560Y355989D02*
Y402201D01*
X161240Y382320D02*
Y402201D01*
X57489Y405130D02*
X158311D01*
X57489Y353060D02*
X73271D01*
X76200Y323800D02*
Y350131D01*
X74930Y259030D02*
Y289560D01*
X104540Y319170D01*
Y350120D01*
X72390Y382270D02*
X104540Y350120D01*
X449580Y320040D02*
X472440Y297180D01*
X475717Y326923D02*
X483337D01*
X358140Y290704D02*
Y328600D01*
Y290704D02*
X392030Y256814D01*
Y210820D02*
Y256814D01*
X435210Y261620D02*
X601591D01*
X604520Y127000D02*
Y258691D01*
X393300Y303530D02*
X435210Y261620D01*
X560790Y322580D02*
X570230Y313140D01*
X49530Y321310D02*
X73710D01*
D34*
X563114Y404766D02*
X568604D01*
X570230Y403140D01*
X340691Y209481D02*
X342030Y210820D01*
X162510Y321310D02*
X168690D01*
X69409Y199881D02*
X72440Y196850D01*
X591431Y297180D02*
X594360Y300109D01*
X591431Y355600D02*
X594360Y352671D01*
X237490Y350120D02*
X240030Y352660D01*
X22860Y260350D02*
X27203Y256007D01*
X570964Y215779D02*
X572113Y216928D01*
X508000Y214630D02*
X509149Y215779D01*
X488950Y134620D02*
Y137515D01*
X486410Y106680D02*
X488950Y109220D01*
X114900Y90193D02*
Y91440D01*
X161240Y196850D02*
X162560D01*
X54560Y402201D02*
X57489Y405130D01*
X158311D02*
X161240Y402201D01*
X73710Y321310D02*
X76200Y323800D01*
X73271Y353060D02*
X76200Y350131D01*
X54560Y355989D02*
X57489Y353060D01*
X74930Y259030D02*
X77690Y261790D01*
X72440Y256540D02*
X74930Y259030D01*
X483337Y326923D02*
X487680Y322580D01*
X601591Y261620D02*
X604520Y258691D01*
X508000Y214630D02*
X508995Y213635D01*
X571118Y217922D02*
X572113Y216928D01*
X161190Y382270D02*
X161240Y382320D01*
M02*
