G04*
G04 #@! TF.GenerationSoftware,Altium Limited,Altium Designer,22.7.1 (60)*
G04*
G04 Layer_Color=16711935*
%FSLAX44Y44*%
%MOMM*%
G71*
G04*
G04 #@! TF.SameCoordinates,434E903D-8B78-4AA0-9AEB-5D1347DF7218*
G04*
G04*
G04 #@! TF.FilePolarity,Positive*
G04*
G01*
G75*
%ADD12C,0.2000*%
G36*
X149571Y91431D02*
X149654D01*
X149756Y91422D01*
X149867Y91403D01*
X149996Y91385D01*
X150264Y91338D01*
X150542Y91264D01*
X150819Y91163D01*
X150948Y91098D01*
X151078Y91024D01*
X151087Y91015D01*
X151106Y91005D01*
X151143Y90978D01*
X151180Y90941D01*
X151235Y90904D01*
X151300Y90848D01*
X151374Y90784D01*
X151448Y90710D01*
X151522Y90626D01*
X151605Y90543D01*
X151771Y90331D01*
X151929Y90081D01*
X152067Y89804D01*
Y89794D01*
X152086Y89767D01*
X152095Y89720D01*
X152123Y89665D01*
X152141Y89591D01*
X152169Y89499D01*
X152206Y89397D01*
X152234Y89286D01*
X152261Y89166D01*
X152298Y89027D01*
X152345Y88740D01*
X152382Y88417D01*
X152400Y88084D01*
Y88075D01*
Y88038D01*
Y87982D01*
X152391Y87917D01*
Y87825D01*
X152382Y87733D01*
X152372Y87612D01*
X152354Y87492D01*
X152308Y87224D01*
X152243Y86928D01*
X152150Y86632D01*
X152021Y86346D01*
X152012Y86336D01*
X152002Y86309D01*
X151984Y86272D01*
X151947Y86226D01*
X151910Y86161D01*
X151864Y86087D01*
X151744Y85920D01*
X151587Y85736D01*
X151402Y85551D01*
X151189Y85366D01*
X150939Y85209D01*
X150930Y85199D01*
X150902Y85190D01*
X150865Y85172D01*
X150819Y85144D01*
X150745Y85116D01*
X150671Y85088D01*
X150579Y85051D01*
X150477Y85014D01*
X150366Y84977D01*
X150246Y84940D01*
X149987Y84885D01*
X149691Y84839D01*
X149386Y84820D01*
X149294D01*
X149229Y84830D01*
X149146Y84839D01*
X149044Y84848D01*
X148942Y84857D01*
X148822Y84885D01*
X148572Y84940D01*
X148295Y85024D01*
X148156Y85079D01*
X148027Y85144D01*
X147898Y85227D01*
X147768Y85310D01*
X147759Y85319D01*
X147740Y85329D01*
X147703Y85357D01*
X147657Y85403D01*
X147611Y85449D01*
X147546Y85514D01*
X147481Y85588D01*
X147408Y85662D01*
X147333Y85754D01*
X147260Y85865D01*
X147176Y85976D01*
X147102Y86096D01*
X147038Y86235D01*
X146964Y86374D01*
X146908Y86521D01*
X146853Y86688D01*
X147685Y86882D01*
Y86873D01*
X147694Y86854D01*
X147713Y86817D01*
X147731Y86771D01*
X147750Y86716D01*
X147777Y86642D01*
X147851Y86494D01*
X147944Y86327D01*
X148055Y86161D01*
X148193Y86004D01*
X148341Y85865D01*
X148360Y85847D01*
X148415Y85809D01*
X148508Y85763D01*
X148628Y85699D01*
X148785Y85643D01*
X148961Y85588D01*
X149173Y85551D01*
X149404Y85541D01*
X149479D01*
X149525Y85551D01*
X149589D01*
X149663Y85560D01*
X149839Y85588D01*
X150033Y85625D01*
X150237Y85689D01*
X150449Y85782D01*
X150643Y85902D01*
X150653D01*
X150662Y85920D01*
X150727Y85967D01*
X150810Y86041D01*
X150912Y86152D01*
X151032Y86290D01*
X151143Y86447D01*
X151244Y86642D01*
X151337Y86854D01*
Y86863D01*
X151346Y86882D01*
X151355Y86910D01*
X151365Y86956D01*
X151383Y87011D01*
X151402Y87076D01*
X151429Y87233D01*
X151466Y87418D01*
X151503Y87622D01*
X151522Y87844D01*
X151531Y88084D01*
Y88093D01*
Y88121D01*
Y88167D01*
Y88223D01*
X151522Y88287D01*
Y88371D01*
X151512Y88463D01*
X151503Y88565D01*
X151475Y88787D01*
X151429Y89027D01*
X151374Y89267D01*
X151300Y89508D01*
Y89517D01*
X151291Y89536D01*
X151272Y89563D01*
X151254Y89609D01*
X151198Y89720D01*
X151115Y89850D01*
X151013Y89998D01*
X150884Y90155D01*
X150736Y90294D01*
X150560Y90423D01*
X150551D01*
X150533Y90432D01*
X150505Y90451D01*
X150468Y90469D01*
X150421Y90488D01*
X150366Y90515D01*
X150237Y90571D01*
X150070Y90626D01*
X149885Y90673D01*
X149682Y90710D01*
X149469Y90719D01*
X149404D01*
X149349Y90710D01*
X149284D01*
X149220Y90700D01*
X149053Y90663D01*
X148859Y90617D01*
X148665Y90543D01*
X148462Y90442D01*
X148360Y90386D01*
X148267Y90312D01*
X148258Y90303D01*
X148249Y90294D01*
X148221Y90266D01*
X148184Y90238D01*
X148147Y90192D01*
X148101Y90136D01*
X148045Y90081D01*
X147999Y90007D01*
X147944Y89924D01*
X147879Y89831D01*
X147823Y89739D01*
X147768Y89628D01*
X147722Y89508D01*
X147676Y89378D01*
X147629Y89240D01*
X147592Y89092D01*
X146742Y89304D01*
Y89314D01*
X146751Y89351D01*
X146770Y89406D01*
X146797Y89480D01*
X146825Y89563D01*
X146862Y89665D01*
X146908Y89776D01*
X146964Y89896D01*
X147093Y90155D01*
X147260Y90414D01*
X147361Y90543D01*
X147463Y90673D01*
X147574Y90784D01*
X147703Y90895D01*
X147713Y90904D01*
X147731Y90922D01*
X147777Y90941D01*
X147823Y90978D01*
X147898Y91024D01*
X147971Y91070D01*
X148073Y91117D01*
X148175Y91163D01*
X148295Y91218D01*
X148425Y91264D01*
X148563Y91311D01*
X148711Y91357D01*
X148868Y91394D01*
X149035Y91412D01*
X149210Y91431D01*
X149395Y91440D01*
X149497D01*
X149571Y91431D01*
D02*
G37*
G36*
X143848Y86327D02*
X143857Y86336D01*
X143903Y86374D01*
X143959Y86429D01*
X144051Y86494D01*
X144153Y86577D01*
X144282Y86669D01*
X144430Y86771D01*
X144597Y86873D01*
X144606D01*
X144615Y86882D01*
X144671Y86919D01*
X144763Y86965D01*
X144874Y87021D01*
X145004Y87085D01*
X145142Y87150D01*
X145281Y87215D01*
X145420Y87270D01*
Y86512D01*
X145410D01*
X145392Y86494D01*
X145355Y86484D01*
X145309Y86457D01*
X145253Y86429D01*
X145189Y86392D01*
X145031Y86299D01*
X144846Y86198D01*
X144662Y86068D01*
X144467Y85920D01*
X144273Y85763D01*
X144264Y85754D01*
X144255Y85745D01*
X144227Y85717D01*
X144190Y85689D01*
X144107Y85597D01*
X143996Y85486D01*
X143885Y85357D01*
X143765Y85209D01*
X143663Y85061D01*
X143570Y84903D01*
X143062D01*
Y91329D01*
X143848D01*
Y86327D01*
D02*
G37*
G36*
X125244Y262956D02*
X125318Y262947D01*
X125410Y262938D01*
X125512Y262919D01*
X125614Y262901D01*
X125854Y262836D01*
X126095Y262744D01*
X126215Y262688D01*
X126335Y262624D01*
X126446Y262540D01*
X126548Y262448D01*
X126557Y262439D01*
X126575Y262429D01*
X126594Y262392D01*
X126631Y262355D01*
X126677Y262309D01*
X126723Y262244D01*
X126770Y262180D01*
X126825Y262097D01*
X126918Y261921D01*
X127010Y261699D01*
X127047Y261588D01*
X127065Y261458D01*
X127084Y261329D01*
X127093Y261190D01*
Y261172D01*
Y261126D01*
X127084Y261052D01*
X127075Y260950D01*
X127056Y260839D01*
X127019Y260710D01*
X126982Y260571D01*
X126927Y260432D01*
X126918Y260414D01*
X126899Y260368D01*
X126862Y260294D01*
X126807Y260192D01*
X126733Y260081D01*
X126640Y259942D01*
X126529Y259804D01*
X126400Y259646D01*
X126381Y259628D01*
X126335Y259572D01*
X126289Y259526D01*
X126243Y259480D01*
X126187Y259424D01*
X126113Y259350D01*
X126039Y259277D01*
X125947Y259193D01*
X125854Y259101D01*
X125743Y258999D01*
X125623Y258897D01*
X125494Y258777D01*
X125346Y258657D01*
X125198Y258528D01*
X125189Y258518D01*
X125170Y258500D01*
X125133Y258472D01*
X125087Y258435D01*
X125031Y258380D01*
X124967Y258324D01*
X124819Y258204D01*
X124662Y258065D01*
X124514Y257927D01*
X124384Y257806D01*
X124329Y257760D01*
X124283Y257714D01*
X124273Y257705D01*
X124246Y257677D01*
X124209Y257640D01*
X124162Y257585D01*
X124116Y257520D01*
X124061Y257455D01*
X123950Y257298D01*
X127102D01*
Y256540D01*
X122859D01*
Y256549D01*
Y256586D01*
Y256642D01*
X122868Y256716D01*
X122877Y256799D01*
X122896Y256891D01*
X122914Y256984D01*
X122951Y257085D01*
Y257095D01*
X122961Y257104D01*
X122979Y257159D01*
X123016Y257243D01*
X123071Y257353D01*
X123145Y257483D01*
X123238Y257631D01*
X123340Y257779D01*
X123469Y257936D01*
Y257945D01*
X123488Y257954D01*
X123534Y258010D01*
X123617Y258093D01*
X123737Y258213D01*
X123876Y258352D01*
X124051Y258518D01*
X124264Y258703D01*
X124495Y258897D01*
X124504Y258907D01*
X124542Y258934D01*
X124597Y258981D01*
X124662Y259036D01*
X124745Y259110D01*
X124847Y259193D01*
X124948Y259286D01*
X125069Y259387D01*
X125300Y259609D01*
X125531Y259831D01*
X125642Y259942D01*
X125743Y260053D01*
X125836Y260155D01*
X125910Y260257D01*
Y260266D01*
X125928Y260275D01*
X125947Y260303D01*
X125965Y260340D01*
X126030Y260441D01*
X126104Y260562D01*
X126169Y260710D01*
X126233Y260867D01*
X126270Y261042D01*
X126289Y261209D01*
Y261218D01*
Y261227D01*
X126280Y261283D01*
X126270Y261375D01*
X126243Y261477D01*
X126206Y261607D01*
X126141Y261736D01*
X126058Y261865D01*
X125947Y261995D01*
X125928Y262013D01*
X125882Y262050D01*
X125817Y262097D01*
X125716Y262161D01*
X125586Y262217D01*
X125438Y262272D01*
X125263Y262309D01*
X125069Y262318D01*
X125013D01*
X124976Y262309D01*
X124865Y262300D01*
X124736Y262272D01*
X124597Y262235D01*
X124440Y262170D01*
X124292Y262087D01*
X124153Y261976D01*
X124135Y261958D01*
X124098Y261912D01*
X124042Y261838D01*
X123987Y261727D01*
X123922Y261597D01*
X123867Y261431D01*
X123829Y261246D01*
X123811Y261033D01*
X123007Y261116D01*
Y261126D01*
X123016Y261153D01*
Y261200D01*
X123025Y261264D01*
X123044Y261338D01*
X123062Y261422D01*
X123090Y261523D01*
X123118Y261625D01*
X123192Y261847D01*
X123302Y262069D01*
X123367Y262180D01*
X123450Y262291D01*
X123534Y262392D01*
X123626Y262485D01*
X123635Y262494D01*
X123654Y262503D01*
X123682Y262531D01*
X123728Y262559D01*
X123783Y262596D01*
X123848Y262633D01*
X123922Y262679D01*
X124015Y262725D01*
X124116Y262771D01*
X124227Y262818D01*
X124347Y262855D01*
X124477Y262892D01*
X124615Y262919D01*
X124763Y262947D01*
X124921Y262956D01*
X125087Y262966D01*
X125179D01*
X125244Y262956D01*
D02*
G37*
G36*
X119466Y262929D02*
X119650Y262919D01*
X119835Y262901D01*
X120020Y262873D01*
X120177Y262845D01*
X120187D01*
X120205Y262836D01*
X120233D01*
X120270Y262818D01*
X120372Y262790D01*
X120501Y262744D01*
X120649Y262679D01*
X120806Y262596D01*
X120963Y262503D01*
X121111Y262383D01*
X121121Y262374D01*
X121130Y262365D01*
X121158Y262337D01*
X121195Y262309D01*
X121287Y262217D01*
X121398Y262087D01*
X121518Y261930D01*
X121648Y261745D01*
X121768Y261532D01*
X121869Y261292D01*
Y261283D01*
X121879Y261264D01*
X121897Y261227D01*
X121906Y261172D01*
X121934Y261107D01*
X121953Y261033D01*
X121971Y260950D01*
X121999Y260848D01*
X122027Y260747D01*
X122045Y260626D01*
X122091Y260368D01*
X122119Y260081D01*
X122128Y259767D01*
Y259757D01*
Y259739D01*
Y259693D01*
Y259646D01*
X122119Y259582D01*
Y259508D01*
X122110Y259332D01*
X122082Y259129D01*
X122054Y258916D01*
X122008Y258694D01*
X121953Y258472D01*
Y258463D01*
X121943Y258444D01*
X121934Y258417D01*
X121925Y258380D01*
X121888Y258278D01*
X121833Y258149D01*
X121777Y258001D01*
X121703Y257853D01*
X121611Y257696D01*
X121518Y257548D01*
X121509Y257529D01*
X121472Y257483D01*
X121416Y257418D01*
X121342Y257335D01*
X121259Y257243D01*
X121158Y257150D01*
X121056Y257048D01*
X120936Y256965D01*
X120917Y256956D01*
X120880Y256928D01*
X120815Y256891D01*
X120723Y256845D01*
X120612Y256789D01*
X120483Y256743D01*
X120335Y256688D01*
X120168Y256642D01*
X120150D01*
X120122Y256632D01*
X120094Y256623D01*
X120002Y256614D01*
X119872Y256595D01*
X119725Y256577D01*
X119549Y256558D01*
X119355Y256549D01*
X119142Y256540D01*
X116840D01*
Y262938D01*
X119299D01*
X119466Y262929D01*
D02*
G37*
G36*
X125928Y196850D02*
X125142D01*
Y201852D01*
X125133Y201842D01*
X125087Y201805D01*
X125031Y201750D01*
X124939Y201685D01*
X124837Y201602D01*
X124708Y201510D01*
X124560Y201408D01*
X124394Y201306D01*
X124384D01*
X124375Y201297D01*
X124320Y201260D01*
X124227Y201214D01*
X124116Y201158D01*
X123987Y201094D01*
X123848Y201029D01*
X123709Y200964D01*
X123571Y200909D01*
Y201667D01*
X123580D01*
X123598Y201685D01*
X123635Y201695D01*
X123682Y201722D01*
X123737Y201750D01*
X123802Y201787D01*
X123959Y201880D01*
X124144Y201981D01*
X124329Y202111D01*
X124523Y202258D01*
X124717Y202416D01*
X124726Y202425D01*
X124736Y202434D01*
X124763Y202462D01*
X124800Y202490D01*
X124883Y202582D01*
X124994Y202693D01*
X125105Y202822D01*
X125226Y202971D01*
X125327Y203118D01*
X125420Y203276D01*
X125928D01*
Y196850D01*
D02*
G37*
G36*
X119466Y203239D02*
X119650Y203229D01*
X119835Y203211D01*
X120020Y203183D01*
X120177Y203155D01*
X120187D01*
X120205Y203146D01*
X120233D01*
X120270Y203128D01*
X120372Y203100D01*
X120501Y203054D01*
X120649Y202989D01*
X120806Y202906D01*
X120963Y202813D01*
X121111Y202693D01*
X121121Y202684D01*
X121130Y202675D01*
X121158Y202647D01*
X121195Y202619D01*
X121287Y202527D01*
X121398Y202397D01*
X121518Y202240D01*
X121648Y202055D01*
X121768Y201842D01*
X121869Y201602D01*
Y201593D01*
X121879Y201574D01*
X121897Y201537D01*
X121906Y201482D01*
X121934Y201417D01*
X121953Y201343D01*
X121971Y201260D01*
X121999Y201158D01*
X122027Y201057D01*
X122045Y200936D01*
X122091Y200678D01*
X122119Y200391D01*
X122128Y200077D01*
Y200067D01*
Y200049D01*
Y200003D01*
Y199956D01*
X122119Y199892D01*
Y199818D01*
X122110Y199642D01*
X122082Y199439D01*
X122054Y199226D01*
X122008Y199004D01*
X121953Y198782D01*
Y198773D01*
X121943Y198755D01*
X121934Y198727D01*
X121925Y198690D01*
X121888Y198588D01*
X121833Y198459D01*
X121777Y198311D01*
X121703Y198163D01*
X121611Y198006D01*
X121518Y197858D01*
X121509Y197839D01*
X121472Y197793D01*
X121416Y197728D01*
X121342Y197645D01*
X121259Y197553D01*
X121158Y197460D01*
X121056Y197358D01*
X120936Y197275D01*
X120917Y197266D01*
X120880Y197238D01*
X120815Y197201D01*
X120723Y197155D01*
X120612Y197099D01*
X120483Y197053D01*
X120335Y196998D01*
X120168Y196952D01*
X120150D01*
X120122Y196942D01*
X120094Y196933D01*
X120002Y196924D01*
X119872Y196905D01*
X119725Y196887D01*
X119549Y196868D01*
X119355Y196859D01*
X119142Y196850D01*
X116840D01*
Y203248D01*
X119299D01*
X119466Y203239D01*
D02*
G37*
G36*
X22749Y279808D02*
X17747D01*
X17757Y279799D01*
X17794Y279753D01*
X17849Y279697D01*
X17914Y279605D01*
X17997Y279503D01*
X18089Y279374D01*
X18191Y279226D01*
X18293Y279060D01*
Y279050D01*
X18302Y279041D01*
X18339Y278986D01*
X18385Y278893D01*
X18441Y278782D01*
X18505Y278653D01*
X18570Y278514D01*
X18635Y278375D01*
X18690Y278237D01*
X17932D01*
Y278246D01*
X17914Y278264D01*
X17904Y278301D01*
X17877Y278348D01*
X17849Y278403D01*
X17812Y278468D01*
X17720Y278625D01*
X17618Y278810D01*
X17488Y278995D01*
X17341Y279189D01*
X17183Y279383D01*
X17174Y279392D01*
X17165Y279402D01*
X17137Y279429D01*
X17109Y279466D01*
X17017Y279550D01*
X16906Y279660D01*
X16776Y279771D01*
X16629Y279892D01*
X16481Y279993D01*
X16323Y280086D01*
Y280594D01*
X22749D01*
Y279808D01*
D02*
G37*
G36*
X20919Y276563D02*
X20993D01*
X21168Y276545D01*
X21372Y276526D01*
X21584Y276489D01*
X21778Y276434D01*
X21963Y276369D01*
X21972D01*
X21982Y276360D01*
X22037Y276332D01*
X22111Y276286D01*
X22213Y276221D01*
X22315Y276129D01*
X22425Y276027D01*
X22536Y275898D01*
X22629Y275750D01*
X22638Y275731D01*
X22666Y275676D01*
X22703Y275592D01*
X22740Y275472D01*
X22786Y275324D01*
X22823Y275158D01*
X22851Y274973D01*
X22860Y274770D01*
Y274686D01*
X22851Y274631D01*
X22842Y274557D01*
X22832Y274483D01*
X22795Y274289D01*
X22740Y274085D01*
X22657Y273873D01*
X22601Y273762D01*
X22536Y273660D01*
X22462Y273568D01*
X22379Y273475D01*
X22370Y273466D01*
X22361Y273457D01*
X22324Y273438D01*
X22287Y273410D01*
X22241Y273374D01*
X22176Y273337D01*
X22102Y273300D01*
X22019Y273253D01*
X21926Y273216D01*
X21815Y273179D01*
X21704Y273142D01*
X21575Y273105D01*
X21436Y273087D01*
X21279Y273059D01*
X21122Y273050D01*
X20946D01*
X20835Y273817D01*
X20845D01*
X20863D01*
X20900D01*
X20956Y273827D01*
X21011Y273836D01*
X21076D01*
X21233Y273864D01*
X21399Y273891D01*
X21566Y273947D01*
X21714Y274002D01*
X21778Y274039D01*
X21834Y274085D01*
X21843Y274095D01*
X21871Y274132D01*
X21917Y274187D01*
X21963Y274261D01*
X22019Y274363D01*
X22056Y274474D01*
X22093Y274612D01*
X22102Y274760D01*
Y274816D01*
X22093Y274871D01*
X22083Y274954D01*
X22065Y275038D01*
X22046Y275130D01*
X22009Y275223D01*
X21963Y275315D01*
X21954Y275324D01*
X21936Y275352D01*
X21899Y275389D01*
X21862Y275445D01*
X21797Y275491D01*
X21732Y275546D01*
X21658Y275592D01*
X21566Y275629D01*
X21556D01*
X21519Y275648D01*
X21455Y275657D01*
X21372Y275676D01*
X21261Y275694D01*
X21122Y275703D01*
X20956Y275722D01*
X20761D01*
X16351D01*
Y276572D01*
X20715D01*
X20724D01*
X20752D01*
X20789D01*
X20845D01*
X20919Y276563D01*
D02*
G37*
G36*
X126220Y384526D02*
X127090D01*
Y383805D01*
X126220D01*
Y382270D01*
X125435D01*
Y383805D01*
X122652D01*
Y384526D01*
X125582Y388668D01*
X126220D01*
Y384526D01*
D02*
G37*
G36*
X119416Y388659D02*
X119600Y388649D01*
X119785Y388631D01*
X119970Y388603D01*
X120127Y388575D01*
X120137D01*
X120155Y388566D01*
X120183D01*
X120220Y388548D01*
X120322Y388520D01*
X120451Y388474D01*
X120599Y388409D01*
X120756Y388326D01*
X120913Y388233D01*
X121061Y388113D01*
X121071Y388104D01*
X121080Y388095D01*
X121108Y388067D01*
X121145Y388039D01*
X121237Y387947D01*
X121348Y387817D01*
X121468Y387660D01*
X121598Y387475D01*
X121718Y387262D01*
X121819Y387022D01*
Y387013D01*
X121829Y386994D01*
X121847Y386957D01*
X121856Y386902D01*
X121884Y386837D01*
X121903Y386763D01*
X121921Y386680D01*
X121949Y386578D01*
X121977Y386477D01*
X121995Y386356D01*
X122041Y386098D01*
X122069Y385811D01*
X122078Y385497D01*
Y385487D01*
Y385469D01*
Y385423D01*
Y385376D01*
X122069Y385312D01*
Y385238D01*
X122060Y385062D01*
X122032Y384859D01*
X122004Y384646D01*
X121958Y384424D01*
X121903Y384202D01*
Y384193D01*
X121893Y384174D01*
X121884Y384147D01*
X121875Y384110D01*
X121838Y384008D01*
X121783Y383879D01*
X121727Y383731D01*
X121653Y383583D01*
X121561Y383426D01*
X121468Y383278D01*
X121459Y383259D01*
X121422Y383213D01*
X121366Y383148D01*
X121292Y383065D01*
X121209Y382972D01*
X121108Y382880D01*
X121006Y382778D01*
X120886Y382695D01*
X120867Y382686D01*
X120830Y382658D01*
X120765Y382621D01*
X120673Y382575D01*
X120562Y382519D01*
X120433Y382473D01*
X120285Y382418D01*
X120118Y382372D01*
X120100D01*
X120072Y382362D01*
X120044Y382353D01*
X119952Y382344D01*
X119822Y382325D01*
X119675Y382307D01*
X119499Y382288D01*
X119305Y382279D01*
X119092Y382270D01*
X116790D01*
Y388668D01*
X119249D01*
X119416Y388659D01*
D02*
G37*
G36*
X126440Y327837D02*
X126560Y327819D01*
X126708Y327791D01*
X126875Y327745D01*
X127041Y327689D01*
X127207Y327615D01*
X127217D01*
X127226Y327606D01*
X127282Y327578D01*
X127365Y327523D01*
X127457Y327458D01*
X127568Y327366D01*
X127679Y327264D01*
X127790Y327144D01*
X127882Y327005D01*
X127892Y326987D01*
X127920Y326940D01*
X127956Y326857D01*
X128003Y326755D01*
X128049Y326635D01*
X128086Y326497D01*
X128114Y326339D01*
X128123Y326182D01*
Y326164D01*
Y326108D01*
X128114Y326034D01*
X128095Y325933D01*
X128067Y325812D01*
X128021Y325683D01*
X127966Y325554D01*
X127892Y325424D01*
X127882Y325406D01*
X127855Y325369D01*
X127799Y325304D01*
X127725Y325230D01*
X127633Y325147D01*
X127522Y325054D01*
X127393Y324971D01*
X127235Y324888D01*
X127245D01*
X127263Y324879D01*
X127291Y324869D01*
X127328Y324860D01*
X127429Y324823D01*
X127559Y324768D01*
X127707Y324694D01*
X127855Y324601D01*
X127993Y324481D01*
X128123Y324342D01*
X128132Y324324D01*
X128169Y324268D01*
X128225Y324176D01*
X128280Y324056D01*
X128336Y323908D01*
X128391Y323732D01*
X128428Y323529D01*
X128437Y323307D01*
Y323298D01*
Y323270D01*
Y323224D01*
X128428Y323168D01*
X128419Y323094D01*
X128400Y323011D01*
X128382Y322919D01*
X128363Y322817D01*
X128289Y322595D01*
X128234Y322475D01*
X128178Y322364D01*
X128104Y322244D01*
X128021Y322123D01*
X127929Y322003D01*
X127818Y321892D01*
X127809Y321883D01*
X127790Y321865D01*
X127753Y321837D01*
X127707Y321800D01*
X127651Y321754D01*
X127577Y321707D01*
X127494Y321652D01*
X127393Y321606D01*
X127291Y321550D01*
X127171Y321495D01*
X127050Y321449D01*
X126912Y321402D01*
X126764Y321365D01*
X126607Y321338D01*
X126449Y321319D01*
X126274Y321310D01*
X126191D01*
X126135Y321319D01*
X126061Y321328D01*
X125978Y321338D01*
X125885Y321356D01*
X125784Y321375D01*
X125562Y321430D01*
X125331Y321522D01*
X125211Y321578D01*
X125099Y321643D01*
X124989Y321726D01*
X124878Y321809D01*
X124868Y321818D01*
X124850Y321837D01*
X124822Y321865D01*
X124794Y321902D01*
X124748Y321948D01*
X124702Y322012D01*
X124647Y322077D01*
X124591Y322160D01*
X124536Y322253D01*
X124480Y322345D01*
X124378Y322567D01*
X124295Y322826D01*
X124267Y322965D01*
X124249Y323113D01*
X125035Y323214D01*
Y323205D01*
X125044Y323187D01*
X125053Y323150D01*
X125063Y323103D01*
X125072Y323048D01*
X125090Y322983D01*
X125136Y322845D01*
X125201Y322678D01*
X125285Y322521D01*
X125377Y322373D01*
X125488Y322244D01*
X125506Y322234D01*
X125543Y322197D01*
X125617Y322151D01*
X125710Y322105D01*
X125821Y322049D01*
X125959Y322003D01*
X126117Y321966D01*
X126283Y321957D01*
X126339D01*
X126375Y321966D01*
X126477Y321976D01*
X126607Y322003D01*
X126755Y322049D01*
X126912Y322114D01*
X127069Y322207D01*
X127217Y322336D01*
X127235Y322355D01*
X127282Y322410D01*
X127337Y322493D01*
X127411Y322604D01*
X127485Y322743D01*
X127540Y322900D01*
X127587Y323085D01*
X127605Y323288D01*
Y323298D01*
Y323316D01*
Y323344D01*
X127596Y323381D01*
X127587Y323483D01*
X127559Y323603D01*
X127522Y323751D01*
X127457Y323899D01*
X127365Y324047D01*
X127245Y324185D01*
X127226Y324204D01*
X127180Y324241D01*
X127106Y324296D01*
X127004Y324361D01*
X126875Y324426D01*
X126718Y324481D01*
X126542Y324518D01*
X126348Y324537D01*
X126264D01*
X126200Y324527D01*
X126117Y324518D01*
X126024Y324500D01*
X125913Y324481D01*
X125793Y324453D01*
X125885Y325147D01*
X125932D01*
X125969Y325138D01*
X126089D01*
X126191Y325156D01*
X126311Y325174D01*
X126449Y325202D01*
X126607Y325248D01*
X126755Y325313D01*
X126912Y325396D01*
X126921D01*
X126930Y325406D01*
X126976Y325443D01*
X127041Y325507D01*
X127115Y325591D01*
X127189Y325711D01*
X127254Y325849D01*
X127300Y326007D01*
X127318Y326099D01*
Y326201D01*
Y326210D01*
Y326219D01*
Y326275D01*
X127300Y326349D01*
X127282Y326450D01*
X127245Y326561D01*
X127198Y326682D01*
X127124Y326802D01*
X127023Y326913D01*
X127013Y326922D01*
X126967Y326959D01*
X126902Y327005D01*
X126819Y327061D01*
X126708Y327107D01*
X126579Y327153D01*
X126431Y327190D01*
X126264Y327199D01*
X126191D01*
X126107Y327181D01*
X125996Y327162D01*
X125876Y327125D01*
X125756Y327079D01*
X125626Y327005D01*
X125506Y326913D01*
X125497Y326903D01*
X125460Y326857D01*
X125405Y326792D01*
X125340Y326700D01*
X125275Y326580D01*
X125211Y326432D01*
X125155Y326256D01*
X125118Y326053D01*
X124332Y326191D01*
Y326201D01*
X124341Y326228D01*
X124351Y326265D01*
X124360Y326321D01*
X124378Y326386D01*
X124406Y326460D01*
X124462Y326635D01*
X124554Y326839D01*
X124665Y327042D01*
X124804Y327236D01*
X124979Y327412D01*
X124989Y327421D01*
X125007Y327430D01*
X125035Y327449D01*
X125072Y327477D01*
X125118Y327514D01*
X125183Y327551D01*
X125247Y327588D01*
X125331Y327634D01*
X125516Y327708D01*
X125728Y327782D01*
X125978Y327828D01*
X126107Y327846D01*
X126339D01*
X126440Y327837D01*
D02*
G37*
G36*
X120736Y327809D02*
X120920Y327800D01*
X121105Y327782D01*
X121290Y327754D01*
X121447Y327726D01*
X121457D01*
X121475Y327717D01*
X121503D01*
X121540Y327699D01*
X121642Y327671D01*
X121771Y327625D01*
X121919Y327560D01*
X122076Y327477D01*
X122233Y327384D01*
X122381Y327264D01*
X122391Y327255D01*
X122400Y327245D01*
X122428Y327218D01*
X122465Y327190D01*
X122557Y327098D01*
X122668Y326968D01*
X122788Y326811D01*
X122918Y326626D01*
X123038Y326413D01*
X123139Y326173D01*
Y326164D01*
X123149Y326145D01*
X123167Y326108D01*
X123176Y326053D01*
X123204Y325988D01*
X123223Y325914D01*
X123241Y325831D01*
X123269Y325729D01*
X123297Y325628D01*
X123315Y325507D01*
X123361Y325248D01*
X123389Y324962D01*
X123398Y324647D01*
Y324638D01*
Y324620D01*
Y324574D01*
Y324527D01*
X123389Y324463D01*
Y324389D01*
X123380Y324213D01*
X123352Y324010D01*
X123324Y323797D01*
X123278Y323575D01*
X123223Y323353D01*
Y323344D01*
X123213Y323325D01*
X123204Y323298D01*
X123195Y323261D01*
X123158Y323159D01*
X123103Y323030D01*
X123047Y322882D01*
X122973Y322734D01*
X122881Y322576D01*
X122788Y322429D01*
X122779Y322410D01*
X122742Y322364D01*
X122686Y322299D01*
X122612Y322216D01*
X122529Y322123D01*
X122428Y322031D01*
X122326Y321929D01*
X122206Y321846D01*
X122187Y321837D01*
X122150Y321809D01*
X122086Y321772D01*
X121993Y321726D01*
X121882Y321670D01*
X121753Y321624D01*
X121605Y321569D01*
X121438Y321522D01*
X121420D01*
X121392Y321513D01*
X121364Y321504D01*
X121272Y321495D01*
X121142Y321476D01*
X120995Y321458D01*
X120819Y321439D01*
X120625Y321430D01*
X120412Y321421D01*
X118110D01*
Y327819D01*
X120569D01*
X120736Y327809D01*
D02*
G37*
G36*
X488839Y126395D02*
X488830D01*
X488793D01*
X488737D01*
X488663Y126404D01*
X488580Y126413D01*
X488488Y126432D01*
X488395Y126450D01*
X488294Y126487D01*
X488284D01*
X488275Y126496D01*
X488220Y126515D01*
X488136Y126552D01*
X488026Y126607D01*
X487896Y126681D01*
X487748Y126774D01*
X487600Y126875D01*
X487443Y127005D01*
X487434D01*
X487425Y127023D01*
X487369Y127070D01*
X487286Y127153D01*
X487166Y127273D01*
X487027Y127412D01*
X486861Y127587D01*
X486676Y127800D01*
X486482Y128031D01*
X486472Y128041D01*
X486445Y128077D01*
X486398Y128133D01*
X486343Y128198D01*
X486269Y128281D01*
X486186Y128383D01*
X486093Y128484D01*
X485992Y128604D01*
X485770Y128836D01*
X485548Y129067D01*
X485437Y129178D01*
X485326Y129279D01*
X485224Y129372D01*
X485122Y129446D01*
X485113D01*
X485104Y129464D01*
X485076Y129483D01*
X485039Y129501D01*
X484938Y129566D01*
X484817Y129640D01*
X484669Y129705D01*
X484512Y129769D01*
X484337Y129806D01*
X484170Y129825D01*
X484161D01*
X484152D01*
X484096Y129816D01*
X484004Y129806D01*
X483902Y129779D01*
X483773Y129742D01*
X483643Y129677D01*
X483514Y129594D01*
X483384Y129483D01*
X483366Y129464D01*
X483329Y129418D01*
X483283Y129353D01*
X483218Y129252D01*
X483162Y129122D01*
X483107Y128974D01*
X483070Y128799D01*
X483061Y128604D01*
Y128549D01*
X483070Y128512D01*
X483079Y128401D01*
X483107Y128272D01*
X483144Y128133D01*
X483209Y127976D01*
X483292Y127828D01*
X483403Y127689D01*
X483421Y127671D01*
X483467Y127634D01*
X483541Y127578D01*
X483652Y127523D01*
X483782Y127458D01*
X483948Y127402D01*
X484133Y127366D01*
X484346Y127347D01*
X484263Y126543D01*
X484253D01*
X484226Y126552D01*
X484179D01*
X484115Y126561D01*
X484041Y126580D01*
X483957Y126598D01*
X483856Y126626D01*
X483754Y126654D01*
X483532Y126728D01*
X483310Y126839D01*
X483199Y126903D01*
X483088Y126987D01*
X482987Y127070D01*
X482894Y127162D01*
X482885Y127171D01*
X482876Y127190D01*
X482848Y127218D01*
X482820Y127264D01*
X482783Y127319D01*
X482746Y127384D01*
X482700Y127458D01*
X482654Y127550D01*
X482608Y127652D01*
X482561Y127763D01*
X482524Y127883D01*
X482487Y128013D01*
X482460Y128151D01*
X482432Y128299D01*
X482423Y128456D01*
X482413Y128623D01*
Y128715D01*
X482423Y128780D01*
X482432Y128854D01*
X482441Y128947D01*
X482460Y129048D01*
X482478Y129150D01*
X482543Y129390D01*
X482635Y129631D01*
X482691Y129751D01*
X482756Y129871D01*
X482839Y129982D01*
X482931Y130084D01*
X482940Y130093D01*
X482950Y130112D01*
X482987Y130130D01*
X483024Y130167D01*
X483070Y130213D01*
X483135Y130259D01*
X483199Y130306D01*
X483283Y130361D01*
X483458Y130454D01*
X483680Y130546D01*
X483791Y130583D01*
X483921Y130602D01*
X484050Y130620D01*
X484189Y130629D01*
X484207D01*
X484253D01*
X484327Y130620D01*
X484429Y130611D01*
X484540Y130592D01*
X484669Y130555D01*
X484808Y130518D01*
X484947Y130463D01*
X484965Y130454D01*
X485011Y130435D01*
X485085Y130398D01*
X485187Y130343D01*
X485298Y130269D01*
X485437Y130176D01*
X485575Y130065D01*
X485733Y129936D01*
X485751Y129917D01*
X485807Y129871D01*
X485853Y129825D01*
X485899Y129779D01*
X485955Y129723D01*
X486029Y129649D01*
X486102Y129575D01*
X486186Y129483D01*
X486278Y129390D01*
X486380Y129279D01*
X486482Y129159D01*
X486602Y129030D01*
X486722Y128882D01*
X486851Y128734D01*
X486861Y128725D01*
X486879Y128706D01*
X486907Y128669D01*
X486944Y128623D01*
X486999Y128567D01*
X487055Y128503D01*
X487175Y128355D01*
X487314Y128198D01*
X487452Y128050D01*
X487573Y127920D01*
X487619Y127865D01*
X487665Y127819D01*
X487674Y127809D01*
X487702Y127782D01*
X487739Y127745D01*
X487794Y127698D01*
X487859Y127652D01*
X487924Y127597D01*
X488081Y127486D01*
Y130639D01*
X488839D01*
Y126395D01*
D02*
G37*
G36*
X487009Y125433D02*
X487082D01*
X487258Y125415D01*
X487462Y125396D01*
X487674Y125359D01*
X487868Y125304D01*
X488053Y125239D01*
X488063D01*
X488072Y125230D01*
X488127Y125202D01*
X488201Y125156D01*
X488303Y125091D01*
X488405Y124999D01*
X488516Y124897D01*
X488627Y124768D01*
X488719Y124620D01*
X488728Y124601D01*
X488756Y124546D01*
X488793Y124462D01*
X488830Y124342D01*
X488876Y124194D01*
X488913Y124028D01*
X488941Y123843D01*
X488950Y123640D01*
Y123556D01*
X488941Y123501D01*
X488932Y123427D01*
X488922Y123353D01*
X488885Y123159D01*
X488830Y122955D01*
X488747Y122743D01*
X488691Y122632D01*
X488627Y122530D01*
X488553Y122438D01*
X488469Y122345D01*
X488460Y122336D01*
X488451Y122327D01*
X488414Y122308D01*
X488377Y122281D01*
X488331Y122243D01*
X488266Y122206D01*
X488192Y122170D01*
X488109Y122123D01*
X488016Y122086D01*
X487905Y122049D01*
X487794Y122012D01*
X487665Y121975D01*
X487526Y121957D01*
X487369Y121929D01*
X487212Y121920D01*
X487036D01*
X486925Y122687D01*
X486935D01*
X486953D01*
X486990D01*
X487046Y122697D01*
X487101Y122706D01*
X487166D01*
X487323Y122733D01*
X487489Y122761D01*
X487656Y122817D01*
X487804Y122872D01*
X487868Y122909D01*
X487924Y122955D01*
X487933Y122965D01*
X487961Y123002D01*
X488007Y123057D01*
X488053Y123131D01*
X488109Y123233D01*
X488146Y123344D01*
X488183Y123482D01*
X488192Y123630D01*
Y123686D01*
X488183Y123741D01*
X488173Y123825D01*
X488155Y123908D01*
X488136Y124000D01*
X488100Y124093D01*
X488053Y124185D01*
X488044Y124194D01*
X488026Y124222D01*
X487989Y124259D01*
X487952Y124314D01*
X487887Y124361D01*
X487822Y124416D01*
X487748Y124462D01*
X487656Y124499D01*
X487646D01*
X487609Y124518D01*
X487545Y124527D01*
X487462Y124546D01*
X487351Y124564D01*
X487212Y124573D01*
X487046Y124592D01*
X486851D01*
X482441D01*
Y125442D01*
X486805D01*
X486814D01*
X486842D01*
X486879D01*
X486935D01*
X487009Y125433D01*
D02*
G37*
G36*
X489705Y309113D02*
X489695D01*
X489677D01*
X489640D01*
X489585Y309103D01*
X489529Y309094D01*
X489464D01*
X489307Y309067D01*
X489141Y309039D01*
X488974Y308983D01*
X488826Y308928D01*
X488762Y308891D01*
X488706Y308845D01*
X488697Y308835D01*
X488669Y308798D01*
X488623Y308743D01*
X488577Y308669D01*
X488521Y308567D01*
X488484Y308456D01*
X488447Y308318D01*
X488438Y308170D01*
Y308114D01*
X488447Y308059D01*
X488456Y307976D01*
X488475Y307892D01*
X488493Y307800D01*
X488531Y307707D01*
X488577Y307615D01*
X488586Y307606D01*
X488604Y307578D01*
X488641Y307541D01*
X488678Y307486D01*
X488743Y307439D01*
X488808Y307384D01*
X488882Y307337D01*
X488974Y307301D01*
X488983D01*
X489021Y307282D01*
X489085Y307273D01*
X489168Y307254D01*
X489279Y307236D01*
X489418Y307227D01*
X489585Y307208D01*
X489779D01*
X494189D01*
Y306357D01*
X489825D01*
X489816D01*
X489788D01*
X489751D01*
X489695D01*
X489621Y306367D01*
X489548D01*
X489372Y306385D01*
X489168Y306404D01*
X488956Y306441D01*
X488762Y306496D01*
X488577Y306561D01*
X488568D01*
X488558Y306570D01*
X488503Y306598D01*
X488429Y306644D01*
X488327Y306709D01*
X488225Y306801D01*
X488114Y306903D01*
X488004Y307032D01*
X487911Y307180D01*
X487902Y307199D01*
X487874Y307254D01*
X487837Y307337D01*
X487800Y307458D01*
X487754Y307606D01*
X487717Y307772D01*
X487689Y307957D01*
X487680Y308160D01*
Y308244D01*
X487689Y308299D01*
X487698Y308373D01*
X487708Y308447D01*
X487745Y308641D01*
X487800Y308845D01*
X487883Y309057D01*
X487939Y309168D01*
X488004Y309270D01*
X488077Y309362D01*
X488161Y309455D01*
X488170Y309464D01*
X488179Y309473D01*
X488216Y309492D01*
X488253Y309520D01*
X488299Y309557D01*
X488364Y309594D01*
X488438Y309630D01*
X488521Y309677D01*
X488614Y309714D01*
X488725Y309751D01*
X488836Y309788D01*
X488965Y309825D01*
X489104Y309843D01*
X489261Y309871D01*
X489418Y309880D01*
X489594D01*
X489705Y309113D01*
D02*
G37*
G36*
X489585Y304499D02*
X489575D01*
X489557Y304490D01*
X489520Y304481D01*
X489473Y304471D01*
X489418Y304462D01*
X489353Y304444D01*
X489215Y304397D01*
X489048Y304333D01*
X488891Y304249D01*
X488743Y304157D01*
X488614Y304046D01*
X488604Y304028D01*
X488568Y303991D01*
X488521Y303917D01*
X488475Y303824D01*
X488419Y303713D01*
X488373Y303575D01*
X488336Y303417D01*
X488327Y303251D01*
Y303195D01*
X488336Y303158D01*
X488346Y303057D01*
X488373Y302927D01*
X488419Y302780D01*
X488484Y302622D01*
X488577Y302465D01*
X488706Y302317D01*
X488725Y302299D01*
X488780Y302253D01*
X488863Y302197D01*
X488974Y302123D01*
X489113Y302049D01*
X489270Y301994D01*
X489455Y301947D01*
X489658Y301929D01*
X489668D01*
X489686D01*
X489714D01*
X489751Y301938D01*
X489853Y301947D01*
X489973Y301975D01*
X490121Y302012D01*
X490269Y302077D01*
X490417Y302169D01*
X490555Y302289D01*
X490574Y302308D01*
X490611Y302354D01*
X490666Y302428D01*
X490731Y302530D01*
X490796Y302659D01*
X490851Y302816D01*
X490888Y302992D01*
X490907Y303186D01*
Y303270D01*
X490897Y303334D01*
X490888Y303417D01*
X490870Y303510D01*
X490851Y303621D01*
X490823Y303741D01*
X491517Y303648D01*
Y303602D01*
X491508Y303565D01*
Y303445D01*
X491526Y303343D01*
X491544Y303223D01*
X491572Y303085D01*
X491618Y302927D01*
X491683Y302780D01*
X491766Y302622D01*
Y302613D01*
X491776Y302604D01*
X491813Y302558D01*
X491877Y302493D01*
X491961Y302419D01*
X492081Y302345D01*
X492220Y302280D01*
X492377Y302234D01*
X492469Y302215D01*
X492571D01*
X492580D01*
X492589D01*
X492645D01*
X492719Y302234D01*
X492820Y302253D01*
X492931Y302289D01*
X493052Y302336D01*
X493172Y302410D01*
X493283Y302511D01*
X493292Y302521D01*
X493329Y302567D01*
X493375Y302631D01*
X493431Y302715D01*
X493477Y302826D01*
X493523Y302955D01*
X493560Y303103D01*
X493569Y303270D01*
Y303343D01*
X493551Y303427D01*
X493532Y303538D01*
X493495Y303658D01*
X493449Y303778D01*
X493375Y303907D01*
X493283Y304028D01*
X493274Y304037D01*
X493227Y304074D01*
X493162Y304129D01*
X493070Y304194D01*
X492950Y304259D01*
X492802Y304324D01*
X492626Y304379D01*
X492423Y304416D01*
X492561Y305202D01*
X492571D01*
X492598Y305193D01*
X492635Y305183D01*
X492691Y305174D01*
X492756Y305156D01*
X492830Y305128D01*
X493005Y305072D01*
X493209Y304980D01*
X493412Y304869D01*
X493606Y304730D01*
X493782Y304555D01*
X493791Y304545D01*
X493801Y304527D01*
X493819Y304499D01*
X493847Y304462D01*
X493884Y304416D01*
X493921Y304351D01*
X493958Y304286D01*
X494004Y304203D01*
X494078Y304018D01*
X494152Y303806D01*
X494198Y303556D01*
X494216Y303427D01*
Y303195D01*
X494207Y303094D01*
X494189Y302974D01*
X494161Y302826D01*
X494115Y302659D01*
X494059Y302493D01*
X493985Y302326D01*
Y302317D01*
X493976Y302308D01*
X493948Y302253D01*
X493893Y302169D01*
X493828Y302077D01*
X493736Y301966D01*
X493634Y301855D01*
X493514Y301744D01*
X493375Y301651D01*
X493357Y301642D01*
X493310Y301614D01*
X493227Y301577D01*
X493125Y301531D01*
X493005Y301485D01*
X492867Y301448D01*
X492710Y301420D01*
X492552Y301411D01*
X492534D01*
X492478D01*
X492404Y301420D01*
X492303Y301439D01*
X492183Y301467D01*
X492053Y301513D01*
X491924Y301568D01*
X491794Y301642D01*
X491776Y301651D01*
X491739Y301679D01*
X491674Y301735D01*
X491600Y301809D01*
X491517Y301901D01*
X491424Y302012D01*
X491341Y302141D01*
X491258Y302299D01*
Y302289D01*
X491249Y302271D01*
X491239Y302243D01*
X491230Y302206D01*
X491193Y302104D01*
X491138Y301975D01*
X491064Y301827D01*
X490971Y301679D01*
X490851Y301541D01*
X490712Y301411D01*
X490694Y301402D01*
X490639Y301365D01*
X490546Y301309D01*
X490426Y301254D01*
X490278Y301199D01*
X490102Y301143D01*
X489899Y301106D01*
X489677Y301097D01*
X489668D01*
X489640D01*
X489594D01*
X489538Y301106D01*
X489464Y301115D01*
X489381Y301134D01*
X489289Y301152D01*
X489187Y301171D01*
X488965Y301245D01*
X488845Y301300D01*
X488734Y301356D01*
X488614Y301430D01*
X488493Y301513D01*
X488373Y301605D01*
X488262Y301716D01*
X488253Y301726D01*
X488235Y301744D01*
X488207Y301781D01*
X488170Y301827D01*
X488124Y301883D01*
X488077Y301957D01*
X488022Y302040D01*
X487976Y302141D01*
X487920Y302243D01*
X487865Y302363D01*
X487819Y302484D01*
X487772Y302622D01*
X487735Y302770D01*
X487708Y302927D01*
X487689Y303085D01*
X487680Y303260D01*
Y303343D01*
X487689Y303399D01*
X487698Y303473D01*
X487708Y303556D01*
X487726Y303648D01*
X487745Y303750D01*
X487800Y303972D01*
X487892Y304203D01*
X487948Y304324D01*
X488013Y304434D01*
X488096Y304545D01*
X488179Y304656D01*
X488188Y304666D01*
X488207Y304684D01*
X488235Y304712D01*
X488272Y304739D01*
X488318Y304786D01*
X488382Y304832D01*
X488447Y304888D01*
X488531Y304943D01*
X488623Y304998D01*
X488715Y305054D01*
X488937Y305156D01*
X489196Y305239D01*
X489335Y305266D01*
X489483Y305285D01*
X489585Y304499D01*
D02*
G37*
G36*
X503824Y221157D02*
X503889D01*
X503963Y221148D01*
X504139Y221111D01*
X504333Y221065D01*
X504536Y220991D01*
X504740Y220880D01*
X504841Y220815D01*
X504934Y220741D01*
X504943Y220732D01*
X504952Y220723D01*
X504980Y220695D01*
X505008Y220667D01*
X505054Y220621D01*
X505091Y220565D01*
X505193Y220436D01*
X505294Y220270D01*
X505387Y220066D01*
X505470Y219835D01*
X505526Y219576D01*
X504740Y219512D01*
Y219521D01*
X504730Y219530D01*
X504721Y219585D01*
X504693Y219669D01*
X504656Y219770D01*
X504619Y219881D01*
X504564Y219992D01*
X504499Y220094D01*
X504435Y220177D01*
X504416Y220196D01*
X504379Y220233D01*
X504314Y220288D01*
X504222Y220353D01*
X504102Y220408D01*
X503972Y220464D01*
X503815Y220501D01*
X503649Y220519D01*
X503584D01*
X503510Y220510D01*
X503427Y220492D01*
X503316Y220464D01*
X503205Y220427D01*
X503094Y220381D01*
X502983Y220307D01*
X502965Y220297D01*
X502918Y220260D01*
X502854Y220196D01*
X502770Y220103D01*
X502678Y219992D01*
X502576Y219863D01*
X502484Y219697D01*
X502391Y219512D01*
Y219502D01*
X502382Y219484D01*
X502373Y219456D01*
X502354Y219419D01*
X502345Y219364D01*
X502327Y219299D01*
X502308Y219225D01*
X502290Y219132D01*
X502262Y219031D01*
X502243Y218920D01*
X502225Y218800D01*
X502216Y218670D01*
X502197Y218522D01*
X502188Y218374D01*
X502179Y218208D01*
Y218041D01*
X502188Y218051D01*
X502225Y218106D01*
X502290Y218180D01*
X502373Y218273D01*
X502465Y218384D01*
X502585Y218485D01*
X502715Y218587D01*
X502863Y218679D01*
X502872D01*
X502881Y218689D01*
X502937Y218716D01*
X503020Y218744D01*
X503131Y218790D01*
X503260Y218827D01*
X503408Y218855D01*
X503565Y218883D01*
X503732Y218892D01*
X503806D01*
X503861Y218883D01*
X503935Y218874D01*
X504009Y218864D01*
X504102Y218846D01*
X504194Y218818D01*
X504407Y218753D01*
X504518Y218707D01*
X504629Y218643D01*
X504740Y218578D01*
X504860Y218504D01*
X504971Y218411D01*
X505073Y218310D01*
X505082Y218300D01*
X505100Y218282D01*
X505128Y218254D01*
X505156Y218208D01*
X505202Y218143D01*
X505248Y218078D01*
X505294Y217995D01*
X505350Y217903D01*
X505405Y217801D01*
X505452Y217690D01*
X505498Y217561D01*
X505544Y217431D01*
X505572Y217293D01*
X505600Y217135D01*
X505618Y216978D01*
X505627Y216812D01*
Y216803D01*
Y216784D01*
Y216756D01*
Y216710D01*
X505618Y216655D01*
Y216599D01*
X505590Y216451D01*
X505563Y216276D01*
X505516Y216091D01*
X505452Y215887D01*
X505359Y215693D01*
Y215684D01*
X505350Y215675D01*
X505331Y215647D01*
X505313Y215610D01*
X505257Y215518D01*
X505174Y215397D01*
X505073Y215268D01*
X504952Y215138D01*
X504804Y215009D01*
X504647Y214898D01*
X504638D01*
X504629Y214889D01*
X504601Y214870D01*
X504564Y214861D01*
X504472Y214815D01*
X504351Y214769D01*
X504194Y214713D01*
X504019Y214676D01*
X503824Y214639D01*
X503612Y214630D01*
X503565D01*
X503519Y214639D01*
X503445D01*
X503362Y214648D01*
X503270Y214667D01*
X503159Y214695D01*
X503048Y214722D01*
X502918Y214759D01*
X502789Y214806D01*
X502659Y214861D01*
X502521Y214935D01*
X502391Y215018D01*
X502262Y215111D01*
X502132Y215222D01*
X502012Y215351D01*
X502003Y215360D01*
X501984Y215388D01*
X501957Y215425D01*
X501920Y215490D01*
X501864Y215573D01*
X501818Y215665D01*
X501763Y215786D01*
X501707Y215915D01*
X501642Y216072D01*
X501587Y216248D01*
X501541Y216442D01*
X501494Y216655D01*
X501448Y216895D01*
X501421Y217154D01*
X501402Y217431D01*
X501393Y217727D01*
Y217736D01*
Y217746D01*
Y217773D01*
Y217810D01*
X501402Y217903D01*
Y218032D01*
X501411Y218180D01*
X501430Y218356D01*
X501448Y218550D01*
X501476Y218763D01*
X501513Y218975D01*
X501559Y219206D01*
X501615Y219428D01*
X501679Y219650D01*
X501763Y219863D01*
X501855Y220066D01*
X501957Y220260D01*
X502077Y220427D01*
X502086Y220436D01*
X502105Y220455D01*
X502142Y220492D01*
X502188Y220547D01*
X502243Y220602D01*
X502317Y220658D01*
X502410Y220732D01*
X502502Y220797D01*
X502613Y220861D01*
X502733Y220935D01*
X502872Y220991D01*
X503011Y221056D01*
X503168Y221102D01*
X503334Y221139D01*
X503510Y221157D01*
X503695Y221166D01*
X503769D01*
X503824Y221157D01*
D02*
G37*
G36*
X497926Y221129D02*
X498111Y221120D01*
X498295Y221102D01*
X498480Y221074D01*
X498638Y221046D01*
X498647D01*
X498665Y221037D01*
X498693D01*
X498730Y221019D01*
X498832Y220991D01*
X498961Y220945D01*
X499109Y220880D01*
X499266Y220797D01*
X499423Y220704D01*
X499571Y220584D01*
X499581Y220575D01*
X499590Y220565D01*
X499618Y220538D01*
X499655Y220510D01*
X499747Y220418D01*
X499858Y220288D01*
X499978Y220131D01*
X500108Y219946D01*
X500228Y219733D01*
X500330Y219493D01*
Y219484D01*
X500339Y219465D01*
X500357Y219428D01*
X500367Y219373D01*
X500394Y219308D01*
X500413Y219234D01*
X500431Y219151D01*
X500459Y219049D01*
X500487Y218948D01*
X500505Y218827D01*
X500551Y218568D01*
X500579Y218282D01*
X500588Y217967D01*
Y217958D01*
Y217940D01*
Y217894D01*
Y217847D01*
X500579Y217783D01*
Y217709D01*
X500570Y217533D01*
X500542Y217330D01*
X500514Y217117D01*
X500468Y216895D01*
X500413Y216673D01*
Y216664D01*
X500403Y216645D01*
X500394Y216618D01*
X500385Y216581D01*
X500348Y216479D01*
X500293Y216350D01*
X500237Y216202D01*
X500163Y216054D01*
X500071Y215896D01*
X499978Y215749D01*
X499969Y215730D01*
X499932Y215684D01*
X499876Y215619D01*
X499803Y215536D01*
X499719Y215443D01*
X499618Y215351D01*
X499516Y215249D01*
X499396Y215166D01*
X499377Y215157D01*
X499340Y215129D01*
X499276Y215092D01*
X499183Y215046D01*
X499072Y214991D01*
X498943Y214944D01*
X498795Y214889D01*
X498628Y214842D01*
X498610D01*
X498582Y214833D01*
X498554Y214824D01*
X498462Y214815D01*
X498332Y214796D01*
X498185Y214778D01*
X498009Y214759D01*
X497815Y214750D01*
X497602Y214741D01*
X495300D01*
Y221139D01*
X497759D01*
X497926Y221129D01*
D02*
G37*
G36*
X243552Y327651D02*
X243645D01*
X243737Y327642D01*
X243858Y327632D01*
X243978Y327614D01*
X244246Y327568D01*
X244542Y327503D01*
X244838Y327410D01*
X245124Y327281D01*
X245133Y327272D01*
X245161Y327262D01*
X245198Y327244D01*
X245244Y327207D01*
X245309Y327170D01*
X245383Y327124D01*
X245550Y327004D01*
X245734Y326847D01*
X245919Y326662D01*
X246104Y326449D01*
X246261Y326199D01*
X246271Y326190D01*
X246280Y326162D01*
X246298Y326125D01*
X246326Y326079D01*
X246354Y326005D01*
X246382Y325931D01*
X246419Y325839D01*
X246456Y325737D01*
X246493Y325626D01*
X246530Y325506D01*
X246585Y325247D01*
X246631Y324951D01*
X246650Y324646D01*
Y324554D01*
X246640Y324489D01*
X246631Y324406D01*
X246622Y324304D01*
X246613Y324202D01*
X246585Y324082D01*
X246530Y323832D01*
X246446Y323555D01*
X246391Y323416D01*
X246326Y323287D01*
X246243Y323158D01*
X246160Y323028D01*
X246150Y323019D01*
X246141Y323000D01*
X246113Y322963D01*
X246067Y322917D01*
X246021Y322871D01*
X245956Y322806D01*
X245882Y322741D01*
X245808Y322668D01*
X245716Y322593D01*
X245605Y322519D01*
X245494Y322436D01*
X245374Y322362D01*
X245235Y322298D01*
X245096Y322224D01*
X244949Y322168D01*
X244782Y322113D01*
X244588Y322945D01*
X244597D01*
X244616Y322954D01*
X244653Y322973D01*
X244699Y322991D01*
X244754Y323009D01*
X244828Y323037D01*
X244976Y323111D01*
X245143Y323204D01*
X245309Y323315D01*
X245466Y323453D01*
X245605Y323601D01*
X245623Y323620D01*
X245660Y323675D01*
X245707Y323768D01*
X245771Y323888D01*
X245827Y324045D01*
X245882Y324221D01*
X245919Y324433D01*
X245929Y324664D01*
Y324739D01*
X245919Y324785D01*
Y324849D01*
X245910Y324923D01*
X245882Y325099D01*
X245845Y325293D01*
X245781Y325497D01*
X245688Y325709D01*
X245568Y325903D01*
Y325913D01*
X245550Y325922D01*
X245503Y325987D01*
X245429Y326070D01*
X245318Y326171D01*
X245180Y326292D01*
X245023Y326403D01*
X244828Y326504D01*
X244616Y326597D01*
X244606D01*
X244588Y326606D01*
X244560Y326615D01*
X244514Y326625D01*
X244459Y326643D01*
X244394Y326662D01*
X244237Y326689D01*
X244052Y326726D01*
X243848Y326763D01*
X243626Y326782D01*
X243386Y326791D01*
X243377D01*
X243349D01*
X243303D01*
X243247D01*
X243183Y326782D01*
X243099D01*
X243007Y326772D01*
X242905Y326763D01*
X242683Y326735D01*
X242443Y326689D01*
X242203Y326634D01*
X241962Y326560D01*
X241953D01*
X241935Y326551D01*
X241907Y326532D01*
X241861Y326514D01*
X241750Y326458D01*
X241620Y326375D01*
X241472Y326273D01*
X241315Y326144D01*
X241176Y325996D01*
X241047Y325820D01*
Y325811D01*
X241038Y325793D01*
X241019Y325765D01*
X241001Y325728D01*
X240982Y325681D01*
X240954Y325626D01*
X240899Y325497D01*
X240844Y325330D01*
X240797Y325145D01*
X240760Y324942D01*
X240751Y324729D01*
Y324664D01*
X240760Y324609D01*
Y324544D01*
X240770Y324480D01*
X240807Y324313D01*
X240853Y324119D01*
X240927Y323925D01*
X241028Y323722D01*
X241084Y323620D01*
X241158Y323527D01*
X241167Y323518D01*
X241176Y323509D01*
X241204Y323481D01*
X241232Y323444D01*
X241278Y323407D01*
X241334Y323361D01*
X241389Y323305D01*
X241463Y323259D01*
X241546Y323204D01*
X241639Y323139D01*
X241731Y323083D01*
X241842Y323028D01*
X241962Y322982D01*
X242092Y322936D01*
X242230Y322889D01*
X242378Y322852D01*
X242166Y322002D01*
X242156D01*
X242119Y322011D01*
X242064Y322029D01*
X241990Y322057D01*
X241907Y322085D01*
X241805Y322122D01*
X241694Y322168D01*
X241574Y322224D01*
X241315Y322353D01*
X241056Y322519D01*
X240927Y322621D01*
X240797Y322723D01*
X240686Y322834D01*
X240575Y322963D01*
X240566Y322973D01*
X240548Y322991D01*
X240529Y323037D01*
X240492Y323083D01*
X240446Y323158D01*
X240400Y323231D01*
X240354Y323333D01*
X240307Y323435D01*
X240252Y323555D01*
X240205Y323685D01*
X240159Y323823D01*
X240113Y323971D01*
X240076Y324128D01*
X240058Y324295D01*
X240039Y324470D01*
X240030Y324655D01*
Y324757D01*
X240039Y324831D01*
Y324914D01*
X240048Y325016D01*
X240067Y325127D01*
X240085Y325256D01*
X240132Y325524D01*
X240205Y325802D01*
X240307Y326079D01*
X240372Y326208D01*
X240446Y326338D01*
X240455Y326347D01*
X240464Y326366D01*
X240492Y326403D01*
X240529Y326440D01*
X240566Y326495D01*
X240622Y326560D01*
X240686Y326634D01*
X240760Y326708D01*
X240844Y326782D01*
X240927Y326865D01*
X241139Y327031D01*
X241389Y327189D01*
X241666Y327327D01*
X241676D01*
X241703Y327346D01*
X241750Y327355D01*
X241805Y327383D01*
X241879Y327401D01*
X241971Y327429D01*
X242073Y327466D01*
X242184Y327494D01*
X242304Y327521D01*
X242443Y327558D01*
X242730Y327605D01*
X243053Y327642D01*
X243386Y327660D01*
X243395D01*
X243432D01*
X243488D01*
X243552Y327651D01*
D02*
G37*
G36*
X240317Y321382D02*
X240400Y321373D01*
X240492Y321355D01*
X240585Y321336D01*
X240686Y321299D01*
X240696D01*
X240705Y321290D01*
X240760Y321271D01*
X240844Y321234D01*
X240954Y321179D01*
X241084Y321105D01*
X241232Y321012D01*
X241380Y320911D01*
X241537Y320781D01*
X241546D01*
X241555Y320763D01*
X241611Y320717D01*
X241694Y320633D01*
X241814Y320513D01*
X241953Y320374D01*
X242119Y320199D01*
X242304Y319986D01*
X242498Y319755D01*
X242508Y319746D01*
X242535Y319709D01*
X242582Y319653D01*
X242637Y319589D01*
X242711Y319506D01*
X242794Y319404D01*
X242887Y319302D01*
X242988Y319182D01*
X243210Y318951D01*
X243432Y318720D01*
X243543Y318609D01*
X243654Y318507D01*
X243756Y318414D01*
X243858Y318340D01*
X243867D01*
X243876Y318322D01*
X243904Y318304D01*
X243941Y318285D01*
X244042Y318220D01*
X244163Y318146D01*
X244311Y318082D01*
X244468Y318017D01*
X244643Y317980D01*
X244810Y317961D01*
X244819D01*
X244828D01*
X244884Y317971D01*
X244976Y317980D01*
X245078Y318008D01*
X245207Y318045D01*
X245337Y318109D01*
X245466Y318193D01*
X245596Y318304D01*
X245614Y318322D01*
X245651Y318368D01*
X245697Y318433D01*
X245762Y318535D01*
X245818Y318664D01*
X245873Y318812D01*
X245910Y318988D01*
X245919Y319182D01*
Y319237D01*
X245910Y319274D01*
X245901Y319385D01*
X245873Y319515D01*
X245836Y319653D01*
X245771Y319811D01*
X245688Y319958D01*
X245577Y320097D01*
X245559Y320116D01*
X245513Y320153D01*
X245438Y320208D01*
X245328Y320264D01*
X245198Y320328D01*
X245032Y320384D01*
X244847Y320421D01*
X244634Y320439D01*
X244717Y321244D01*
X244727D01*
X244754Y321234D01*
X244801D01*
X244865Y321225D01*
X244939Y321207D01*
X245023Y321188D01*
X245124Y321160D01*
X245226Y321133D01*
X245448Y321059D01*
X245670Y320948D01*
X245781Y320883D01*
X245892Y320800D01*
X245993Y320717D01*
X246086Y320624D01*
X246095Y320615D01*
X246104Y320596D01*
X246132Y320569D01*
X246160Y320522D01*
X246197Y320467D01*
X246234Y320402D01*
X246280Y320328D01*
X246326Y320236D01*
X246372Y320134D01*
X246419Y320023D01*
X246456Y319903D01*
X246493Y319774D01*
X246520Y319635D01*
X246548Y319487D01*
X246557Y319330D01*
X246567Y319163D01*
Y319071D01*
X246557Y319006D01*
X246548Y318932D01*
X246539Y318840D01*
X246520Y318738D01*
X246502Y318636D01*
X246437Y318396D01*
X246345Y318156D01*
X246289Y318035D01*
X246224Y317915D01*
X246141Y317804D01*
X246049Y317703D01*
X246040Y317693D01*
X246030Y317675D01*
X245993Y317656D01*
X245956Y317619D01*
X245910Y317573D01*
X245845Y317527D01*
X245781Y317481D01*
X245697Y317425D01*
X245522Y317333D01*
X245300Y317240D01*
X245189Y317203D01*
X245060Y317185D01*
X244930Y317166D01*
X244791Y317157D01*
X244773D01*
X244727D01*
X244653Y317166D01*
X244551Y317176D01*
X244440Y317194D01*
X244311Y317231D01*
X244172Y317268D01*
X244033Y317323D01*
X244015Y317333D01*
X243969Y317351D01*
X243895Y317388D01*
X243793Y317444D01*
X243682Y317518D01*
X243543Y317610D01*
X243405Y317721D01*
X243247Y317850D01*
X243229Y317869D01*
X243173Y317915D01*
X243127Y317961D01*
X243081Y318008D01*
X243025Y318063D01*
X242952Y318137D01*
X242878Y318211D01*
X242794Y318304D01*
X242702Y318396D01*
X242600Y318507D01*
X242498Y318627D01*
X242378Y318757D01*
X242258Y318904D01*
X242129Y319052D01*
X242119Y319062D01*
X242101Y319080D01*
X242073Y319117D01*
X242036Y319163D01*
X241981Y319219D01*
X241925Y319284D01*
X241805Y319431D01*
X241666Y319589D01*
X241528Y319737D01*
X241408Y319866D01*
X241361Y319921D01*
X241315Y319968D01*
X241306Y319977D01*
X241278Y320005D01*
X241241Y320042D01*
X241186Y320088D01*
X241121Y320134D01*
X241056Y320190D01*
X240899Y320301D01*
Y317148D01*
X240141D01*
Y321392D01*
X240150D01*
X240187D01*
X240243D01*
X240317Y321382D01*
D02*
G37*
G36*
X510448Y414617D02*
X507887D01*
X507545Y412888D01*
X507555Y412897D01*
X507573Y412906D01*
X507601Y412925D01*
X507647Y412952D01*
X507702Y412980D01*
X507767Y413017D01*
X507915Y413091D01*
X508100Y413165D01*
X508303Y413230D01*
X508525Y413276D01*
X508636Y413295D01*
X508840D01*
X508895Y413285D01*
X508969Y413276D01*
X509052Y413267D01*
X509145Y413248D01*
X509246Y413221D01*
X509468Y413156D01*
X509589Y413110D01*
X509709Y413045D01*
X509829Y412980D01*
X509949Y412906D01*
X510060Y412814D01*
X510171Y412712D01*
X510180Y412703D01*
X510199Y412684D01*
X510226Y412657D01*
X510263Y412610D01*
X510310Y412546D01*
X510356Y412481D01*
X510411Y412398D01*
X510467Y412305D01*
X510513Y412204D01*
X510569Y412093D01*
X510615Y411963D01*
X510661Y411834D01*
X510698Y411695D01*
X510726Y411538D01*
X510744Y411381D01*
X510753Y411214D01*
Y411205D01*
Y411177D01*
Y411131D01*
X510744Y411066D01*
X510735Y410992D01*
X510726Y410909D01*
X510707Y410807D01*
X510689Y410706D01*
X510633Y410465D01*
X510541Y410216D01*
X510485Y410086D01*
X510411Y409966D01*
X510337Y409837D01*
X510245Y409716D01*
X510236Y409707D01*
X510217Y409679D01*
X510180Y409642D01*
X510134Y409596D01*
X510069Y409541D01*
X509995Y409467D01*
X509903Y409402D01*
X509801Y409328D01*
X509690Y409254D01*
X509561Y409189D01*
X509422Y409125D01*
X509274Y409060D01*
X509117Y409014D01*
X508941Y408977D01*
X508756Y408949D01*
X508562Y408940D01*
X508479D01*
X508414Y408949D01*
X508340Y408958D01*
X508257Y408968D01*
X508155Y408977D01*
X508054Y409005D01*
X507823Y409060D01*
X507591Y409143D01*
X507471Y409199D01*
X507351Y409263D01*
X507240Y409337D01*
X507129Y409421D01*
X507120Y409430D01*
X507101Y409439D01*
X507083Y409476D01*
X507046Y409513D01*
X507000Y409559D01*
X506954Y409615D01*
X506898Y409689D01*
X506852Y409772D01*
X506796Y409855D01*
X506741Y409957D01*
X506639Y410179D01*
X506556Y410438D01*
X506528Y410576D01*
X506510Y410724D01*
X507333Y410789D01*
Y410780D01*
Y410761D01*
X507342Y410733D01*
X507351Y410687D01*
X507379Y410586D01*
X507416Y410447D01*
X507471Y410308D01*
X507545Y410151D01*
X507638Y410012D01*
X507749Y409883D01*
X507767Y409874D01*
X507804Y409837D01*
X507878Y409790D01*
X507980Y409735D01*
X508091Y409679D01*
X508229Y409633D01*
X508387Y409596D01*
X508562Y409587D01*
X508618D01*
X508655Y409596D01*
X508766Y409606D01*
X508895Y409642D01*
X509052Y409689D01*
X509209Y409763D01*
X509376Y409874D01*
X509450Y409938D01*
X509524Y410012D01*
X509533Y410022D01*
X509542Y410031D01*
X509561Y410059D01*
X509589Y410086D01*
X509653Y410188D01*
X509727Y410317D01*
X509792Y410475D01*
X509857Y410669D01*
X509903Y410900D01*
X509921Y411020D01*
Y411150D01*
Y411159D01*
Y411177D01*
Y411214D01*
X509912Y411260D01*
Y411316D01*
X509903Y411381D01*
X509875Y411529D01*
X509829Y411704D01*
X509764Y411880D01*
X509672Y412046D01*
X509542Y412204D01*
Y412213D01*
X509524Y412222D01*
X509478Y412268D01*
X509394Y412333D01*
X509283Y412407D01*
X509136Y412472D01*
X508969Y412536D01*
X508775Y412583D01*
X508664Y412601D01*
X508488D01*
X508414Y412592D01*
X508322Y412583D01*
X508211Y412555D01*
X508100Y412527D01*
X507980Y412481D01*
X507860Y412425D01*
X507850Y412416D01*
X507813Y412398D01*
X507758Y412351D01*
X507684Y412305D01*
X507610Y412241D01*
X507536Y412157D01*
X507453Y412074D01*
X507388Y411972D01*
X506648Y412074D01*
X507268Y415366D01*
X510448D01*
Y414617D01*
D02*
G37*
G36*
X503006Y415439D02*
X503190Y415430D01*
X503375Y415412D01*
X503560Y415384D01*
X503717Y415356D01*
X503727D01*
X503745Y415347D01*
X503773D01*
X503810Y415329D01*
X503912Y415301D01*
X504041Y415255D01*
X504189Y415190D01*
X504346Y415107D01*
X504503Y415014D01*
X504651Y414894D01*
X504661Y414885D01*
X504670Y414875D01*
X504698Y414848D01*
X504735Y414820D01*
X504827Y414728D01*
X504938Y414598D01*
X505058Y414441D01*
X505188Y414256D01*
X505308Y414043D01*
X505410Y413803D01*
Y413794D01*
X505419Y413775D01*
X505437Y413738D01*
X505447Y413683D01*
X505474Y413618D01*
X505493Y413544D01*
X505511Y413461D01*
X505539Y413359D01*
X505567Y413258D01*
X505585Y413137D01*
X505631Y412878D01*
X505659Y412592D01*
X505668Y412277D01*
Y412268D01*
Y412250D01*
Y412204D01*
Y412157D01*
X505659Y412093D01*
Y412019D01*
X505650Y411843D01*
X505622Y411640D01*
X505594Y411427D01*
X505548Y411205D01*
X505493Y410983D01*
Y410974D01*
X505483Y410955D01*
X505474Y410928D01*
X505465Y410891D01*
X505428Y410789D01*
X505373Y410660D01*
X505317Y410512D01*
X505243Y410364D01*
X505151Y410206D01*
X505058Y410059D01*
X505049Y410040D01*
X505012Y409994D01*
X504956Y409929D01*
X504883Y409846D01*
X504799Y409753D01*
X504698Y409661D01*
X504596Y409559D01*
X504476Y409476D01*
X504457Y409467D01*
X504420Y409439D01*
X504356Y409402D01*
X504263Y409356D01*
X504152Y409300D01*
X504023Y409254D01*
X503875Y409199D01*
X503708Y409152D01*
X503690D01*
X503662Y409143D01*
X503634Y409134D01*
X503542Y409125D01*
X503412Y409106D01*
X503265Y409088D01*
X503089Y409069D01*
X502895Y409060D01*
X502682Y409051D01*
X500380D01*
Y415449D01*
X502839D01*
X503006Y415439D01*
D02*
G37*
G36*
X360025Y303521D02*
X360099Y303512D01*
X360182Y303502D01*
X360275Y303484D01*
X360377Y303465D01*
X360598Y303410D01*
X360830Y303317D01*
X360950Y303262D01*
X361061Y303197D01*
X361172Y303114D01*
X361283Y303031D01*
X361292Y303022D01*
X361310Y303003D01*
X361338Y302975D01*
X361366Y302938D01*
X361412Y302892D01*
X361458Y302827D01*
X361514Y302763D01*
X361569Y302680D01*
X361625Y302587D01*
X361680Y302495D01*
X361782Y302273D01*
X361865Y302014D01*
X361893Y301875D01*
X361911Y301727D01*
X361125Y301625D01*
Y301635D01*
X361116Y301653D01*
X361107Y301690D01*
X361098Y301736D01*
X361088Y301792D01*
X361070Y301857D01*
X361024Y301995D01*
X360959Y302162D01*
X360876Y302319D01*
X360783Y302467D01*
X360672Y302596D01*
X360654Y302605D01*
X360617Y302642D01*
X360543Y302689D01*
X360451Y302735D01*
X360340Y302790D01*
X360201Y302837D01*
X360044Y302874D01*
X359877Y302883D01*
X359822D01*
X359785Y302874D01*
X359683Y302864D01*
X359554Y302837D01*
X359406Y302790D01*
X359249Y302726D01*
X359091Y302633D01*
X358943Y302504D01*
X358925Y302485D01*
X358879Y302430D01*
X358823Y302347D01*
X358749Y302236D01*
X358675Y302097D01*
X358620Y301940D01*
X358574Y301755D01*
X358555Y301551D01*
Y301542D01*
Y301524D01*
Y301496D01*
X358564Y301459D01*
X358574Y301357D01*
X358601Y301237D01*
X358638Y301089D01*
X358703Y300941D01*
X358796Y300793D01*
X358916Y300655D01*
X358934Y300636D01*
X358980Y300599D01*
X359054Y300544D01*
X359156Y300479D01*
X359286Y300414D01*
X359443Y300359D01*
X359618Y300322D01*
X359813Y300303D01*
X359896D01*
X359961Y300313D01*
X360044Y300322D01*
X360136Y300340D01*
X360247Y300359D01*
X360367Y300387D01*
X360275Y299693D01*
X360229D01*
X360192Y299702D01*
X360071D01*
X359970Y299684D01*
X359850Y299665D01*
X359711Y299638D01*
X359554Y299592D01*
X359406Y299527D01*
X359249Y299443D01*
X359239D01*
X359230Y299434D01*
X359184Y299397D01*
X359119Y299333D01*
X359045Y299249D01*
X358971Y299129D01*
X358907Y298990D01*
X358860Y298833D01*
X358842Y298741D01*
Y298639D01*
Y298630D01*
Y298621D01*
Y298565D01*
X358860Y298491D01*
X358879Y298389D01*
X358916Y298279D01*
X358962Y298158D01*
X359036Y298038D01*
X359138Y297927D01*
X359147Y297918D01*
X359193Y297881D01*
X359258Y297835D01*
X359341Y297779D01*
X359452Y297733D01*
X359581Y297687D01*
X359729Y297650D01*
X359896Y297641D01*
X359970D01*
X360053Y297659D01*
X360164Y297678D01*
X360284Y297715D01*
X360404Y297761D01*
X360534Y297835D01*
X360654Y297927D01*
X360663Y297936D01*
X360700Y297983D01*
X360756Y298047D01*
X360820Y298140D01*
X360885Y298260D01*
X360950Y298408D01*
X361005Y298584D01*
X361042Y298787D01*
X361828Y298648D01*
Y298639D01*
X361819Y298611D01*
X361810Y298574D01*
X361800Y298519D01*
X361782Y298454D01*
X361754Y298380D01*
X361699Y298205D01*
X361606Y298001D01*
X361495Y297798D01*
X361357Y297604D01*
X361181Y297428D01*
X361172Y297419D01*
X361153Y297409D01*
X361125Y297391D01*
X361088Y297363D01*
X361042Y297326D01*
X360978Y297289D01*
X360913Y297252D01*
X360830Y297206D01*
X360645Y297132D01*
X360432Y297058D01*
X360182Y297012D01*
X360053Y296993D01*
X359822D01*
X359720Y297003D01*
X359600Y297021D01*
X359452Y297049D01*
X359286Y297095D01*
X359119Y297151D01*
X358953Y297225D01*
X358943D01*
X358934Y297234D01*
X358879Y297262D01*
X358796Y297317D01*
X358703Y297382D01*
X358592Y297474D01*
X358481Y297576D01*
X358370Y297696D01*
X358278Y297835D01*
X358269Y297853D01*
X358241Y297899D01*
X358204Y297983D01*
X358158Y298084D01*
X358111Y298205D01*
X358074Y298343D01*
X358047Y298500D01*
X358037Y298658D01*
Y298676D01*
Y298732D01*
X358047Y298806D01*
X358065Y298907D01*
X358093Y299028D01*
X358139Y299157D01*
X358195Y299286D01*
X358269Y299416D01*
X358278Y299434D01*
X358306Y299471D01*
X358361Y299536D01*
X358435Y299610D01*
X358527Y299693D01*
X358638Y299786D01*
X358768Y299869D01*
X358925Y299952D01*
X358916D01*
X358897Y299961D01*
X358870Y299970D01*
X358833Y299980D01*
X358731Y300017D01*
X358601Y300072D01*
X358453Y300146D01*
X358306Y300239D01*
X358167Y300359D01*
X358037Y300497D01*
X358028Y300516D01*
X357991Y300571D01*
X357936Y300664D01*
X357880Y300784D01*
X357825Y300932D01*
X357769Y301108D01*
X357732Y301311D01*
X357723Y301533D01*
Y301542D01*
Y301570D01*
Y301616D01*
X357732Y301672D01*
X357742Y301746D01*
X357760Y301829D01*
X357779Y301921D01*
X357797Y302023D01*
X357871Y302245D01*
X357926Y302365D01*
X357982Y302476D01*
X358056Y302596D01*
X358139Y302717D01*
X358232Y302837D01*
X358343Y302948D01*
X358352Y302957D01*
X358370Y302975D01*
X358407Y303003D01*
X358453Y303040D01*
X358509Y303086D01*
X358583Y303132D01*
X358666Y303188D01*
X358768Y303234D01*
X358870Y303290D01*
X358990Y303345D01*
X359110Y303391D01*
X359249Y303438D01*
X359397Y303475D01*
X359554Y303502D01*
X359711Y303521D01*
X359887Y303530D01*
X359970D01*
X360025Y303521D01*
D02*
G37*
G36*
X365471D02*
X365554D01*
X365656Y303512D01*
X365767Y303493D01*
X365896Y303475D01*
X366164Y303428D01*
X366442Y303354D01*
X366719Y303253D01*
X366848Y303188D01*
X366978Y303114D01*
X366987Y303105D01*
X367006Y303095D01*
X367043Y303068D01*
X367080Y303031D01*
X367135Y302994D01*
X367200Y302938D01*
X367274Y302874D01*
X367348Y302800D01*
X367422Y302717D01*
X367505Y302633D01*
X367671Y302421D01*
X367829Y302171D01*
X367967Y301894D01*
Y301884D01*
X367986Y301857D01*
X367995Y301810D01*
X368023Y301755D01*
X368041Y301681D01*
X368069Y301588D01*
X368106Y301487D01*
X368134Y301376D01*
X368161Y301256D01*
X368198Y301117D01*
X368245Y300830D01*
X368282Y300507D01*
X368300Y300174D01*
Y300165D01*
Y300128D01*
Y300072D01*
X368291Y300007D01*
Y299915D01*
X368282Y299823D01*
X368272Y299702D01*
X368254Y299582D01*
X368208Y299314D01*
X368143Y299018D01*
X368050Y298722D01*
X367921Y298436D01*
X367912Y298426D01*
X367902Y298399D01*
X367884Y298362D01*
X367847Y298316D01*
X367810Y298251D01*
X367764Y298177D01*
X367644Y298011D01*
X367486Y297826D01*
X367302Y297641D01*
X367089Y297456D01*
X366839Y297299D01*
X366830Y297289D01*
X366802Y297280D01*
X366765Y297262D01*
X366719Y297234D01*
X366645Y297206D01*
X366571Y297178D01*
X366479Y297141D01*
X366377Y297104D01*
X366266Y297067D01*
X366146Y297030D01*
X365887Y296975D01*
X365591Y296929D01*
X365286Y296910D01*
X365194D01*
X365129Y296919D01*
X365046Y296929D01*
X364944Y296938D01*
X364842Y296947D01*
X364722Y296975D01*
X364472Y297030D01*
X364195Y297114D01*
X364056Y297169D01*
X363927Y297234D01*
X363797Y297317D01*
X363668Y297400D01*
X363659Y297409D01*
X363640Y297419D01*
X363603Y297446D01*
X363557Y297493D01*
X363511Y297539D01*
X363446Y297604D01*
X363381Y297678D01*
X363307Y297752D01*
X363233Y297844D01*
X363159Y297955D01*
X363076Y298066D01*
X363002Y298186D01*
X362938Y298325D01*
X362864Y298463D01*
X362808Y298611D01*
X362753Y298778D01*
X363585Y298972D01*
Y298963D01*
X363594Y298944D01*
X363613Y298907D01*
X363631Y298861D01*
X363649Y298806D01*
X363677Y298732D01*
X363751Y298584D01*
X363844Y298417D01*
X363955Y298251D01*
X364093Y298094D01*
X364241Y297955D01*
X364260Y297936D01*
X364315Y297899D01*
X364408Y297853D01*
X364528Y297789D01*
X364685Y297733D01*
X364861Y297678D01*
X365073Y297641D01*
X365304Y297631D01*
X365378D01*
X365425Y297641D01*
X365489D01*
X365563Y297650D01*
X365739Y297678D01*
X365933Y297715D01*
X366137Y297779D01*
X366349Y297872D01*
X366543Y297992D01*
X366553D01*
X366562Y298011D01*
X366627Y298057D01*
X366710Y298131D01*
X366811Y298242D01*
X366932Y298380D01*
X367043Y298538D01*
X367144Y298732D01*
X367237Y298944D01*
Y298953D01*
X367246Y298972D01*
X367255Y299000D01*
X367265Y299046D01*
X367283Y299101D01*
X367302Y299166D01*
X367329Y299323D01*
X367366Y299508D01*
X367403Y299712D01*
X367422Y299933D01*
X367431Y300174D01*
Y300183D01*
Y300211D01*
Y300257D01*
Y300313D01*
X367422Y300377D01*
Y300460D01*
X367412Y300553D01*
X367403Y300655D01*
X367375Y300877D01*
X367329Y301117D01*
X367274Y301357D01*
X367200Y301598D01*
Y301607D01*
X367191Y301625D01*
X367172Y301653D01*
X367154Y301699D01*
X367098Y301810D01*
X367015Y301940D01*
X366913Y302088D01*
X366784Y302245D01*
X366636Y302384D01*
X366460Y302513D01*
X366451D01*
X366432Y302522D01*
X366405Y302541D01*
X366368Y302559D01*
X366321Y302578D01*
X366266Y302605D01*
X366137Y302661D01*
X365970Y302717D01*
X365785Y302763D01*
X365582Y302800D01*
X365369Y302809D01*
X365304D01*
X365249Y302800D01*
X365184D01*
X365120Y302790D01*
X364953Y302753D01*
X364759Y302707D01*
X364565Y302633D01*
X364361Y302532D01*
X364260Y302476D01*
X364167Y302402D01*
X364158Y302393D01*
X364149Y302384D01*
X364121Y302356D01*
X364084Y302328D01*
X364047Y302282D01*
X364001Y302226D01*
X363945Y302171D01*
X363899Y302097D01*
X363844Y302014D01*
X363779Y301921D01*
X363723Y301829D01*
X363668Y301718D01*
X363622Y301598D01*
X363576Y301468D01*
X363529Y301330D01*
X363492Y301182D01*
X362642Y301394D01*
Y301404D01*
X362651Y301441D01*
X362669Y301496D01*
X362697Y301570D01*
X362725Y301653D01*
X362762Y301755D01*
X362808Y301866D01*
X362864Y301986D01*
X362993Y302245D01*
X363159Y302504D01*
X363261Y302633D01*
X363363Y302763D01*
X363474Y302874D01*
X363603Y302985D01*
X363613Y302994D01*
X363631Y303012D01*
X363677Y303031D01*
X363723Y303068D01*
X363797Y303114D01*
X363871Y303160D01*
X363973Y303207D01*
X364075Y303253D01*
X364195Y303308D01*
X364324Y303354D01*
X364463Y303401D01*
X364611Y303447D01*
X364768Y303484D01*
X364935Y303502D01*
X365110Y303521D01*
X365295Y303530D01*
X365397D01*
X365471Y303521D01*
D02*
G37*
G36*
X364201Y210811D02*
X364284D01*
X364386Y210802D01*
X364497Y210783D01*
X364626Y210765D01*
X364894Y210718D01*
X365172Y210644D01*
X365449Y210543D01*
X365578Y210478D01*
X365708Y210404D01*
X365717Y210395D01*
X365736Y210385D01*
X365773Y210358D01*
X365810Y210321D01*
X365865Y210284D01*
X365930Y210228D01*
X366004Y210164D01*
X366078Y210090D01*
X366152Y210007D01*
X366235Y209923D01*
X366401Y209711D01*
X366559Y209461D01*
X366697Y209184D01*
Y209174D01*
X366716Y209147D01*
X366725Y209100D01*
X366753Y209045D01*
X366771Y208971D01*
X366799Y208878D01*
X366836Y208777D01*
X366864Y208666D01*
X366891Y208546D01*
X366928Y208407D01*
X366975Y208120D01*
X367012Y207797D01*
X367030Y207464D01*
Y207455D01*
Y207418D01*
Y207362D01*
X367021Y207297D01*
Y207205D01*
X367012Y207113D01*
X367002Y206992D01*
X366984Y206872D01*
X366938Y206604D01*
X366873Y206308D01*
X366780Y206012D01*
X366651Y205726D01*
X366642Y205716D01*
X366632Y205689D01*
X366614Y205652D01*
X366577Y205606D01*
X366540Y205541D01*
X366494Y205467D01*
X366374Y205301D01*
X366217Y205116D01*
X366032Y204931D01*
X365819Y204746D01*
X365569Y204589D01*
X365560Y204579D01*
X365532Y204570D01*
X365495Y204552D01*
X365449Y204524D01*
X365375Y204496D01*
X365301Y204468D01*
X365209Y204431D01*
X365107Y204394D01*
X364996Y204357D01*
X364876Y204320D01*
X364617Y204265D01*
X364321Y204219D01*
X364016Y204200D01*
X363924D01*
X363859Y204209D01*
X363776Y204219D01*
X363674Y204228D01*
X363572Y204237D01*
X363452Y204265D01*
X363202Y204320D01*
X362925Y204404D01*
X362786Y204459D01*
X362657Y204524D01*
X362528Y204607D01*
X362398Y204690D01*
X362389Y204699D01*
X362370Y204709D01*
X362333Y204736D01*
X362287Y204783D01*
X362241Y204829D01*
X362176Y204894D01*
X362111Y204968D01*
X362038Y205042D01*
X361964Y205134D01*
X361889Y205245D01*
X361806Y205356D01*
X361732Y205476D01*
X361668Y205615D01*
X361594Y205753D01*
X361538Y205901D01*
X361483Y206068D01*
X362315Y206262D01*
Y206253D01*
X362324Y206234D01*
X362343Y206197D01*
X362361Y206151D01*
X362379Y206096D01*
X362407Y206022D01*
X362481Y205874D01*
X362574Y205707D01*
X362685Y205541D01*
X362823Y205384D01*
X362971Y205245D01*
X362990Y205226D01*
X363045Y205189D01*
X363138Y205143D01*
X363258Y205079D01*
X363415Y205023D01*
X363591Y204968D01*
X363803Y204931D01*
X364035Y204921D01*
X364109D01*
X364155Y204931D01*
X364219D01*
X364293Y204940D01*
X364469Y204968D01*
X364663Y205005D01*
X364867Y205069D01*
X365079Y205162D01*
X365273Y205282D01*
X365283D01*
X365292Y205301D01*
X365357Y205347D01*
X365440Y205421D01*
X365541Y205532D01*
X365662Y205670D01*
X365773Y205828D01*
X365874Y206022D01*
X365967Y206234D01*
Y206243D01*
X365976Y206262D01*
X365985Y206290D01*
X365995Y206336D01*
X366013Y206391D01*
X366032Y206456D01*
X366059Y206613D01*
X366096Y206798D01*
X366133Y207002D01*
X366152Y207223D01*
X366161Y207464D01*
Y207473D01*
Y207501D01*
Y207547D01*
Y207603D01*
X366152Y207667D01*
Y207750D01*
X366143Y207843D01*
X366133Y207945D01*
X366105Y208167D01*
X366059Y208407D01*
X366004Y208647D01*
X365930Y208888D01*
Y208897D01*
X365921Y208916D01*
X365902Y208943D01*
X365884Y208989D01*
X365828Y209100D01*
X365745Y209230D01*
X365643Y209378D01*
X365514Y209535D01*
X365366Y209674D01*
X365190Y209803D01*
X365181D01*
X365163Y209812D01*
X365135Y209831D01*
X365098Y209849D01*
X365051Y209868D01*
X364996Y209895D01*
X364867Y209951D01*
X364700Y210007D01*
X364515Y210053D01*
X364312Y210090D01*
X364099Y210099D01*
X364035D01*
X363979Y210090D01*
X363914D01*
X363850Y210080D01*
X363683Y210043D01*
X363489Y209997D01*
X363295Y209923D01*
X363092Y209822D01*
X362990Y209766D01*
X362897Y209692D01*
X362888Y209683D01*
X362879Y209674D01*
X362851Y209646D01*
X362814Y209618D01*
X362777Y209572D01*
X362731Y209516D01*
X362675Y209461D01*
X362629Y209387D01*
X362574Y209304D01*
X362509Y209211D01*
X362453Y209119D01*
X362398Y209008D01*
X362352Y208888D01*
X362306Y208758D01*
X362259Y208620D01*
X362222Y208472D01*
X361372Y208684D01*
Y208694D01*
X361381Y208731D01*
X361399Y208786D01*
X361427Y208860D01*
X361455Y208943D01*
X361492Y209045D01*
X361538Y209156D01*
X361594Y209276D01*
X361723Y209535D01*
X361889Y209794D01*
X361991Y209923D01*
X362093Y210053D01*
X362204Y210164D01*
X362333Y210275D01*
X362343Y210284D01*
X362361Y210302D01*
X362407Y210321D01*
X362453Y210358D01*
X362528Y210404D01*
X362601Y210450D01*
X362703Y210497D01*
X362805Y210543D01*
X362925Y210598D01*
X363055Y210644D01*
X363193Y210691D01*
X363341Y210737D01*
X363498Y210774D01*
X363665Y210792D01*
X363840Y210811D01*
X364025Y210820D01*
X364127D01*
X364201Y210811D01*
D02*
G37*
G36*
X358136Y209174D02*
X360919D01*
Y208453D01*
X357988Y204311D01*
X357350D01*
Y208453D01*
X356481D01*
Y209174D01*
X357350D01*
Y210709D01*
X358136D01*
Y209174D01*
D02*
G37*
%LPC*%
G36*
X119170Y262180D02*
X117690D01*
Y257298D01*
X119207D01*
X119271Y257307D01*
X119410Y257316D01*
X119567Y257326D01*
X119734Y257344D01*
X119900Y257372D01*
X120039Y257409D01*
X120057Y257418D01*
X120104Y257428D01*
X120168Y257455D01*
X120252Y257492D01*
X120344Y257548D01*
X120436Y257603D01*
X120529Y257668D01*
X120621Y257742D01*
X120631Y257760D01*
X120668Y257797D01*
X120723Y257862D01*
X120788Y257954D01*
X120862Y258075D01*
X120945Y258213D01*
X121019Y258370D01*
X121084Y258546D01*
Y258555D01*
X121093Y258574D01*
X121102Y258602D01*
X121111Y258639D01*
X121121Y258685D01*
X121139Y258750D01*
X121158Y258814D01*
X121176Y258888D01*
X121204Y259073D01*
X121231Y259286D01*
X121250Y259526D01*
X121259Y259785D01*
Y259794D01*
Y259831D01*
Y259877D01*
X121250Y259951D01*
Y260035D01*
X121241Y260127D01*
X121231Y260238D01*
X121222Y260349D01*
X121176Y260599D01*
X121121Y260858D01*
X121037Y261098D01*
X120982Y261218D01*
X120926Y261320D01*
Y261329D01*
X120908Y261348D01*
X120889Y261375D01*
X120871Y261412D01*
X120797Y261505D01*
X120704Y261616D01*
X120584Y261736D01*
X120446Y261856D01*
X120288Y261958D01*
X120122Y262041D01*
X120104Y262050D01*
X120057Y262059D01*
X119974Y262087D01*
X119854Y262115D01*
X119706Y262134D01*
X119521Y262161D01*
X119410Y262170D01*
X119290D01*
X119170Y262180D01*
D02*
G37*
G36*
Y202490D02*
X117690D01*
Y197608D01*
X119207D01*
X119271Y197617D01*
X119410Y197626D01*
X119567Y197636D01*
X119734Y197654D01*
X119900Y197682D01*
X120039Y197719D01*
X120057Y197728D01*
X120104Y197738D01*
X120168Y197765D01*
X120252Y197802D01*
X120344Y197858D01*
X120436Y197913D01*
X120529Y197978D01*
X120621Y198052D01*
X120631Y198070D01*
X120668Y198107D01*
X120723Y198172D01*
X120788Y198264D01*
X120862Y198385D01*
X120945Y198523D01*
X121019Y198680D01*
X121084Y198856D01*
Y198865D01*
X121093Y198884D01*
X121102Y198912D01*
X121111Y198949D01*
X121121Y198995D01*
X121139Y199060D01*
X121158Y199124D01*
X121176Y199198D01*
X121204Y199383D01*
X121231Y199596D01*
X121250Y199836D01*
X121259Y200095D01*
Y200104D01*
Y200141D01*
Y200187D01*
X121250Y200261D01*
Y200345D01*
X121241Y200437D01*
X121231Y200548D01*
X121222Y200659D01*
X121176Y200909D01*
X121121Y201168D01*
X121037Y201408D01*
X120982Y201528D01*
X120926Y201630D01*
Y201639D01*
X120908Y201658D01*
X120889Y201685D01*
X120871Y201722D01*
X120797Y201815D01*
X120704Y201926D01*
X120584Y202046D01*
X120446Y202166D01*
X120288Y202268D01*
X120122Y202351D01*
X120104Y202360D01*
X120057Y202369D01*
X119974Y202397D01*
X119854Y202425D01*
X119706Y202444D01*
X119521Y202471D01*
X119410Y202480D01*
X119290D01*
X119170Y202490D01*
D02*
G37*
G36*
X125435Y387392D02*
X123419Y384526D01*
X125435D01*
Y387392D01*
D02*
G37*
G36*
X119120Y387910D02*
X117640D01*
Y383028D01*
X119157D01*
X119221Y383037D01*
X119360Y383046D01*
X119517Y383056D01*
X119684Y383074D01*
X119850Y383102D01*
X119989Y383139D01*
X120007Y383148D01*
X120054Y383158D01*
X120118Y383185D01*
X120202Y383222D01*
X120294Y383278D01*
X120386Y383333D01*
X120479Y383398D01*
X120571Y383472D01*
X120581Y383490D01*
X120618Y383527D01*
X120673Y383592D01*
X120738Y383684D01*
X120812Y383805D01*
X120895Y383943D01*
X120969Y384100D01*
X121034Y384276D01*
Y384285D01*
X121043Y384304D01*
X121052Y384332D01*
X121061Y384369D01*
X121071Y384415D01*
X121089Y384480D01*
X121108Y384544D01*
X121126Y384618D01*
X121154Y384803D01*
X121181Y385016D01*
X121200Y385256D01*
X121209Y385515D01*
Y385524D01*
Y385561D01*
Y385607D01*
X121200Y385681D01*
Y385765D01*
X121191Y385857D01*
X121181Y385968D01*
X121172Y386079D01*
X121126Y386329D01*
X121071Y386588D01*
X120987Y386828D01*
X120932Y386948D01*
X120876Y387050D01*
Y387059D01*
X120858Y387078D01*
X120839Y387105D01*
X120821Y387142D01*
X120747Y387235D01*
X120654Y387346D01*
X120534Y387466D01*
X120396Y387586D01*
X120239Y387688D01*
X120072Y387771D01*
X120054Y387780D01*
X120007Y387789D01*
X119924Y387817D01*
X119804Y387845D01*
X119656Y387864D01*
X119471Y387891D01*
X119360Y387900D01*
X119240D01*
X119120Y387910D01*
D02*
G37*
G36*
X120440Y327061D02*
X118961D01*
Y322179D01*
X120477D01*
X120541Y322188D01*
X120680Y322197D01*
X120837Y322207D01*
X121004Y322225D01*
X121170Y322253D01*
X121309Y322290D01*
X121327Y322299D01*
X121374Y322308D01*
X121438Y322336D01*
X121522Y322373D01*
X121614Y322429D01*
X121706Y322484D01*
X121799Y322549D01*
X121891Y322623D01*
X121901Y322641D01*
X121938Y322678D01*
X121993Y322743D01*
X122058Y322835D01*
X122132Y322956D01*
X122215Y323094D01*
X122289Y323251D01*
X122354Y323427D01*
Y323436D01*
X122363Y323455D01*
X122372Y323483D01*
X122381Y323520D01*
X122391Y323566D01*
X122409Y323630D01*
X122428Y323695D01*
X122446Y323769D01*
X122474Y323954D01*
X122501Y324167D01*
X122520Y324407D01*
X122529Y324666D01*
Y324675D01*
Y324712D01*
Y324758D01*
X122520Y324832D01*
Y324916D01*
X122511Y325008D01*
X122501Y325119D01*
X122492Y325230D01*
X122446Y325480D01*
X122391Y325738D01*
X122307Y325979D01*
X122252Y326099D01*
X122196Y326201D01*
Y326210D01*
X122178Y326228D01*
X122159Y326256D01*
X122141Y326293D01*
X122067Y326386D01*
X121974Y326497D01*
X121854Y326617D01*
X121716Y326737D01*
X121559Y326839D01*
X121392Y326922D01*
X121374Y326931D01*
X121327Y326940D01*
X121244Y326968D01*
X121124Y326996D01*
X120976Y327014D01*
X120791Y327042D01*
X120680Y327051D01*
X120560D01*
X120440Y327061D01*
D02*
G37*
G36*
X503575Y218199D02*
X503519D01*
X503482Y218189D01*
X503390Y218180D01*
X503260Y218152D01*
X503122Y218106D01*
X502965Y218032D01*
X502817Y217940D01*
X502669Y217810D01*
X502650Y217792D01*
X502613Y217746D01*
X502548Y217662D01*
X502484Y217542D01*
X502419Y217404D01*
X502354Y217228D01*
X502317Y217034D01*
X502299Y216812D01*
Y216793D01*
Y216747D01*
X502308Y216664D01*
X502317Y216562D01*
X502336Y216442D01*
X502373Y216313D01*
X502410Y216174D01*
X502465Y216035D01*
X502475Y216017D01*
X502502Y215970D01*
X502539Y215906D01*
X502595Y215823D01*
X502659Y215739D01*
X502743Y215638D01*
X502835Y215554D01*
X502946Y215471D01*
X502965Y215462D01*
X503002Y215443D01*
X503066Y215406D01*
X503149Y215379D01*
X503242Y215342D01*
X503353Y215305D01*
X503473Y215286D01*
X503602Y215277D01*
X503649D01*
X503686Y215286D01*
X503778Y215296D01*
X503898Y215323D01*
X504028Y215379D01*
X504176Y215443D01*
X504324Y215545D01*
X504398Y215601D01*
X504462Y215675D01*
Y215684D01*
X504481Y215693D01*
X504518Y215749D01*
X504573Y215841D01*
X504647Y215961D01*
X504712Y216118D01*
X504767Y216303D01*
X504804Y216516D01*
X504823Y216766D01*
Y216775D01*
Y216793D01*
Y216830D01*
X504814Y216877D01*
Y216932D01*
X504804Y216997D01*
X504777Y217145D01*
X504740Y217311D01*
X504675Y217487D01*
X504582Y217653D01*
X504462Y217810D01*
X504444Y217829D01*
X504398Y217875D01*
X504324Y217931D01*
X504222Y218004D01*
X504092Y218078D01*
X503945Y218134D01*
X503769Y218180D01*
X503575Y218199D01*
D02*
G37*
G36*
X497630Y220381D02*
X496151D01*
Y215499D01*
X497667D01*
X497732Y215508D01*
X497870Y215518D01*
X498027Y215527D01*
X498194Y215545D01*
X498360Y215573D01*
X498499Y215610D01*
X498517Y215619D01*
X498564Y215628D01*
X498628Y215656D01*
X498712Y215693D01*
X498804Y215749D01*
X498896Y215804D01*
X498989Y215869D01*
X499081Y215943D01*
X499091Y215961D01*
X499128Y215998D01*
X499183Y216063D01*
X499248Y216155D01*
X499322Y216276D01*
X499405Y216414D01*
X499479Y216571D01*
X499544Y216747D01*
Y216756D01*
X499553Y216775D01*
X499562Y216803D01*
X499571Y216840D01*
X499581Y216886D01*
X499599Y216950D01*
X499618Y217015D01*
X499636Y217089D01*
X499664Y217274D01*
X499692Y217487D01*
X499710Y217727D01*
X499719Y217986D01*
Y217995D01*
Y218032D01*
Y218078D01*
X499710Y218152D01*
Y218236D01*
X499701Y218328D01*
X499692Y218439D01*
X499682Y218550D01*
X499636Y218800D01*
X499581Y219058D01*
X499497Y219299D01*
X499442Y219419D01*
X499386Y219521D01*
Y219530D01*
X499368Y219548D01*
X499349Y219576D01*
X499331Y219613D01*
X499257Y219706D01*
X499165Y219817D01*
X499044Y219937D01*
X498906Y220057D01*
X498749Y220159D01*
X498582Y220242D01*
X498564Y220251D01*
X498517Y220260D01*
X498434Y220288D01*
X498314Y220316D01*
X498166Y220334D01*
X497981Y220362D01*
X497870Y220371D01*
X497750D01*
X497630Y220381D01*
D02*
G37*
G36*
X502710Y414691D02*
X501231D01*
Y409809D01*
X502747D01*
X502812Y409818D01*
X502950Y409827D01*
X503107Y409837D01*
X503274Y409855D01*
X503440Y409883D01*
X503579Y409920D01*
X503597Y409929D01*
X503644Y409938D01*
X503708Y409966D01*
X503792Y410003D01*
X503884Y410059D01*
X503976Y410114D01*
X504069Y410179D01*
X504161Y410253D01*
X504171Y410271D01*
X504208Y410308D01*
X504263Y410373D01*
X504328Y410465D01*
X504402Y410586D01*
X504485Y410724D01*
X504559Y410881D01*
X504624Y411057D01*
Y411066D01*
X504633Y411085D01*
X504642Y411113D01*
X504651Y411150D01*
X504661Y411196D01*
X504679Y411260D01*
X504698Y411325D01*
X504716Y411399D01*
X504744Y411584D01*
X504771Y411797D01*
X504790Y412037D01*
X504799Y412296D01*
Y412305D01*
Y412342D01*
Y412388D01*
X504790Y412462D01*
Y412546D01*
X504781Y412638D01*
X504771Y412749D01*
X504762Y412860D01*
X504716Y413110D01*
X504661Y413368D01*
X504577Y413609D01*
X504522Y413729D01*
X504466Y413831D01*
Y413840D01*
X504448Y413858D01*
X504429Y413886D01*
X504411Y413923D01*
X504337Y414016D01*
X504244Y414127D01*
X504124Y414247D01*
X503986Y414367D01*
X503829Y414469D01*
X503662Y414552D01*
X503644Y414561D01*
X503597Y414570D01*
X503514Y414598D01*
X503394Y414626D01*
X503246Y414644D01*
X503061Y414672D01*
X502950Y414681D01*
X502830D01*
X502710Y414691D01*
D02*
G37*
G36*
X360151Y208453D02*
X358136D01*
Y205587D01*
X360151Y208453D01*
D02*
G37*
%LPD*%
D12*
X63690Y241540D02*
Y271540D01*
Y241540D02*
X169990D01*
Y271540D01*
X63690D02*
X169990D01*
X63690Y181850D02*
Y211850D01*
Y181850D02*
X169990D01*
Y211850D01*
X63690D02*
X169990D01*
X8510Y244750D02*
X37210D01*
Y301350D01*
X8510D02*
X37210D01*
X8510Y244750D02*
Y301350D01*
X63640Y367270D02*
Y397270D01*
Y367270D02*
X169940D01*
Y397270D01*
X63640D02*
X169940D01*
X64960Y306310D02*
Y336310D01*
Y306310D02*
X171260D01*
Y336310D01*
X64960D02*
X171260D01*
X474600Y93620D02*
X503300D01*
Y150220D01*
X474600D02*
X503300D01*
X474600Y93620D02*
Y150220D01*
X473330Y338180D02*
X502030D01*
X473330Y281580D02*
Y338180D01*
Y281580D02*
X502030D01*
Y338180D01*
X226530Y359660D02*
X253530D01*
X226530Y295660D02*
Y359660D01*
Y295660D02*
X253530D01*
Y359660D01*
X400300Y290030D02*
Y317030D01*
X336300D02*
X400300D01*
X336300Y290030D02*
Y317030D01*
Y290030D02*
X400300D01*
X399030Y197320D02*
Y224320D01*
X335030D02*
X399030D01*
X335030Y197320D02*
Y224320D01*
Y197320D02*
X399030D01*
M02*
