G04*
G04 #@! TF.GenerationSoftware,Altium Limited,Altium Designer,22.7.1 (60)*
G04*
G04 Layer_Color=128*
%FSLAX44Y44*%
%MOMM*%
G71*
G04*
G04 #@! TF.SameCoordinates,C52D0C66-BE6F-4025-8B9A-53269D1F723A*
G04*
G04*
G04 #@! TF.FilePolarity,Positive*
G04*
G01*
G75*
%ADD47C,0.0508*%
D47*
X606300Y135000D02*
X614300D01*
X610300Y131000D02*
Y139000D01*
X220050Y330300D02*
X227550D01*
X223800Y326550D02*
Y334050D01*
X245450Y330300D02*
X252950D01*
X249200Y326550D02*
Y334050D01*
X270850Y330300D02*
X278350D01*
X274600Y326550D02*
Y334050D01*
X296250Y330300D02*
X303750D01*
X300000Y326550D02*
Y334050D01*
X321650Y330300D02*
X329150D01*
X325400Y326550D02*
Y334050D01*
X347050Y330300D02*
X354550D01*
X350800Y326550D02*
Y334050D01*
X372450Y330300D02*
X379950D01*
X376200Y326550D02*
Y334050D01*
X372450Y409700D02*
X379950D01*
X376200Y405950D02*
Y413450D01*
X347050Y409700D02*
X354550D01*
X350800Y405950D02*
Y413450D01*
X321650Y409700D02*
X329150D01*
X325400Y405950D02*
Y413450D01*
X296250Y409700D02*
X303750D01*
X300000Y405950D02*
Y413450D01*
X270850Y409700D02*
X278350D01*
X274600Y405950D02*
Y413450D01*
X245450Y409700D02*
X252950D01*
X249200Y405950D02*
Y413450D01*
X220050Y409700D02*
X227550D01*
X223800Y405950D02*
Y413450D01*
X635700Y135000D02*
X643700D01*
X639700Y131000D02*
Y139000D01*
X621000Y135000D02*
X629000D01*
X625000Y131000D02*
Y139000D01*
X290750Y250000D02*
X299250D01*
X295000Y245750D02*
Y254250D01*
X200750Y250000D02*
X209250D01*
X205000Y245750D02*
Y254250D01*
X638500Y264998D02*
X651500D01*
X645000Y258498D02*
Y271497D01*
X638500Y214998D02*
X651500D01*
X645000Y208498D02*
Y221498D01*
X338500Y490000D02*
X351500D01*
X345000Y483500D02*
Y496500D01*
X338500Y610000D02*
X351500D01*
X345000Y603500D02*
Y616500D01*
X216500Y610000D02*
X229500D01*
X223000Y603500D02*
Y616500D01*
X216500Y490000D02*
X229500D01*
X223000Y483500D02*
Y496500D01*
X196500Y550000D02*
X209500D01*
X203000Y543500D02*
Y556500D01*
X625750Y525000D02*
X634250D01*
X630000Y520750D02*
Y529250D01*
X625750Y615000D02*
X634250D01*
X630000Y610750D02*
Y619250D01*
X624900Y424600D02*
X635100D01*
X630000Y419500D02*
Y429700D01*
X624900Y450000D02*
X635100D01*
X630000Y444900D02*
Y455100D01*
X374900Y250000D02*
X385100D01*
X380000Y244900D02*
Y255100D01*
X349500Y250000D02*
X359700D01*
X354600Y244900D02*
Y255100D01*
X124750Y505620D02*
X135250D01*
X130000Y500370D02*
Y510870D01*
X124750Y614380D02*
X135250D01*
X130000Y609130D02*
Y619630D01*
X474900Y612700D02*
X485100D01*
X480000Y607600D02*
Y617800D01*
X474900Y587300D02*
X485100D01*
X480000Y582200D02*
Y592400D01*
X267400Y101900D02*
X276400D01*
X271900Y97400D02*
Y106400D01*
X292800Y101900D02*
X301800D01*
X297300Y97400D02*
Y106400D01*
X318200Y101900D02*
X327200D01*
X322700Y97400D02*
Y106400D01*
X343600Y101900D02*
X352600D01*
X348100Y97400D02*
Y106400D01*
X267400Y178100D02*
X276400D01*
X271900Y173600D02*
Y182600D01*
X292800Y178100D02*
X301800D01*
X297300Y173600D02*
Y182600D01*
X318200Y178100D02*
X327200D01*
X322700Y173600D02*
Y182600D01*
X343600Y178100D02*
X352600D01*
X348100Y173600D02*
Y182600D01*
X450750Y120000D02*
X459250D01*
X455000Y115750D02*
Y124250D01*
X540750Y120000D02*
X549250D01*
X545000Y115750D02*
Y124250D01*
X435750Y325000D02*
X444250D01*
X440000Y320750D02*
Y329250D01*
X435750Y415000D02*
X444250D01*
X440000Y410750D02*
Y419250D01*
X450750Y240000D02*
X459250D01*
X455000Y235750D02*
Y244250D01*
X540750Y240000D02*
X549250D01*
X545000Y235750D02*
Y244250D01*
X450750Y180000D02*
X459250D01*
X455000Y175750D02*
Y184250D01*
X540750Y180000D02*
X549250D01*
X545000Y175750D02*
Y184250D01*
X464900Y500000D02*
X475100D01*
X470000Y494900D02*
Y505100D01*
X439500Y500000D02*
X449700D01*
X444600Y494900D02*
Y505100D01*
X125750Y335000D02*
X134250D01*
X130000Y330750D02*
Y339250D01*
X125750Y245000D02*
X134250D01*
X130000Y240750D02*
Y249250D01*
X126500Y155000D02*
X133500D01*
X130000Y151500D02*
Y158500D01*
X126500Y105000D02*
X133500D01*
X130000Y101500D02*
Y108500D01*
X555750Y325000D02*
X564250D01*
X560000Y320750D02*
Y329250D01*
X555750Y415000D02*
X564250D01*
X560000Y410750D02*
Y419250D01*
X495750Y325000D02*
X504250D01*
X500000Y320750D02*
Y329250D01*
X495750Y415000D02*
X504250D01*
X500000Y410750D02*
Y419250D01*
X560300Y500000D02*
X570500D01*
X565400Y494900D02*
Y505100D01*
X534900Y500000D02*
X545100D01*
X540000Y494900D02*
Y505100D01*
X690000Y50000D02*
X710000D01*
X700000Y40000D02*
Y60000D01*
X40000Y50000D02*
X60000D01*
X50000Y40000D02*
Y60000D01*
X690000Y680000D02*
X710000D01*
X700000Y670000D02*
Y690000D01*
X40000Y680000D02*
X60000D01*
X50000Y670000D02*
Y690000D01*
M02*
