G04*
G04 #@! TF.GenerationSoftware,Altium Limited,Altium Designer,22.7.1 (60)*
G04*
G04 Layer_Color=2752767*
%FSLAX44Y44*%
%MOMM*%
G71*
G04*
G04 #@! TF.SameCoordinates,C52D0C66-BE6F-4025-8B9A-53269D1F723A*
G04*
G04*
G04 #@! TF.FilePolarity,Positive*
G04*
G01*
G75*
%ADD47C,0.0508*%
%ADD48C,0.0677*%
%ADD49C,0.0339*%
D47*
X608268Y132968D02*
X609284D01*
X610300Y133984D01*
X611316Y132968D01*
X612332D01*
Y133984D01*
X611316Y135000D01*
X612332Y136016D01*
Y137032D01*
X611316D01*
X610300Y136016D01*
X609284Y137032D01*
X608268D01*
Y136016D01*
X609284Y135000D01*
X608268Y133984D01*
Y132968D01*
X221768Y328268D02*
X222784Y330300D01*
X221768Y332332D01*
X223800Y331316D01*
X225832Y332332D01*
X224816Y330300D01*
X225832Y328268D01*
X223800Y329284D01*
X221768Y328268D01*
X247168D02*
X248184Y330300D01*
X247168Y332332D01*
X249200Y331316D01*
X251232Y332332D01*
X250216Y330300D01*
X251232Y328268D01*
X249200Y329284D01*
X247168Y328268D01*
X272568D02*
X273584Y330300D01*
X272568Y332332D01*
X274600Y331316D01*
X276632Y332332D01*
X275616Y330300D01*
X276632Y328268D01*
X274600Y329284D01*
X272568Y328268D01*
X297968D02*
X298984Y330300D01*
X297968Y332332D01*
X300000Y331316D01*
X302032Y332332D01*
X301016Y330300D01*
X302032Y328268D01*
X300000Y329284D01*
X297968Y328268D01*
X323368D02*
X324384Y330300D01*
X323368Y332332D01*
X325400Y331316D01*
X327432Y332332D01*
X326416Y330300D01*
X327432Y328268D01*
X325400Y329284D01*
X323368Y328268D01*
X348768D02*
X349784Y330300D01*
X348768Y332332D01*
X350800Y331316D01*
X352832Y332332D01*
X351816Y330300D01*
X352832Y328268D01*
X350800Y329284D01*
X348768Y328268D01*
X374168D02*
X375184Y330300D01*
X374168Y332332D01*
X376200Y331316D01*
X378232Y332332D01*
X377216Y330300D01*
X378232Y328268D01*
X376200Y329284D01*
X374168Y328268D01*
Y407668D02*
X375184Y409700D01*
X374168Y411732D01*
X376200Y410716D01*
X378232Y411732D01*
X377216Y409700D01*
X378232Y407668D01*
X376200Y408684D01*
X374168Y407668D01*
X348768D02*
X349784Y409700D01*
X348768Y411732D01*
X350800Y410716D01*
X352832Y411732D01*
X351816Y409700D01*
X352832Y407668D01*
X350800Y408684D01*
X348768Y407668D01*
X323368D02*
X324384Y409700D01*
X323368Y411732D01*
X325400Y410716D01*
X327432Y411732D01*
X326416Y409700D01*
X327432Y407668D01*
X325400Y408684D01*
X323368Y407668D01*
X297968D02*
X298984Y409700D01*
X297968Y411732D01*
X300000Y410716D01*
X302032Y411732D01*
X301016Y409700D01*
X302032Y407668D01*
X300000Y408684D01*
X297968Y407668D01*
X272568D02*
X273584Y409700D01*
X272568Y411732D01*
X274600Y410716D01*
X276632Y411732D01*
X275616Y409700D01*
X276632Y407668D01*
X274600Y408684D01*
X272568Y407668D01*
X247168D02*
X248184Y409700D01*
X247168Y411732D01*
X249200Y410716D01*
X251232Y411732D01*
X250216Y409700D01*
X251232Y407668D01*
X249200Y408684D01*
X247168Y407668D01*
X221768D02*
X222784Y409700D01*
X221768Y411732D01*
X223800Y410716D01*
X225832Y411732D01*
X224816Y409700D01*
X225832Y407668D01*
X223800Y408684D01*
X221768Y407668D01*
X637668Y132968D02*
X638684D01*
X639700Y133984D01*
X640716Y132968D01*
X641732D01*
Y133984D01*
X640716Y135000D01*
X641732Y136016D01*
Y137032D01*
X640716D01*
X639700Y136016D01*
X638684Y137032D01*
X637668D01*
Y136016D01*
X638684Y135000D01*
X637668Y133984D01*
Y132968D01*
X622968D02*
X623984D01*
X625000Y133984D01*
X626016Y132968D01*
X627032D01*
Y133984D01*
X626016Y135000D01*
X627032Y136016D01*
Y137032D01*
X626016D01*
X625000Y136016D01*
X623984Y137032D01*
X622968D01*
Y136016D01*
X623984Y135000D01*
X622968Y133984D01*
Y132968D01*
X642968Y262966D02*
Y267029D01*
X647032D01*
Y262966D01*
X642968D01*
Y212966D02*
Y217030D01*
X647032D01*
Y212966D01*
X642968D01*
X342968Y487968D02*
Y492032D01*
X347032D01*
Y487968D01*
X342968D01*
Y607968D02*
Y612032D01*
X347032D01*
Y607968D01*
X342968D01*
X220968D02*
Y612032D01*
X225032D01*
Y607968D01*
X220968D01*
Y487968D02*
Y492032D01*
X225032D01*
Y487968D01*
X220968D01*
X200968Y547968D02*
Y552032D01*
X205032D01*
Y547968D01*
X200968D01*
X630000Y422568D02*
X627968Y426632D01*
X632032D01*
X630000Y422568D01*
Y447968D02*
X627968Y452032D01*
X632032D01*
X630000Y447968D01*
X380000Y247968D02*
X377968Y252032D01*
X382032D01*
X380000Y247968D01*
X354600D02*
X352568Y252032D01*
X356632D01*
X354600Y247968D01*
X130000Y503588D02*
X131016Y504604D01*
X132032D01*
X131016Y505620D01*
X132032Y506636D01*
X131016D01*
X130000Y507652D01*
X128984Y506636D01*
X127968D01*
X128984Y505620D01*
X127968Y504604D01*
X128984D01*
X130000Y503588D01*
Y612348D02*
X131016Y613364D01*
X132032D01*
X131016Y614380D01*
X132032Y615396D01*
X131016D01*
X130000Y616412D01*
X128984Y615396D01*
X127968D01*
X128984Y614380D01*
X127968Y613364D01*
X128984D01*
X130000Y612348D01*
X480000Y610668D02*
X477968Y614732D01*
X482032D01*
X480000Y610668D01*
Y585268D02*
X477968Y589332D01*
X482032D01*
X480000Y585268D01*
X270884Y100884D02*
Y99868D01*
X272916D01*
Y100884D01*
X273932D01*
Y102916D01*
X272916D01*
Y103932D01*
X270884D01*
Y102916D01*
X269868D01*
Y100884D01*
X270884D01*
X296284D02*
Y99868D01*
X298316D01*
Y100884D01*
X299332D01*
Y102916D01*
X298316D01*
Y103932D01*
X296284D01*
Y102916D01*
X295268D01*
Y100884D01*
X296284D01*
X321684D02*
Y99868D01*
X323716D01*
Y100884D01*
X324732D01*
Y102916D01*
X323716D01*
Y103932D01*
X321684D01*
Y102916D01*
X320668D01*
Y100884D01*
X321684D01*
X347084D02*
Y99868D01*
X349116D01*
Y100884D01*
X350132D01*
Y102916D01*
X349116D01*
Y103932D01*
X347084D01*
Y102916D01*
X346068D01*
Y100884D01*
X347084D01*
X270884Y177084D02*
Y176068D01*
X272916D01*
Y177084D01*
X273932D01*
Y179116D01*
X272916D01*
Y180132D01*
X270884D01*
Y179116D01*
X269868D01*
Y177084D01*
X270884D01*
X296284D02*
Y176068D01*
X298316D01*
Y177084D01*
X299332D01*
Y179116D01*
X298316D01*
Y180132D01*
X296284D01*
Y179116D01*
X295268D01*
Y177084D01*
X296284D01*
X321684D02*
Y176068D01*
X323716D01*
Y177084D01*
X324732D01*
Y179116D01*
X323716D01*
Y180132D01*
X321684D01*
Y179116D01*
X320668D01*
Y177084D01*
X321684D01*
X347084D02*
Y176068D01*
X349116D01*
Y177084D01*
X350132D01*
Y179116D01*
X349116D01*
Y180132D01*
X347084D01*
Y179116D01*
X346068D01*
Y177084D01*
X347084D01*
X470000Y497968D02*
X467968Y502032D01*
X472032D01*
X470000Y497968D01*
X444600D02*
X442568Y502032D01*
X446632D01*
X444600Y497968D01*
X127968Y155000D02*
X130000Y157032D01*
X132032Y155000D01*
X130000Y152968D01*
X127968Y155000D01*
Y105000D02*
X130000Y107032D01*
X132032Y105000D01*
X130000Y102968D01*
X127968Y105000D01*
X565400Y497968D02*
X563368Y502032D01*
X567432D01*
X565400Y497968D01*
X540000D02*
X537968Y502032D01*
X542032D01*
X540000Y497968D01*
D48*
X297032Y250000D02*
G03*
X297032Y250000I-2032J0D01*
G01*
X207032D02*
G03*
X207032Y250000I-2032J0D01*
G01*
X632032Y525000D02*
G03*
X632032Y525000I-2032J0D01*
G01*
Y615000D02*
G03*
X632032Y615000I-2032J0D01*
G01*
X457032Y120000D02*
G03*
X457032Y120000I-2032J0D01*
G01*
X547032D02*
G03*
X547032Y120000I-2032J0D01*
G01*
X442032Y325000D02*
G03*
X442032Y325000I-2032J0D01*
G01*
Y415000D02*
G03*
X442032Y415000I-2032J0D01*
G01*
X457032Y240000D02*
G03*
X457032Y240000I-2032J0D01*
G01*
X547032D02*
G03*
X547032Y240000I-2032J0D01*
G01*
X457032Y180000D02*
G03*
X457032Y180000I-2032J0D01*
G01*
X547032D02*
G03*
X547032Y180000I-2032J0D01*
G01*
X132032Y335000D02*
G03*
X132032Y335000I-2032J0D01*
G01*
Y245000D02*
G03*
X132032Y245000I-2032J0D01*
G01*
X562032Y325000D02*
G03*
X562032Y325000I-2032J0D01*
G01*
Y415000D02*
G03*
X562032Y415000I-2032J0D01*
G01*
X502032Y325000D02*
G03*
X502032Y325000I-2032J0D01*
G01*
Y415000D02*
G03*
X502032Y415000I-2032J0D01*
G01*
X702032Y50000D02*
G03*
X702032Y50000I-2032J0D01*
G01*
X52032D02*
G03*
X52032Y50000I-2032J0D01*
G01*
X702032Y680000D02*
G03*
X702032Y680000I-2032J0D01*
G01*
X52032D02*
G03*
X52032Y680000I-2032J0D01*
G01*
D49*
X701016Y50000D02*
G03*
X701016Y50000I-1016J0D01*
G01*
X51016D02*
G03*
X51016Y50000I-1016J0D01*
G01*
X701016Y680000D02*
G03*
X701016Y680000I-1016J0D01*
G01*
X51016D02*
G03*
X51016Y680000I-1016J0D01*
G01*
M02*
