G04*
G04 #@! TF.GenerationSoftware,Altium Limited,Altium Designer,22.7.1 (60)*
G04*
G04 Layer_Physical_Order=1*
G04 Layer_Color=255*
%FSLAX44Y44*%
%MOMM*%
G71*
G04*
G04 #@! TF.SameCoordinates,C52D0C66-BE6F-4025-8B9A-53269D1F723A*
G04*
G04*
G04 #@! TF.FilePolarity,Positive*
G04*
G01*
G75*
%ADD15R,1.2500X1.2500*%
%ADD16C,1.2500*%
%ADD21C,2.0000*%
%ADD22R,2.0000X2.0000*%
%ADD24C,1.5700*%
%ADD25R,1.5700X1.5700*%
%ADD26R,1.5700X1.5700*%
%ADD27C,1.6000*%
%ADD28R,1.6000X1.6000*%
%ADD31C,1.2000*%
%ADD32R,1.2000X1.2000*%
%ADD34C,1.0000*%
%ADD35C,1.3500*%
%ADD36R,1.3500X1.3500*%
%ADD37C,1.9500*%
%ADD38R,1.9500X1.9500*%
%ADD39R,1.3500X1.3500*%
%ADD40R,1.5000X1.5000*%
%ADD41C,1.5000*%
%ADD42C,2.5000*%
D15*
X526200Y330300D02*
D03*
D16*
X500800D02*
D03*
X475400D02*
D03*
X450000D02*
D03*
X424600D02*
D03*
X399200D02*
D03*
X373800D02*
D03*
Y409700D02*
D03*
X399200D02*
D03*
X424600D02*
D03*
X450000D02*
D03*
X475400D02*
D03*
X500800D02*
D03*
X526200D02*
D03*
D21*
X405000Y490000D02*
D03*
Y610000D02*
D03*
X527000D02*
D03*
Y490000D02*
D03*
D22*
X547000Y550000D02*
D03*
D24*
X120000Y424600D02*
D03*
X370000Y250000D02*
D03*
X270000Y612700D02*
D03*
X280000Y500000D02*
D03*
X184600D02*
D03*
D25*
X120000Y450000D02*
D03*
X270000Y587300D02*
D03*
D26*
X395400Y250000D02*
D03*
X305400Y500000D02*
D03*
X210000D02*
D03*
D27*
X620000Y505620D02*
D03*
D28*
Y614380D02*
D03*
D31*
Y155000D02*
D03*
D32*
Y105000D02*
D03*
D34*
X139700Y135000D02*
D03*
X110300D02*
D03*
X125000D02*
D03*
D35*
X455000Y250000D02*
D03*
X120000Y615000D02*
D03*
X205000Y120000D02*
D03*
X310000Y415000D02*
D03*
X205000Y240000D02*
D03*
Y180000D02*
D03*
X620000Y245000D02*
D03*
X190000Y415000D02*
D03*
X250000D02*
D03*
D36*
X545000Y250000D02*
D03*
X295000Y120000D02*
D03*
Y240000D02*
D03*
Y180000D02*
D03*
D37*
X105000Y264998D02*
D03*
D38*
Y214998D02*
D03*
D39*
X120000Y525000D02*
D03*
X310000Y325000D02*
D03*
X620000Y335000D02*
D03*
X190000Y325000D02*
D03*
X250000D02*
D03*
D40*
X478100Y101900D02*
D03*
D41*
X452700D02*
D03*
X427300D02*
D03*
X401900D02*
D03*
X478100Y178100D02*
D03*
X452700D02*
D03*
X427300D02*
D03*
X401900D02*
D03*
D42*
X50000Y50000D02*
D03*
X700000D02*
D03*
X50000Y680000D02*
D03*
X700000D02*
D03*
M02*
