M48
;Layer_Color=9474304
;FILE_FORMAT=4:4
METRIC,LZ
;TYPE=PLATED
T1F00S00C0.7000
T2F00S00C0.7500
T3F00S00C0.8000
T4F00S00C0.8500
T5F00S00C0.9000
T6F00S00C1.0200
T7F00S00C1.0500
T8F00S00C1.3000
T9F00S00C2.0000
%
T01
X0013Y00105
Y00155
T02
X003508Y003303
X003762
Y004097
X003508
X003254
X003
X002746
X002492
X002238
Y003303
X002492
X002746
X003
X003254
T03
X006103Y00135
X00625
X006397
T04
X00455Y0012
Y0018
Y0024
X00545
Y0018
Y0012
X0056Y00325
X005
X0044
Y00415
X005
X0056
X00295Y0025
X00205
X0013Y00245
Y00335
X0063Y00525
Y00615
T05
X003481Y001019
Y001781
X003227
X002973
X002719
Y001019
X002973
X003227
T06
X003546Y0025
X0038
X0063Y004246
Y0045
X005654Y005
X0054
X0047
X004446
X0048Y005873
Y006127
T07
X0013Y0050562
Y0061438
T08
X00645Y00214998
Y00264998
X00223Y0049
X00203Y0055
X00223Y0061
X00345
Y0049
T09
X007Y0005
X0005
Y0068
X007
M30
