G04*
G04 #@! TF.GenerationSoftware,Altium Limited,Altium Designer,22.7.1 (60)*
G04*
G04 Layer_Color=16711935*
%FSLAX44Y44*%
%MOMM*%
G71*
G04*
G04 #@! TF.SameCoordinates,C52D0C66-BE6F-4025-8B9A-53269D1F723A*
G04*
G04*
G04 #@! TF.FilePolarity,Positive*
G04*
G01*
G75*
%ADD11C,0.2000*%
G36*
X450111Y376009D02*
X450120D01*
X450157D01*
X450213D01*
X450286Y376019D01*
X450370Y376028D01*
X450462Y376046D01*
X450555Y376065D01*
X450656Y376102D01*
X450666D01*
X450675Y376111D01*
X450730Y376130D01*
X450813Y376167D01*
X450924Y376222D01*
X451054Y376296D01*
X451202Y376389D01*
X451350Y376490D01*
X451507Y376620D01*
X451516D01*
X451525Y376638D01*
X451581Y376684D01*
X451664Y376768D01*
X451784Y376888D01*
X451923Y377026D01*
X452089Y377202D01*
X452274Y377415D01*
X452468Y377646D01*
X452478Y377655D01*
X452505Y377692D01*
X452552Y377748D01*
X452607Y377812D01*
X452681Y377896D01*
X452764Y377997D01*
X452857Y378099D01*
X452958Y378219D01*
X453180Y378450D01*
X453402Y378681D01*
X453513Y378792D01*
X453624Y378894D01*
X453726Y378987D01*
X453828Y379061D01*
X453837D01*
X453846Y379079D01*
X453874Y379098D01*
X453911Y379116D01*
X454012Y379181D01*
X454133Y379255D01*
X454281Y379319D01*
X454438Y379384D01*
X454613Y379421D01*
X454780Y379440D01*
X454789D01*
X454798D01*
X454854Y379430D01*
X454946Y379421D01*
X455048Y379393D01*
X455177Y379356D01*
X455307Y379292D01*
X455436Y379208D01*
X455566Y379098D01*
X455584Y379079D01*
X455621Y379033D01*
X455667Y378968D01*
X455732Y378866D01*
X455788Y378737D01*
X455843Y378589D01*
X455880Y378413D01*
X455889Y378219D01*
Y378164D01*
X455880Y378127D01*
X455871Y378016D01*
X455843Y377886D01*
X455806Y377748D01*
X455741Y377590D01*
X455658Y377443D01*
X455547Y377304D01*
X455529Y377285D01*
X455482Y377248D01*
X455409Y377193D01*
X455298Y377137D01*
X455168Y377073D01*
X455002Y377017D01*
X454817Y376980D01*
X454604Y376962D01*
X454687Y376157D01*
X454697D01*
X454724Y376167D01*
X454771D01*
X454835Y376176D01*
X454909Y376194D01*
X454992Y376213D01*
X455094Y376241D01*
X455196Y376268D01*
X455418Y376342D01*
X455640Y376453D01*
X455751Y376518D01*
X455862Y376601D01*
X455963Y376684D01*
X456056Y376777D01*
X456065Y376786D01*
X456074Y376805D01*
X456102Y376832D01*
X456130Y376879D01*
X456167Y376934D01*
X456204Y376999D01*
X456250Y377073D01*
X456296Y377165D01*
X456342Y377267D01*
X456389Y377378D01*
X456426Y377498D01*
X456463Y377627D01*
X456490Y377766D01*
X456518Y377914D01*
X456527Y378071D01*
X456536Y378238D01*
Y378330D01*
X456527Y378395D01*
X456518Y378469D01*
X456509Y378561D01*
X456490Y378663D01*
X456472Y378765D01*
X456407Y379005D01*
X456315Y379245D01*
X456259Y379366D01*
X456194Y379486D01*
X456111Y379597D01*
X456019Y379698D01*
X456009Y379708D01*
X456000Y379726D01*
X455963Y379745D01*
X455926Y379782D01*
X455880Y379828D01*
X455815Y379874D01*
X455751Y379920D01*
X455667Y379976D01*
X455492Y380068D01*
X455270Y380161D01*
X455159Y380198D01*
X455029Y380216D01*
X454900Y380235D01*
X454761Y380244D01*
X454743D01*
X454697D01*
X454623Y380235D01*
X454521Y380225D01*
X454410Y380207D01*
X454281Y380170D01*
X454142Y380133D01*
X454003Y380078D01*
X453985Y380068D01*
X453938Y380050D01*
X453865Y380013D01*
X453763Y379957D01*
X453652Y379883D01*
X453513Y379791D01*
X453374Y379680D01*
X453217Y379551D01*
X453199Y379532D01*
X453143Y379486D01*
X453097Y379440D01*
X453051Y379393D01*
X452995Y379338D01*
X452921Y379264D01*
X452848Y379190D01*
X452764Y379098D01*
X452672Y379005D01*
X452570Y378894D01*
X452468Y378774D01*
X452348Y378644D01*
X452228Y378497D01*
X452099Y378349D01*
X452089Y378339D01*
X452071Y378321D01*
X452043Y378284D01*
X452006Y378238D01*
X451951Y378182D01*
X451895Y378117D01*
X451775Y377970D01*
X451636Y377812D01*
X451498Y377664D01*
X451377Y377535D01*
X451331Y377480D01*
X451285Y377433D01*
X451276Y377424D01*
X451248Y377396D01*
X451211Y377359D01*
X451156Y377313D01*
X451091Y377267D01*
X451026Y377211D01*
X450869Y377100D01*
Y380253D01*
X450111D01*
Y376009D01*
D02*
G37*
G36*
X452570Y375020D02*
X452478D01*
X452367Y375011D01*
X452256Y375002D01*
X452006Y374974D01*
X451747Y374937D01*
X451498Y374882D01*
X451377Y374845D01*
X451267Y374808D01*
X451257D01*
X451239Y374798D01*
X451211Y374780D01*
X451174Y374761D01*
X451072Y374706D01*
X450943Y374623D01*
X450795Y374512D01*
X450647Y374382D01*
X450490Y374216D01*
X450351Y374012D01*
Y374003D01*
X450333Y373985D01*
X450323Y373957D01*
X450296Y373911D01*
X450268Y373855D01*
X450240Y373781D01*
X450213Y373707D01*
X450176Y373615D01*
X450139Y373513D01*
X450111Y373402D01*
X450083Y373282D01*
X450055Y373143D01*
X450037Y373005D01*
X450018Y372857D01*
X450000Y372524D01*
Y372441D01*
X450009Y372376D01*
Y372302D01*
X450018Y372210D01*
X450028Y372108D01*
X450037Y372006D01*
X450074Y371775D01*
X450129Y371525D01*
X450203Y371285D01*
X450305Y371054D01*
Y371045D01*
X450323Y371026D01*
X450342Y370998D01*
X450360Y370961D01*
X450434Y370860D01*
X450536Y370740D01*
X450666Y370601D01*
X450813Y370471D01*
X450998Y370342D01*
X451202Y370240D01*
X451211D01*
X451230Y370231D01*
X451267Y370222D01*
X451313Y370203D01*
X451368Y370185D01*
X451442Y370166D01*
X451525Y370139D01*
X451627Y370120D01*
X451738Y370102D01*
X451858Y370074D01*
X451988Y370055D01*
X452126Y370037D01*
X452284Y370018D01*
X452450Y370009D01*
X452626Y370000D01*
X452811D01*
X456509D01*
Y370850D01*
X452811D01*
X452801D01*
X452774D01*
X452727D01*
X452672D01*
X452607Y370860D01*
X452524D01*
X452348Y370869D01*
X452145Y370887D01*
X451941Y370915D01*
X451747Y370952D01*
X451664Y370971D01*
X451581Y370998D01*
X451562Y371008D01*
X451516Y371026D01*
X451451Y371072D01*
X451359Y371128D01*
X451267Y371193D01*
X451165Y371285D01*
X451063Y371396D01*
X450980Y371525D01*
X450971Y371544D01*
X450943Y371590D01*
X450915Y371673D01*
X450878Y371784D01*
X450832Y371914D01*
X450804Y372080D01*
X450776Y372256D01*
X450767Y372450D01*
Y372542D01*
X450776Y372598D01*
Y372681D01*
X450786Y372764D01*
X450823Y372968D01*
X450869Y373190D01*
X450943Y373402D01*
X451045Y373606D01*
X451109Y373698D01*
X451183Y373781D01*
X451193Y373791D01*
X451202Y373800D01*
X451230Y373818D01*
X451267Y373846D01*
X451322Y373874D01*
X451377Y373911D01*
X451461Y373948D01*
X451544Y373985D01*
X451646Y374022D01*
X451766Y374049D01*
X451904Y374086D01*
X452052Y374114D01*
X452219Y374142D01*
X452394Y374160D01*
X452598Y374179D01*
X452811D01*
X456509D01*
Y375029D01*
X452811D01*
X452801D01*
X452764D01*
X452718D01*
X452653D01*
X452570Y375020D01*
D02*
G37*
G36*
X457513Y553800D02*
X454712Y550000D01*
X455830D01*
X458105Y553227D01*
X459150Y552219D01*
Y550000D01*
X460000D01*
Y556398D01*
X459150D01*
Y553217D01*
X455988Y556398D01*
X454832D01*
X457513Y553800D01*
D02*
G37*
G36*
X451365Y550000D02*
X452151D01*
Y555002D01*
X452160Y554992D01*
X452206Y554955D01*
X452262Y554900D01*
X452354Y554835D01*
X452456Y554752D01*
X452585Y554660D01*
X452733Y554558D01*
X452900Y554456D01*
X452909D01*
X452918Y554447D01*
X452973Y554410D01*
X453066Y554364D01*
X453177Y554308D01*
X453306Y554244D01*
X453445Y554179D01*
X453584Y554114D01*
X453722Y554059D01*
Y554817D01*
X453713D01*
X453695Y554835D01*
X453658Y554845D01*
X453611Y554872D01*
X453556Y554900D01*
X453491Y554937D01*
X453334Y555029D01*
X453149Y555131D01*
X452964Y555261D01*
X452770Y555409D01*
X452576Y555566D01*
X452567Y555575D01*
X452557Y555584D01*
X452530Y555612D01*
X452493Y555640D01*
X452410Y555732D01*
X452299Y555843D01*
X452188Y555973D01*
X452067Y556120D01*
X451966Y556268D01*
X451873Y556426D01*
X451365D01*
Y550000D01*
D02*
G37*
G36*
X117975Y436533D02*
X117985D01*
X118003D01*
X118040D01*
X118096Y436524D01*
X118151Y436514D01*
X118216D01*
X118373Y436487D01*
X118539Y436459D01*
X118706Y436403D01*
X118854Y436348D01*
X118918Y436311D01*
X118974Y436265D01*
X118983Y436255D01*
X119011Y436218D01*
X119057Y436163D01*
X119103Y436089D01*
X119159Y435987D01*
X119196Y435876D01*
X119233Y435738D01*
X119242Y435590D01*
Y435534D01*
X119233Y435479D01*
X119223Y435396D01*
X119205Y435312D01*
X119186Y435220D01*
X119150Y435127D01*
X119103Y435035D01*
X119094Y435026D01*
X119075Y434998D01*
X119038Y434961D01*
X119002Y434906D01*
X118937Y434859D01*
X118872Y434804D01*
X118798Y434758D01*
X118706Y434721D01*
X118696D01*
X118659Y434702D01*
X118595Y434693D01*
X118511Y434674D01*
X118401Y434656D01*
X118262Y434647D01*
X118096Y434628D01*
X117901D01*
X113491D01*
Y433778D01*
X117855D01*
X117864D01*
X117892D01*
X117929D01*
X117985D01*
X118059Y433787D01*
X118132D01*
X118308Y433805D01*
X118511Y433824D01*
X118724Y433861D01*
X118918Y433916D01*
X119103Y433981D01*
X119113D01*
X119122Y433990D01*
X119177Y434018D01*
X119251Y434064D01*
X119353Y434129D01*
X119455Y434221D01*
X119565Y434323D01*
X119677Y434453D01*
X119769Y434600D01*
X119778Y434619D01*
X119806Y434674D01*
X119843Y434758D01*
X119880Y434878D01*
X119926Y435026D01*
X119963Y435192D01*
X119991Y435377D01*
X120000Y435580D01*
Y435664D01*
X119991Y435719D01*
X119982Y435793D01*
X119972Y435867D01*
X119935Y436061D01*
X119880Y436265D01*
X119797Y436477D01*
X119741Y436588D01*
X119677Y436690D01*
X119602Y436782D01*
X119519Y436875D01*
X119510Y436884D01*
X119501Y436893D01*
X119464Y436912D01*
X119427Y436940D01*
X119381Y436977D01*
X119316Y437014D01*
X119242Y437051D01*
X119159Y437097D01*
X119066Y437134D01*
X118955Y437171D01*
X118844Y437208D01*
X118715Y437245D01*
X118576Y437263D01*
X118419Y437291D01*
X118262Y437300D01*
X118086D01*
X117975Y436533D01*
D02*
G37*
G36*
X116727Y432742D02*
X116598D01*
X116450Y432733D01*
X116274Y432714D01*
X116080Y432696D01*
X115867Y432668D01*
X115655Y432631D01*
X115423Y432585D01*
X115202Y432529D01*
X114980Y432465D01*
X114767Y432382D01*
X114564Y432289D01*
X114369Y432187D01*
X114203Y432067D01*
X114194Y432058D01*
X114175Y432039D01*
X114138Y432002D01*
X114083Y431956D01*
X114027Y431901D01*
X113972Y431827D01*
X113898Y431734D01*
X113833Y431642D01*
X113769Y431531D01*
X113695Y431411D01*
X113639Y431272D01*
X113574Y431133D01*
X113528Y430976D01*
X113491Y430810D01*
X113473Y430634D01*
X113463Y430449D01*
Y430375D01*
X113473Y430320D01*
Y430255D01*
X113482Y430181D01*
X113519Y430005D01*
X113565Y429811D01*
X113639Y429608D01*
X113750Y429404D01*
X113815Y429303D01*
X113889Y429210D01*
X113898Y429201D01*
X113907Y429192D01*
X113935Y429164D01*
X113963Y429136D01*
X114009Y429090D01*
X114064Y429053D01*
X114194Y428951D01*
X114360Y428850D01*
X114564Y428757D01*
X114795Y428674D01*
X115054Y428619D01*
X115118Y429404D01*
X115109D01*
X115100Y429414D01*
X115044Y429423D01*
X114961Y429451D01*
X114860Y429488D01*
X114749Y429525D01*
X114638Y429580D01*
X114536Y429645D01*
X114453Y429710D01*
X114434Y429728D01*
X114397Y429765D01*
X114342Y429830D01*
X114277Y429922D01*
X114222Y430042D01*
X114166Y430172D01*
X114129Y430329D01*
X114111Y430495D01*
Y430560D01*
X114120Y430634D01*
X114138Y430717D01*
X114166Y430828D01*
X114203Y430939D01*
X114249Y431050D01*
X114323Y431161D01*
X114333Y431180D01*
X114369Y431226D01*
X114434Y431291D01*
X114527Y431374D01*
X114638Y431466D01*
X114767Y431568D01*
X114934Y431660D01*
X115118Y431753D01*
X115128D01*
X115146Y431762D01*
X115174Y431771D01*
X115211Y431790D01*
X115266Y431799D01*
X115331Y431818D01*
X115405Y431836D01*
X115498Y431855D01*
X115599Y431882D01*
X115710Y431901D01*
X115830Y431919D01*
X115960Y431928D01*
X116108Y431947D01*
X116256Y431956D01*
X116422Y431965D01*
X116588D01*
X116579Y431956D01*
X116524Y431919D01*
X116450Y431855D01*
X116357Y431771D01*
X116246Y431679D01*
X116145Y431559D01*
X116043Y431429D01*
X115950Y431281D01*
Y431272D01*
X115941Y431263D01*
X115913Y431207D01*
X115886Y431124D01*
X115840Y431013D01*
X115803Y430884D01*
X115775Y430736D01*
X115747Y430579D01*
X115738Y430412D01*
Y430338D01*
X115747Y430283D01*
X115756Y430209D01*
X115766Y430135D01*
X115784Y430042D01*
X115812Y429950D01*
X115877Y429737D01*
X115923Y429626D01*
X115988Y429515D01*
X116052Y429404D01*
X116126Y429284D01*
X116219Y429173D01*
X116320Y429072D01*
X116330Y429062D01*
X116348Y429044D01*
X116376Y429016D01*
X116422Y428988D01*
X116487Y428942D01*
X116552Y428896D01*
X116635Y428850D01*
X116727Y428794D01*
X116829Y428739D01*
X116940Y428693D01*
X117069Y428646D01*
X117199Y428600D01*
X117337Y428572D01*
X117494Y428545D01*
X117652Y428526D01*
X117818Y428517D01*
X117827D01*
X117846D01*
X117874D01*
X117920D01*
X117975Y428526D01*
X118031D01*
X118179Y428554D01*
X118354Y428582D01*
X118539Y428628D01*
X118743Y428693D01*
X118937Y428785D01*
X118946D01*
X118955Y428794D01*
X118983Y428813D01*
X119020Y428831D01*
X119113Y428887D01*
X119233Y428970D01*
X119362Y429072D01*
X119492Y429192D01*
X119621Y429340D01*
X119732Y429497D01*
Y429506D01*
X119741Y429515D01*
X119760Y429543D01*
X119769Y429580D01*
X119815Y429673D01*
X119861Y429793D01*
X119917Y429950D01*
X119954Y430126D01*
X119991Y430320D01*
X120000Y430532D01*
Y430579D01*
X119991Y430625D01*
Y430699D01*
X119982Y430782D01*
X119963Y430874D01*
X119935Y430985D01*
X119908Y431096D01*
X119871Y431226D01*
X119824Y431355D01*
X119769Y431485D01*
X119695Y431623D01*
X119612Y431753D01*
X119519Y431882D01*
X119408Y432012D01*
X119279Y432132D01*
X119270Y432141D01*
X119242Y432160D01*
X119205Y432187D01*
X119140Y432224D01*
X119057Y432280D01*
X118965Y432326D01*
X118844Y432382D01*
X118715Y432437D01*
X118558Y432502D01*
X118382Y432557D01*
X118188Y432603D01*
X117975Y432650D01*
X117735Y432696D01*
X117476Y432724D01*
X117199Y432742D01*
X116903Y432751D01*
X116894D01*
X116884D01*
X116857D01*
X116820D01*
X116727Y432742D01*
D02*
G37*
G36*
X379178Y252145D02*
Y252136D01*
Y252108D01*
Y252071D01*
Y252015D01*
X379187Y251941D01*
Y251868D01*
X379205Y251692D01*
X379224Y251488D01*
X379261Y251276D01*
X379316Y251082D01*
X379381Y250897D01*
Y250887D01*
X379390Y250878D01*
X379418Y250823D01*
X379464Y250749D01*
X379529Y250647D01*
X379621Y250545D01*
X379723Y250434D01*
X379852Y250324D01*
X380000Y250231D01*
X380019Y250222D01*
X380074Y250194D01*
X380158Y250157D01*
X380278Y250120D01*
X380426Y250074D01*
X380592Y250037D01*
X380777Y250009D01*
X380980Y250000D01*
X381064D01*
X381119Y250009D01*
X381193Y250018D01*
X381267Y250028D01*
X381461Y250065D01*
X381665Y250120D01*
X381877Y250203D01*
X381988Y250259D01*
X382090Y250324D01*
X382182Y250397D01*
X382275Y250481D01*
X382284Y250490D01*
X382293Y250499D01*
X382312Y250536D01*
X382340Y250573D01*
X382377Y250619D01*
X382413Y250684D01*
X382450Y250758D01*
X382497Y250841D01*
X382534Y250934D01*
X382571Y251045D01*
X382608Y251156D01*
X382645Y251285D01*
X382663Y251424D01*
X382691Y251581D01*
X382700Y251738D01*
Y251914D01*
X381933Y252025D01*
Y252015D01*
Y251997D01*
Y251960D01*
X381923Y251904D01*
X381914Y251849D01*
Y251784D01*
X381886Y251627D01*
X381859Y251461D01*
X381803Y251294D01*
X381748Y251146D01*
X381711Y251082D01*
X381665Y251026D01*
X381655Y251017D01*
X381618Y250989D01*
X381563Y250943D01*
X381489Y250897D01*
X381387Y250841D01*
X381276Y250804D01*
X381138Y250767D01*
X380990Y250758D01*
X380934D01*
X380879Y250767D01*
X380796Y250777D01*
X380712Y250795D01*
X380620Y250814D01*
X380527Y250851D01*
X380435Y250897D01*
X380426Y250906D01*
X380398Y250924D01*
X380361Y250961D01*
X380305Y250998D01*
X380259Y251063D01*
X380204Y251128D01*
X380158Y251202D01*
X380121Y251294D01*
Y251304D01*
X380102Y251341D01*
X380093Y251405D01*
X380074Y251488D01*
X380056Y251599D01*
X380047Y251738D01*
X380028Y251904D01*
Y252099D01*
Y256509D01*
X379178D01*
Y252145D01*
D02*
G37*
G36*
X375156Y250111D02*
X375942D01*
Y255113D01*
X375951Y255103D01*
X375997Y255066D01*
X376053Y255011D01*
X376145Y254946D01*
X376247Y254863D01*
X376376Y254771D01*
X376524Y254669D01*
X376690Y254567D01*
X376700D01*
X376709Y254558D01*
X376764Y254521D01*
X376857Y254475D01*
X376968Y254419D01*
X377097Y254354D01*
X377236Y254290D01*
X377375Y254225D01*
X377513Y254170D01*
Y254928D01*
X377504D01*
X377486Y254946D01*
X377449Y254956D01*
X377402Y254983D01*
X377347Y255011D01*
X377282Y255048D01*
X377125Y255140D01*
X376940Y255242D01*
X376755Y255371D01*
X376561Y255520D01*
X376367Y255677D01*
X376358Y255686D01*
X376348Y255695D01*
X376321Y255723D01*
X376284Y255751D01*
X376200Y255843D01*
X376090Y255954D01*
X375979Y256084D01*
X375858Y256231D01*
X375757Y256379D01*
X375664Y256537D01*
X375156D01*
Y250111D01*
D02*
G37*
G36*
X613602Y557541D02*
X613611Y557374D01*
X613621Y557189D01*
X613639Y557005D01*
X613667Y556820D01*
X613695Y556662D01*
Y556653D01*
X613704Y556635D01*
Y556607D01*
X613722Y556570D01*
X613750Y556468D01*
X613796Y556339D01*
X613861Y556191D01*
X613944Y556034D01*
X614037Y555877D01*
X614157Y555729D01*
X614166Y555719D01*
X614175Y555710D01*
X614203Y555682D01*
X614231Y555645D01*
X614323Y555553D01*
X614453Y555442D01*
X614610Y555322D01*
X614795Y555192D01*
X615008Y555072D01*
X615248Y554971D01*
X615257D01*
X615276Y554961D01*
X615313Y554943D01*
X615368Y554934D01*
X615433Y554906D01*
X615507Y554887D01*
X615590Y554869D01*
X615692Y554841D01*
X615793Y554813D01*
X615914Y554795D01*
X616172Y554749D01*
X616459Y554721D01*
X616773Y554712D01*
X616783D01*
X616801D01*
X616847D01*
X616894D01*
X616958Y554721D01*
X617032D01*
X617208Y554730D01*
X617411Y554758D01*
X617624Y554786D01*
X617846Y554832D01*
X618068Y554887D01*
X618077D01*
X618096Y554897D01*
X618123Y554906D01*
X618160Y554915D01*
X618262Y554952D01*
X618391Y555007D01*
X618539Y555063D01*
X618687Y555137D01*
X618844Y555229D01*
X618992Y555322D01*
X619011Y555331D01*
X619057Y555368D01*
X619122Y555424D01*
X619205Y555498D01*
X619297Y555581D01*
X619390Y555682D01*
X619492Y555784D01*
X619575Y555904D01*
X619584Y555923D01*
X619612Y555960D01*
X619649Y556025D01*
X619695Y556117D01*
X619750Y556228D01*
X619797Y556357D01*
X619852Y556505D01*
X619898Y556672D01*
Y556690D01*
X619908Y556718D01*
X619917Y556746D01*
X619926Y556838D01*
X619945Y556968D01*
X619963Y557115D01*
X619982Y557291D01*
X619991Y557485D01*
X620000Y557698D01*
Y560000D01*
X613602D01*
Y557541D01*
D02*
G37*
G36*
X615183Y553260D02*
X615165Y553242D01*
X615155Y553205D01*
X615128Y553158D01*
X615100Y553103D01*
X615063Y553038D01*
X614971Y552881D01*
X614869Y552696D01*
X614739Y552511D01*
X614591Y552317D01*
X614434Y552123D01*
X614425Y552114D01*
X614416Y552104D01*
X614388Y552077D01*
X614360Y552040D01*
X614268Y551956D01*
X614157Y551846D01*
X614027Y551735D01*
X613880Y551614D01*
X613732Y551513D01*
X613574Y551420D01*
Y550912D01*
X620000D01*
Y551698D01*
X614998D01*
X615008Y551707D01*
X615044Y551753D01*
X615100Y551809D01*
X615165Y551901D01*
X615248Y552003D01*
X615340Y552132D01*
X615442Y552280D01*
X615544Y552446D01*
Y552456D01*
X615553Y552465D01*
X615590Y552520D01*
X615636Y552613D01*
X615692Y552724D01*
X615756Y552853D01*
X615821Y552992D01*
X615886Y553131D01*
X615941Y553269D01*
X615183D01*
Y553260D01*
D02*
G37*
G36*
X271646Y607886D02*
X270111D01*
Y607100D01*
X271646D01*
Y604318D01*
X272367D01*
X276509Y607248D01*
Y607886D01*
X272367D01*
Y608755D01*
X271646D01*
Y607886D01*
D02*
G37*
G36*
X271941Y603513D02*
X271868D01*
X271692Y603495D01*
X271488Y603476D01*
X271276Y603439D01*
X271082Y603384D01*
X270897Y603319D01*
X270887D01*
X270878Y603310D01*
X270823Y603282D01*
X270749Y603236D01*
X270647Y603171D01*
X270545Y603079D01*
X270434Y602977D01*
X270323Y602848D01*
X270231Y602700D01*
X270222Y602681D01*
X270194Y602626D01*
X270157Y602542D01*
X270120Y602422D01*
X270074Y602274D01*
X270037Y602108D01*
X270009Y601923D01*
X270000Y601720D01*
Y601636D01*
X270009Y601581D01*
X270018Y601507D01*
X270028Y601433D01*
X270065Y601239D01*
X270120Y601035D01*
X270203Y600823D01*
X270259Y600712D01*
X270323Y600610D01*
X270397Y600518D01*
X270481Y600425D01*
X270490Y600416D01*
X270499Y600407D01*
X270536Y600388D01*
X270573Y600360D01*
X270619Y600323D01*
X270684Y600286D01*
X270758Y600249D01*
X270841Y600203D01*
X270934Y600166D01*
X271045Y600129D01*
X271155Y600092D01*
X271285Y600055D01*
X271424Y600037D01*
X271581Y600009D01*
X271738Y600000D01*
X271914D01*
X272025Y600767D01*
X272015D01*
X271997D01*
X271960D01*
X271904Y600776D01*
X271849Y600786D01*
X271784D01*
X271627Y600813D01*
X271461Y600841D01*
X271294Y600897D01*
X271146Y600952D01*
X271082Y600989D01*
X271026Y601035D01*
X271017Y601045D01*
X270989Y601082D01*
X270943Y601137D01*
X270897Y601211D01*
X270841Y601313D01*
X270804Y601424D01*
X270767Y601562D01*
X270758Y601710D01*
Y601766D01*
X270767Y601821D01*
X270777Y601904D01*
X270795Y601988D01*
X270814Y602080D01*
X270850Y602173D01*
X270897Y602265D01*
X270906Y602274D01*
X270924Y602302D01*
X270961Y602339D01*
X270998Y602394D01*
X271063Y602441D01*
X271128Y602496D01*
X271202Y602542D01*
X271294Y602579D01*
X271304D01*
X271341Y602598D01*
X271405Y602607D01*
X271488Y602626D01*
X271599Y602644D01*
X271738Y602653D01*
X271904Y602672D01*
X272099D01*
X276509D01*
Y603522D01*
X272145D01*
X272136D01*
X272108D01*
X272071D01*
X272015D01*
X271941Y603513D01*
D02*
G37*
G36*
X289177Y502145D02*
Y502136D01*
Y502108D01*
Y502071D01*
Y502015D01*
X289187Y501941D01*
Y501867D01*
X289205Y501692D01*
X289224Y501488D01*
X289261Y501276D01*
X289316Y501082D01*
X289381Y500897D01*
Y500887D01*
X289390Y500878D01*
X289418Y500823D01*
X289464Y500749D01*
X289529Y500647D01*
X289621Y500545D01*
X289723Y500434D01*
X289853Y500323D01*
X290000Y500231D01*
X290019Y500222D01*
X290074Y500194D01*
X290158Y500157D01*
X290278Y500120D01*
X290426Y500074D01*
X290592Y500037D01*
X290777Y500009D01*
X290980Y500000D01*
X291064D01*
X291119Y500009D01*
X291193Y500018D01*
X291267Y500028D01*
X291461Y500065D01*
X291665Y500120D01*
X291877Y500203D01*
X291988Y500259D01*
X292090Y500323D01*
X292182Y500397D01*
X292275Y500481D01*
X292284Y500490D01*
X292293Y500499D01*
X292312Y500536D01*
X292339Y500573D01*
X292376Y500619D01*
X292414Y500684D01*
X292451Y500758D01*
X292497Y500841D01*
X292534Y500934D01*
X292571Y501045D01*
X292608Y501156D01*
X292645Y501285D01*
X292663Y501424D01*
X292691Y501581D01*
X292700Y501738D01*
Y501914D01*
X291933Y502025D01*
Y502015D01*
Y501997D01*
Y501960D01*
X291924Y501904D01*
X291914Y501849D01*
Y501784D01*
X291887Y501627D01*
X291859Y501461D01*
X291803Y501294D01*
X291748Y501146D01*
X291711Y501082D01*
X291665Y501026D01*
X291655Y501017D01*
X291618Y500989D01*
X291563Y500943D01*
X291489Y500897D01*
X291387Y500841D01*
X291276Y500804D01*
X291138Y500767D01*
X290990Y500758D01*
X290934D01*
X290879Y500767D01*
X290795Y500776D01*
X290712Y500795D01*
X290620Y500813D01*
X290527Y500850D01*
X290435Y500897D01*
X290426Y500906D01*
X290398Y500924D01*
X290361Y500961D01*
X290306Y500998D01*
X290259Y501063D01*
X290204Y501128D01*
X290158Y501202D01*
X290121Y501294D01*
Y501303D01*
X290102Y501340D01*
X290093Y501405D01*
X290074Y501488D01*
X290056Y501599D01*
X290047Y501738D01*
X290028Y501904D01*
Y502099D01*
Y506509D01*
X289177D01*
Y502145D01*
D02*
G37*
G36*
X285840Y506527D02*
X285766Y506518D01*
X285673Y506509D01*
X285572Y506490D01*
X285470Y506472D01*
X285230Y506407D01*
X284989Y506315D01*
X284869Y506259D01*
X284749Y506194D01*
X284638Y506111D01*
X284536Y506019D01*
X284527Y506009D01*
X284508Y506000D01*
X284490Y505963D01*
X284453Y505926D01*
X284407Y505880D01*
X284361Y505815D01*
X284314Y505751D01*
X284259Y505667D01*
X284166Y505492D01*
X284074Y505270D01*
X284037Y505159D01*
X284018Y505029D01*
X284000Y504900D01*
X283991Y504761D01*
Y504743D01*
Y504697D01*
X284000Y504623D01*
X284009Y504521D01*
X284028Y504410D01*
X284065Y504281D01*
X284102Y504142D01*
X284157Y504003D01*
X284166Y503985D01*
X284185Y503938D01*
X284222Y503865D01*
X284277Y503763D01*
X284351Y503652D01*
X284444Y503513D01*
X284555Y503374D01*
X284684Y503217D01*
X284703Y503199D01*
X284749Y503143D01*
X284795Y503097D01*
X284841Y503051D01*
X284897Y502995D01*
X284971Y502921D01*
X285045Y502848D01*
X285137Y502764D01*
X285230Y502672D01*
X285341Y502570D01*
X285461Y502468D01*
X285590Y502348D01*
X285738Y502228D01*
X285886Y502099D01*
X285895Y502089D01*
X285914Y502071D01*
X285951Y502043D01*
X285997Y502006D01*
X286052Y501951D01*
X286117Y501895D01*
X286265Y501775D01*
X286422Y501636D01*
X286570Y501498D01*
X286700Y501377D01*
X286755Y501331D01*
X286801Y501285D01*
X286811Y501276D01*
X286838Y501248D01*
X286875Y501211D01*
X286922Y501156D01*
X286968Y501091D01*
X287023Y501026D01*
X287134Y500869D01*
X283981D01*
Y500111D01*
X288225D01*
Y500120D01*
Y500157D01*
Y500213D01*
X288216Y500286D01*
X288207Y500370D01*
X288188Y500462D01*
X288170Y500555D01*
X288133Y500656D01*
Y500666D01*
X288123Y500675D01*
X288105Y500730D01*
X288068Y500813D01*
X288013Y500924D01*
X287939Y501054D01*
X287846Y501202D01*
X287745Y501350D01*
X287615Y501507D01*
Y501516D01*
X287596Y501525D01*
X287550Y501581D01*
X287467Y501664D01*
X287347Y501784D01*
X287208Y501923D01*
X287033Y502089D01*
X286820Y502274D01*
X286589Y502468D01*
X286579Y502478D01*
X286542Y502505D01*
X286487Y502552D01*
X286422Y502607D01*
X286339Y502681D01*
X286237Y502764D01*
X286136Y502857D01*
X286015Y502958D01*
X285784Y503180D01*
X285553Y503402D01*
X285442Y503513D01*
X285341Y503624D01*
X285248Y503726D01*
X285174Y503828D01*
Y503837D01*
X285156Y503846D01*
X285137Y503874D01*
X285119Y503911D01*
X285054Y504012D01*
X284980Y504133D01*
X284915Y504281D01*
X284851Y504438D01*
X284814Y504613D01*
X284795Y504780D01*
Y504789D01*
Y504798D01*
X284804Y504854D01*
X284814Y504946D01*
X284841Y505048D01*
X284878Y505177D01*
X284943Y505307D01*
X285026Y505436D01*
X285137Y505566D01*
X285156Y505584D01*
X285202Y505621D01*
X285267Y505667D01*
X285368Y505732D01*
X285498Y505788D01*
X285646Y505843D01*
X285821Y505880D01*
X286015Y505889D01*
X286071D01*
X286108Y505880D01*
X286219Y505871D01*
X286348Y505843D01*
X286487Y505806D01*
X286644Y505741D01*
X286792Y505658D01*
X286931Y505547D01*
X286949Y505529D01*
X286986Y505482D01*
X287042Y505409D01*
X287097Y505298D01*
X287162Y505168D01*
X287218Y505002D01*
X287254Y504817D01*
X287273Y504604D01*
X288077Y504687D01*
Y504697D01*
X288068Y504724D01*
Y504771D01*
X288059Y504835D01*
X288040Y504909D01*
X288022Y504992D01*
X287994Y505094D01*
X287966Y505196D01*
X287892Y505418D01*
X287781Y505640D01*
X287717Y505751D01*
X287633Y505862D01*
X287550Y505963D01*
X287458Y506056D01*
X287449Y506065D01*
X287430Y506074D01*
X287402Y506102D01*
X287356Y506130D01*
X287301Y506167D01*
X287236Y506204D01*
X287162Y506250D01*
X287069Y506296D01*
X286968Y506342D01*
X286857Y506389D01*
X286737Y506426D01*
X286607Y506463D01*
X286469Y506490D01*
X286321Y506518D01*
X286164Y506527D01*
X285997Y506536D01*
X285905D01*
X285840Y506527D01*
D02*
G37*
G36*
X620111Y138552D02*
X625113D01*
X625103Y138543D01*
X625066Y138497D01*
X625011Y138441D01*
X624946Y138349D01*
X624863Y138247D01*
X624771Y138118D01*
X624669Y137970D01*
X624567Y137803D01*
Y137794D01*
X624558Y137785D01*
X624521Y137729D01*
X624475Y137637D01*
X624419Y137526D01*
X624355Y137396D01*
X624290Y137258D01*
X624225Y137119D01*
X624170Y136980D01*
X624928D01*
Y136989D01*
X624946Y137008D01*
X624955Y137045D01*
X624983Y137091D01*
X625011Y137147D01*
X625048Y137211D01*
X625140Y137369D01*
X625242Y137554D01*
X625372Y137738D01*
X625519Y137933D01*
X625677Y138127D01*
X625686Y138136D01*
X625695Y138145D01*
X625723Y138173D01*
X625751Y138210D01*
X625843Y138293D01*
X625954Y138404D01*
X626083Y138515D01*
X626231Y138635D01*
X626379Y138737D01*
X626536Y138829D01*
Y139338D01*
X620111D01*
Y138552D01*
D02*
G37*
G36*
X622089Y135649D02*
X622034Y135630D01*
X621960Y135603D01*
X621877Y135575D01*
X621775Y135538D01*
X621664Y135492D01*
X621544Y135436D01*
X621285Y135307D01*
X621026Y135140D01*
X620897Y135039D01*
X620767Y134937D01*
X620656Y134826D01*
X620545Y134697D01*
X620536Y134687D01*
X620518Y134669D01*
X620499Y134623D01*
X620462Y134576D01*
X620416Y134502D01*
X620370Y134429D01*
X620323Y134327D01*
X620277Y134225D01*
X620222Y134105D01*
X620176Y133975D01*
X620129Y133837D01*
X620083Y133689D01*
X620046Y133532D01*
X620028Y133365D01*
X620009Y133190D01*
X620000Y133005D01*
Y132903D01*
X620009Y132829D01*
Y132746D01*
X620018Y132644D01*
X620037Y132533D01*
X620055Y132404D01*
X620102Y132136D01*
X620176Y131858D01*
X620277Y131581D01*
X620342Y131451D01*
X620416Y131322D01*
X620425Y131313D01*
X620434Y131294D01*
X620462Y131257D01*
X620499Y131220D01*
X620536Y131165D01*
X620592Y131100D01*
X620656Y131026D01*
X620730Y130952D01*
X620813Y130878D01*
X620897Y130795D01*
X621109Y130629D01*
X621359Y130471D01*
X621636Y130333D01*
X621646D01*
X621673Y130314D01*
X621720Y130305D01*
X621775Y130277D01*
X621849Y130259D01*
X621941Y130231D01*
X622043Y130194D01*
X622154Y130166D01*
X622274Y130139D01*
X622413Y130102D01*
X622700Y130055D01*
X623023Y130018D01*
X623356Y130000D01*
X623365D01*
X623402D01*
X623458D01*
X623522Y130009D01*
X623615D01*
X623707Y130018D01*
X623828Y130028D01*
X623948Y130046D01*
X624216Y130092D01*
X624512Y130157D01*
X624808Y130250D01*
X625094Y130379D01*
X625103Y130388D01*
X625131Y130397D01*
X625168Y130416D01*
X625214Y130453D01*
X625279Y130490D01*
X625353Y130536D01*
X625519Y130656D01*
X625704Y130814D01*
X625889Y130998D01*
X626074Y131211D01*
X626231Y131461D01*
X626241Y131470D01*
X626250Y131498D01*
X626268Y131535D01*
X626296Y131581D01*
X626324Y131655D01*
X626352Y131729D01*
X626389Y131821D01*
X626426Y131923D01*
X626463Y132034D01*
X626499Y132154D01*
X626555Y132413D01*
X626601Y132709D01*
X626620Y133014D01*
Y133106D01*
X626610Y133171D01*
X626601Y133254D01*
X626592Y133356D01*
X626583Y133458D01*
X626555Y133578D01*
X626499Y133827D01*
X626416Y134105D01*
X626361Y134244D01*
X626296Y134373D01*
X626213Y134502D01*
X626130Y134632D01*
X626120Y134641D01*
X626111Y134660D01*
X626083Y134697D01*
X626037Y134743D01*
X625991Y134789D01*
X625926Y134854D01*
X625852Y134918D01*
X625778Y134993D01*
X625686Y135066D01*
X625575Y135140D01*
X625464Y135224D01*
X625344Y135298D01*
X625205Y135362D01*
X625066Y135436D01*
X624919Y135492D01*
X624752Y135547D01*
X624558Y134715D01*
X624567D01*
X624586Y134706D01*
X624623Y134687D01*
X624669Y134669D01*
X624724Y134650D01*
X624798Y134623D01*
X624946Y134549D01*
X625113Y134456D01*
X625279Y134345D01*
X625436Y134207D01*
X625575Y134059D01*
X625593Y134040D01*
X625630Y133985D01*
X625677Y133892D01*
X625741Y133772D01*
X625797Y133615D01*
X625852Y133439D01*
X625889Y133227D01*
X625899Y132995D01*
Y132921D01*
X625889Y132875D01*
Y132810D01*
X625880Y132737D01*
X625852Y132561D01*
X625815Y132367D01*
X625751Y132163D01*
X625658Y131951D01*
X625538Y131756D01*
Y131747D01*
X625519Y131738D01*
X625473Y131673D01*
X625399Y131590D01*
X625288Y131488D01*
X625150Y131368D01*
X624992Y131257D01*
X624798Y131156D01*
X624586Y131063D01*
X624576D01*
X624558Y131054D01*
X624530Y131045D01*
X624484Y131035D01*
X624428Y131017D01*
X624364Y130998D01*
X624207Y130971D01*
X624022Y130934D01*
X623818Y130897D01*
X623596Y130878D01*
X623356Y130869D01*
X623347D01*
X623319D01*
X623273D01*
X623217D01*
X623153Y130878D01*
X623069D01*
X622977Y130887D01*
X622875Y130897D01*
X622653Y130924D01*
X622413Y130971D01*
X622173Y131026D01*
X621932Y131100D01*
X621923D01*
X621904Y131109D01*
X621877Y131128D01*
X621830Y131146D01*
X621720Y131202D01*
X621590Y131285D01*
X621442Y131387D01*
X621285Y131516D01*
X621146Y131664D01*
X621017Y131840D01*
Y131849D01*
X621008Y131868D01*
X620989Y131895D01*
X620971Y131932D01*
X620952Y131978D01*
X620924Y132034D01*
X620869Y132163D01*
X620813Y132330D01*
X620767Y132515D01*
X620730Y132718D01*
X620721Y132931D01*
Y132995D01*
X620730Y133051D01*
Y133116D01*
X620740Y133180D01*
X620776Y133347D01*
X620823Y133541D01*
X620897Y133735D01*
X620998Y133939D01*
X621054Y134040D01*
X621128Y134133D01*
X621137Y134142D01*
X621146Y134151D01*
X621174Y134179D01*
X621202Y134216D01*
X621248Y134253D01*
X621303Y134299D01*
X621359Y134354D01*
X621433Y134401D01*
X621516Y134456D01*
X621609Y134521D01*
X621701Y134576D01*
X621812Y134632D01*
X621932Y134678D01*
X622062Y134724D01*
X622200Y134771D01*
X622348Y134808D01*
X622136Y135658D01*
X622126D01*
X622089Y135649D01*
D02*
G37*
G36*
X193778Y502145D02*
Y502136D01*
Y502108D01*
Y502071D01*
Y502015D01*
X193787Y501941D01*
Y501867D01*
X193805Y501692D01*
X193824Y501488D01*
X193861Y501276D01*
X193916Y501082D01*
X193981Y500897D01*
Y500887D01*
X193990Y500878D01*
X194018Y500823D01*
X194064Y500749D01*
X194129Y500647D01*
X194221Y500545D01*
X194323Y500434D01*
X194452Y500323D01*
X194600Y500231D01*
X194619Y500222D01*
X194674Y500194D01*
X194757Y500157D01*
X194878Y500120D01*
X195026Y500074D01*
X195192Y500037D01*
X195377Y500009D01*
X195580Y500000D01*
X195664D01*
X195719Y500009D01*
X195793Y500018D01*
X195867Y500028D01*
X196061Y500065D01*
X196265Y500120D01*
X196477Y500203D01*
X196588Y500259D01*
X196690Y500323D01*
X196782Y500397D01*
X196875Y500481D01*
X196884Y500490D01*
X196893Y500499D01*
X196912Y500536D01*
X196940Y500573D01*
X196977Y500619D01*
X197013Y500684D01*
X197050Y500758D01*
X197097Y500841D01*
X197134Y500934D01*
X197171Y501045D01*
X197208Y501156D01*
X197245Y501285D01*
X197263Y501424D01*
X197291Y501581D01*
X197300Y501738D01*
Y501914D01*
X196533Y502025D01*
Y502015D01*
Y501997D01*
Y501960D01*
X196523Y501904D01*
X196514Y501849D01*
Y501784D01*
X196486Y501627D01*
X196459Y501461D01*
X196403Y501294D01*
X196348Y501146D01*
X196311Y501082D01*
X196265Y501026D01*
X196255Y501017D01*
X196218Y500989D01*
X196163Y500943D01*
X196089Y500897D01*
X195987Y500841D01*
X195876Y500804D01*
X195738Y500767D01*
X195590Y500758D01*
X195534D01*
X195479Y500767D01*
X195396Y500776D01*
X195312Y500795D01*
X195220Y500813D01*
X195127Y500850D01*
X195035Y500897D01*
X195026Y500906D01*
X194998Y500924D01*
X194961Y500961D01*
X194905Y500998D01*
X194859Y501063D01*
X194804Y501128D01*
X194757Y501202D01*
X194721Y501294D01*
Y501303D01*
X194702Y501340D01*
X194693Y501405D01*
X194674Y501488D01*
X194656Y501599D01*
X194647Y501738D01*
X194628Y501904D01*
Y502099D01*
Y506509D01*
X193778D01*
Y502145D01*
D02*
G37*
G36*
X188776Y505677D02*
X191337D01*
X191679Y503948D01*
X191670Y503957D01*
X191651Y503966D01*
X191623Y503985D01*
X191577Y504012D01*
X191522Y504040D01*
X191457Y504077D01*
X191309Y504151D01*
X191124Y504225D01*
X190921Y504290D01*
X190699Y504336D01*
X190588Y504355D01*
X190384D01*
X190329Y504345D01*
X190255Y504336D01*
X190172Y504327D01*
X190079Y504308D01*
X189978Y504281D01*
X189756Y504216D01*
X189636Y504170D01*
X189515Y504105D01*
X189395Y504040D01*
X189275Y503966D01*
X189164Y503874D01*
X189053Y503772D01*
X189044Y503763D01*
X189025Y503744D01*
X188997Y503717D01*
X188961Y503670D01*
X188914Y503606D01*
X188868Y503541D01*
X188813Y503458D01*
X188757Y503365D01*
X188711Y503264D01*
X188655Y503153D01*
X188609Y503023D01*
X188563Y502894D01*
X188526Y502755D01*
X188498Y502598D01*
X188480Y502441D01*
X188470Y502274D01*
Y502265D01*
Y502237D01*
Y502191D01*
X188480Y502126D01*
X188489Y502052D01*
X188498Y501969D01*
X188517Y501867D01*
X188535Y501766D01*
X188591Y501525D01*
X188683Y501276D01*
X188739Y501146D01*
X188813Y501026D01*
X188887Y500897D01*
X188979Y500776D01*
X188988Y500767D01*
X189007Y500740D01*
X189044Y500703D01*
X189090Y500656D01*
X189155Y500601D01*
X189229Y500527D01*
X189321Y500462D01*
X189423Y500388D01*
X189534Y500314D01*
X189663Y500249D01*
X189802Y500185D01*
X189950Y500120D01*
X190107Y500074D01*
X190283Y500037D01*
X190468Y500009D01*
X190662Y500000D01*
X190745D01*
X190810Y500009D01*
X190884Y500018D01*
X190967Y500028D01*
X191069Y500037D01*
X191170Y500065D01*
X191401Y500120D01*
X191632Y500203D01*
X191753Y500259D01*
X191873Y500323D01*
X191984Y500397D01*
X192095Y500481D01*
X192104Y500490D01*
X192123Y500499D01*
X192141Y500536D01*
X192178Y500573D01*
X192224Y500619D01*
X192271Y500675D01*
X192326Y500749D01*
X192372Y500832D01*
X192428Y500915D01*
X192483Y501017D01*
X192585Y501239D01*
X192668Y501498D01*
X192696Y501636D01*
X192714Y501784D01*
X191891Y501849D01*
Y501840D01*
Y501821D01*
X191882Y501794D01*
X191873Y501747D01*
X191845Y501646D01*
X191808Y501507D01*
X191753Y501368D01*
X191679Y501211D01*
X191586Y501072D01*
X191475Y500943D01*
X191457Y500934D01*
X191420Y500897D01*
X191346Y500850D01*
X191244Y500795D01*
X191133Y500740D01*
X190995Y500693D01*
X190837Y500656D01*
X190662Y500647D01*
X190606D01*
X190569Y500656D01*
X190458Y500666D01*
X190329Y500703D01*
X190172Y500749D01*
X190015Y500823D01*
X189848Y500934D01*
X189774Y500998D01*
X189700Y501072D01*
X189691Y501082D01*
X189682Y501091D01*
X189663Y501119D01*
X189636Y501146D01*
X189571Y501248D01*
X189497Y501377D01*
X189432Y501535D01*
X189367Y501729D01*
X189321Y501960D01*
X189303Y502080D01*
Y502210D01*
Y502219D01*
Y502237D01*
Y502274D01*
X189312Y502321D01*
Y502376D01*
X189321Y502441D01*
X189349Y502589D01*
X189395Y502764D01*
X189460Y502940D01*
X189552Y503106D01*
X189682Y503264D01*
Y503273D01*
X189700Y503282D01*
X189746Y503328D01*
X189830Y503393D01*
X189941Y503467D01*
X190089Y503532D01*
X190255Y503596D01*
X190449Y503643D01*
X190560Y503661D01*
X190736D01*
X190810Y503652D01*
X190902Y503643D01*
X191013Y503615D01*
X191124Y503587D01*
X191244Y503541D01*
X191364Y503485D01*
X191374Y503476D01*
X191411Y503458D01*
X191466Y503411D01*
X191540Y503365D01*
X191614Y503301D01*
X191688Y503217D01*
X191771Y503134D01*
X191836Y503032D01*
X192576Y503134D01*
X191956Y506426D01*
X188776D01*
Y505677D01*
D02*
G37*
%LPC*%
G36*
X117818Y431845D02*
X117837D01*
X117883D01*
X117966Y431836D01*
X118068Y431827D01*
X118188Y431808D01*
X118317Y431771D01*
X118456Y431734D01*
X118595Y431679D01*
X118613Y431670D01*
X118659Y431642D01*
X118724Y431605D01*
X118807Y431549D01*
X118891Y431485D01*
X118992Y431401D01*
X119075Y431309D01*
X119159Y431198D01*
X119168Y431180D01*
X119186Y431143D01*
X119223Y431078D01*
X119251Y430995D01*
X119288Y430902D01*
X119325Y430791D01*
X119344Y430671D01*
X119353Y430542D01*
Y430495D01*
X119344Y430458D01*
X119334Y430366D01*
X119307Y430246D01*
X119251Y430116D01*
X119186Y429968D01*
X119085Y429820D01*
X119029Y429747D01*
X118955Y429682D01*
X118946D01*
X118937Y429663D01*
X118881Y429626D01*
X118789Y429571D01*
X118669Y429497D01*
X118511Y429432D01*
X118327Y429377D01*
X118114Y429340D01*
X117864Y429321D01*
X117855D01*
X117837D01*
X117800D01*
X117753Y429330D01*
X117698D01*
X117633Y429340D01*
X117485Y429367D01*
X117319Y429404D01*
X117143Y429469D01*
X116977Y429562D01*
X116820Y429682D01*
X116801Y429700D01*
X116755Y429747D01*
X116699Y429820D01*
X116625Y429922D01*
X116552Y430052D01*
X116496Y430200D01*
X116450Y430375D01*
X116431Y430569D01*
Y430625D01*
X116440Y430662D01*
X116450Y430754D01*
X116477Y430884D01*
X116524Y431022D01*
X116598Y431180D01*
X116690Y431328D01*
X116820Y431475D01*
X116838Y431494D01*
X116884Y431531D01*
X116967Y431596D01*
X117088Y431660D01*
X117226Y431725D01*
X117402Y431790D01*
X117596Y431827D01*
X117818Y431845D01*
D02*
G37*
G36*
X614360Y559150D02*
X619242D01*
Y557633D01*
X619233Y557569D01*
X619224Y557430D01*
X619214Y557273D01*
X619196Y557106D01*
X619168Y556940D01*
X619131Y556801D01*
X619122Y556783D01*
X619113Y556736D01*
X619085Y556672D01*
X619048Y556588D01*
X618992Y556496D01*
X618937Y556404D01*
X618872Y556311D01*
X618798Y556219D01*
X618780Y556209D01*
X618743Y556172D01*
X618678Y556117D01*
X618586Y556052D01*
X618465Y555978D01*
X618327Y555895D01*
X618170Y555821D01*
X617994Y555756D01*
X617985D01*
X617966Y555747D01*
X617938Y555738D01*
X617901Y555729D01*
X617855Y555719D01*
X617790Y555701D01*
X617726Y555682D01*
X617652Y555664D01*
X617467Y555636D01*
X617254Y555608D01*
X617014Y555590D01*
X616755Y555581D01*
X616746D01*
X616709D01*
X616662D01*
X616589Y555590D01*
X616505D01*
X616413Y555599D01*
X616302Y555608D01*
X616191Y555618D01*
X615941Y555664D01*
X615682Y555719D01*
X615442Y555803D01*
X615322Y555858D01*
X615220Y555914D01*
X615211D01*
X615192Y555932D01*
X615165Y555951D01*
X615128Y555969D01*
X615035Y556043D01*
X614924Y556135D01*
X614804Y556256D01*
X614684Y556394D01*
X614582Y556552D01*
X614499Y556718D01*
X614490Y556736D01*
X614481Y556783D01*
X614453Y556866D01*
X614425Y556986D01*
X614407Y557134D01*
X614379Y557319D01*
X614370Y557430D01*
Y557550D01*
X614360Y557670D01*
Y559150D01*
D02*
G37*
G36*
X272367Y607100D02*
X275233D01*
X272367Y605085D01*
Y607100D01*
D02*
G37*
%LPD*%
D11*
X549450Y323050D02*
Y416950D01*
X350550D01*
Y323050D02*
Y416950D01*
X549450Y323050D02*
X350550D01*
X573500Y466500D02*
Y633500D01*
Y466500D02*
X346500D01*
Y633500D01*
X573500D02*
X346500D01*
X134350Y465600D02*
X105650D01*
X134350Y409000D02*
Y465600D01*
Y409000D02*
X105650D01*
Y465600D01*
X411000Y235650D02*
Y264350D01*
Y235650D02*
X354400D01*
Y264350D01*
X411000D02*
X354400D01*
X634500Y623380D02*
X605500D01*
X634500Y496620D02*
Y623380D01*
Y496620D02*
X605500D01*
Y623380D01*
X284350Y571700D02*
X255650D01*
Y628300D01*
X284350D02*
X255650D01*
X284350Y571700D02*
Y628300D01*
X321000Y485650D02*
Y514350D01*
Y485650D02*
X264400D01*
Y514350D01*
X321000D02*
X264400D01*
X636750Y98000D02*
X603250D01*
Y162000D01*
X636750D02*
X603250D01*
X636750Y98000D02*
Y162000D01*
X225600Y485650D02*
Y514350D01*
Y485650D02*
X169000D01*
Y514350D01*
X225600D02*
X169000D01*
M02*
